<svg viewBox="244.932 109.456 42.232 78.712" xmlns="http://www.w3.org/2000/svg"><defs><clipPath id="a"><path d="M244.852 109.34h42.53v79.097h-42.53Zm0 0"/></clipPath></defs><g clip-path="url(#a)"><path fill="#ffafcc" d="M253.422 143.445c-.39.336-.766.684-1.172.996-.512.403-1.055.77-1.57 1.16-.461.356-.996.57-1.5.848-.192.106-.453.18-.57.055-.11-.117-.06-.387.03-.59.262-.559.692-.945 1.208-1.258.03-.023.043-.074.066-.11-.031.013-.062.032-.094.044-.265.09-.527.195-.8.25-.094.02-.223-.094-.32-.172-.098-.078-.036-.156.007-.254.121-.254.348-.371.566-.5.043-.027.07-.074.102-.11-.05-.007-.11-.034-.156-.023-.395.11-.778.246-1.176.328-.309.059-.633.051-.945.07-.293.024-.348.016-.496-.054-.313-.152-.332-.32-.122-.582.239-.297.594-.316.903-.43.347-.133.726-.148 1.09-.222.668-.125 1.343-.243 1.984-.485.371-.14.754-.23 1.121-.386.613-.258 1.254-.48 1.758-.95.242-.226.488-.445.73-.668.024-.02.024-.058.032-.09-.032.008-.07.004-.09.02-.192.14-.383.277-.563.43-.34.285-.722.523-1.117.718-.644.31-1.305.598-2.012.75-.406.09-.796.243-1.195.36a3.918 3.918 0 0 1-.46.105c-.235.032-.477.067-.712.067-.262 0-.527.004-.785.015-.266.016-.523-.015-.789-.015-.148 0-.305-.016-.438-.075-.082-.03-.148-.148-.18-.242-.034-.101.024-.168.134-.222.203-.106.41-.157.629-.196.363-.07.726-.14 1.093-.203.055-.008.114.004.168 0 .063-.008.125-.02.192-.031-.063-.035-.121-.09-.188-.102-.527-.097-1.078-.093-1.582-.32-.101-.047-.23-.035-.336-.078-.246-.106-.304-.246-.246-.531.027-.13.168-.211.383-.215.156-.004.316 0 .473-.004.027 0 .054-.02.082-.035-.028-.008-.055-.024-.086-.031-.399-.094-.786-.211-1.118-.47-.05-.038-.109-.07-.152-.116-.105-.121-.055-.286.098-.278.16.008.312-.058.484-.02.235.055.477-.007.719 0 .41.02.82.02 1.223.141.07.02.164-.02.246-.03-.078-.036-.153-.083-.23-.099-.516-.101-.993-.308-1.473-.515-.43-.184-.801-.43-1.137-.746a.65.65 0 0 1-.121-.153c-.157-.273-.082-.402.226-.406.242 0 .45.106.664.188.942.359 1.875.726 2.825 1.062.285.102.609.102.906.168.37.082.75.016 1.113.078.3.051.606.094.883.04.383-.079.793.015 1.168-.176.152-.079.36-.055.539-.079.031-.004.059-.02.086-.03-.016-.036-.024-.102-.047-.11a.5.5 0 0 0-.227-.016c-.308.082-.617.164-.941.164-.184 0-.363.055-.547.055-.156 0-.316-.059-.472-.055-.555.008-1.083-.117-1.61-.273-.48-.145-.969-.254-1.441-.418a7.21 7.21 0 0 1-1.875-.996 10.076 10.076 0 0 1-.559-.43c-.047-.043-.066-.129-.082-.2-.023-.081.016-.105.106-.116.27-.036.507.082.746.16.293.097.566.25.855.37.094.04.195.067.293.099.027.007.059 0 .082 0-.012-.032-.016-.075-.035-.083-.266-.136-.527-.308-.813-.398-.46-.148-.828-.445-1.222-.703a2.377 2.377 0 0 1-.375-.313c-.047-.046-.094-.183-.07-.199.078-.066.152-.164.296-.113.301.113.61.203.914.316.961.344 1.844.856 2.766 1.282.04.023.09.03.137.043-.02-.055-.024-.137-.063-.16-.164-.09-.285-.235-.476-.31a15.808 15.808 0 0 1-1.707-.75c-.356-.179-.684-.421-1.004-.66-.254-.19-.477-.425-.715-.64-.02-.02-.031-.047-.047-.07.031-.008.063-.028.094-.02.254.063.508.121.758.203.437.14.867.29 1.297.442.46.16.917.332 1.39.515.043.028.063.04.086.067.02.015.043.02.063.02a.196.196 0 0 1-.063-.055c-.02-.032-.043-.04-.066-.051-.157-.145-.305-.301-.473-.438a7.411 7.411 0 0 1-1.488-1.558c-.047-.063-.13-.102-.16-.168-.032-.063-.051-.164-.024-.215.027-.04.137-.047.203-.04a.58.58 0 0 1 .192.106c.53.39 1.093.73 1.691 1.02.262.129.508.285.781.441.035.02.059.024.078.024-.02-.016-.043-.028-.062-.04-.129-.117-.242-.238-.379-.343a7.173 7.173 0 0 1-1.61-1.754c-.054-.086-.179-.211-.066-.305.051-.039.227.028.309.09.48.371.945.766 1.48 1.063.36.203.735.386 1.11.57.039.02.101-.012.152-.02-.023-.03-.047-.066-.074-.093-.48-.465-.883-.989-1.254-1.536-.242-.351-.434-.742-.645-1.113-.02-.031-.011-.078-.015-.113.039.004.09-.004.113.02.164.156.32.312.477.472.367.387.703.809 1.105 1.152.356.297.742.563 1.078.891.024.024.063.035.094.055-.008-.04-.004-.086-.024-.113-.066-.098-.132-.2-.214-.286-.403-.418-.73-.894-1.028-1.39-.312-.528-.61-1.067-.757-1.672-.028-.113-.086-.211-.114-.324-.012-.047.012-.106.016-.157.07.016.168.008.2.051.183.227.343.465.519.692.21.273.433.539.652.808.3.371.598.742.906 1.11.266.316.535.628.813.94.023.032.074.044.113.063-.012-.035-.016-.082-.04-.113-.304-.445-.663-.863-.913-1.34-.254-.48-.48-.988-.594-1.535-.078-.39-.2-.77-.3-1.156-.005-.008-.024-.016-.024-.024.008-.082-.008-.21.035-.234.113-.07.164.047.2.137.14.355.421.613.648.902.332.422.652.84.898 1.317.016.023.012.066.031.085.016.02.051.028.082.04 0-.028.008-.059 0-.082-.078-.168-.152-.34-.238-.508-.207-.399-.336-.825-.453-1.258-.094-.344-.148-.703-.277-1.031-.133-.348-.04-.688-.059-1.032 0-.02.016-.035.027-.054.024.02.055.035.07.062.15.262.294.528.442.79l.774 1.363c.082.148.16.293.238.441.012.027.015.062.023.09.016-.031.043-.067.04-.102-.016-.191-.02-.39-.067-.578-.176-.668-.121-1.351-.129-2.031 0-.02-.008-.055 0-.063.113-.078.016-.308.191-.3.075.004.165.148.211.246.286.625.536 1.261.68 1.937.063.293.176.578.266.867.199.637.441 1.262.543 1.93.015.11.086.207.129.313.02.043.03.09.043.136.007-.054.027-.105.023-.16-.012-.113-.043-.226-.063-.344a7.519 7.519 0 0 1-.144-1.257c-.004-.274-.156-.559-.106-.817.047-.265.079-.535.032-.781-.102-.563-.032-1.125-.051-1.691-.008-.266.043-.54.066-.813 0-.02.04-.05.059-.05.023 0 .062.023.07.042.051.149.102.297.133.45.11.496.227.992.277 1.503.04.422.13.844.196 1.262.008.035.035.07.054.102.028-.036.079-.07.079-.106.027-.43.046-.855.07-1.285.004-.043-.016-.098.004-.133.035-.058.078-.125.136-.152.09-.043.125.031.149.113.078.277.168.555.25.836.035.11.047.227.07.34.008.039.024.078.035.113.012-.039.028-.082.032-.12.015-.24-.02-.477.058-.716.043-.125.004-.258-.097-.394-.38-.5-.735-1.016-1.079-1.535a35.093 35.093 0 0 1-1.097-1.739.917.917 0 0 0-.45-.398c-.367-.16-.757-.285-1.14-.41-.336-.106-.688-.18-1.024-.293-.253-.086-.449-.07-.644.136-.215.227-.953.297-1.223.157-.168-.09-.21-.278-.125-.485a.873.873 0 0 1 .41-.449c.118-.059.106-.086.036-.156-.051-.055-.118-.106-.149-.172-.125-.254-.09-.414.113-.566.122-.098.415-.067.57.062.302.242.458.582.59.934.032.078.032.168.075.234.035.059.113.129.164.125.379-.031.695.18 1.047.246.304.063.61.145.914.234.097.028.18.098.277.141.043.024.094.027.137.04-.012-.052-.02-.099-.04-.141a7.23 7.23 0 0 0-.984-1.57c-.328-.391-.78-.673-1.14-1.04-.266-.27-.59-.418-.918-.558-.438-.192-.895-.356-1.387-.305-.23.027-.445.066-.613.316-.121.18-.422.25-.652.348a.998.998 0 0 1-.375.066c-.297-.004-.426-.21-.286-.472.067-.121.243-.2.27-.317.027-.11-.098-.25-.113-.379-.024-.25.078-.359.328-.37.418-.016.722.206.937.53.078.118.145.133.262.145.219.02.434-.047.66-.012.863.125 1.649.403 2.258 1.055.031.035.059.07.094.098.027.02.062.027.093.039-.011-.04-.015-.086-.039-.114-.21-.285-.441-.554-.636-.847-.473-.707-.938-1.418-1.348-2.168-.168-.317-.414-.594-.637-.875-.043-.055-.156-.063-.238-.07-.234-.02-.465.03-.691-.118-.313-.207-.473-.476-.368-.816.036-.11.157-.215.262-.27.156-.082.27-.168.32-.351.024-.098.125-.195.22-.258.163-.11.448-.02.53.168.067.14.13.297.13.45.003.269.05.538-.051.816-.11.289.125.48.27.691.237.348.495.688.706 1.055.258.449.527.886.836 1.3.195.262.371.54.547.817.2.312.469.578.601.93.012.039.063.062.094.097.012-.05.043-.105.031-.148a5.25 5.25 0 0 1-.128-1.461c.023-.48.03-.961.129-1.438.05-.242.039-.496.074-.742.043-.262.097-.52.16-.777.043-.192.117-.38.16-.574.008-.047-.035-.118-.07-.157a1.289 1.289 0 0 1-.336-.539 1.29 1.29 0 0 1 .09-.965c.113-.234.347-.277.574-.128.058.043.133.074.183.12.082.083.145.09.258.044.262-.098.496.062.531.336.055.421-.292 1.011-.687 1.156-.078.027-.172.023-.258.023-.14 0-.183.063-.203.196-.047.28-.125.554-.18.832-.035.168-.07.336-.082.507-.062.72-.187 1.438-.14 2.164.008.114-.07.23-.059.34.024.278.074.551.113.828.024.16.07.317.067.477-.004.246.148.414.27.598.28.418.53.847.765 1.297.215.418.477.816.734 1.21.305.48.625.954.942 1.43.031.055.062.113.105.156.035.032.09.04.14.059.009-.043.024-.082.024-.125 0-.156-.015-.313 0-.469.04-.39.055-.789.18-1.172.082-.238.098-.496.156-.746.07-.304.153-.61.23-.914.016-.058.051-.129.032-.183-.133-.391-.035-.79-.059-1.188a.663.663 0 0 1 .075-.336c.039-.078.14-.164.218-.168.075 0 .164.09.23.153.024.02-.003.09.016.125.04.078.094.144.18.035.063-.078.145-.176.25-.117.098.058.207.14.172.293-.023.113-.02.242-.07.34-.13.238-.278.468-.426.699-.043.062-.106.152-.168.16-.34.05-.344.347-.402.566-.141.496-.247 1-.344 1.508-.051.27-.051.543-.07.816-.02.27-.032.543-.07.813-.032.203.062.351.155.508.082.125.164.246.254.367.016.02.043.031.067.047.023-.028.054-.055.062-.09.094-.41.172-.824.278-1.23.039-.16.152-.301.183-.462.028-.125.094-.117.16-.097.106.031.016.094.012.144-.016.282-.059.575.008.836.035.133-.059.188-.04.293.044.235.032.477.079.711.082.383.144.762.133 1.156 0 .032.02.059.031.086.031-.03.078-.054.094-.093.035-.11.047-.227.074-.34.18-.664.45-1.293.762-1.906.027-.055.054-.114.097-.16.024-.028.07-.04.11-.055.011.035.05.082.039.11-.2.554-.078 1.132-.145 1.694-.035.293-.015.594-.11.891-.073.219-.058.473-.077.707-.004.035-.012.074.004.102.047.113-.203.218-.008.332.047-.11.105-.215.137-.328a9.054 9.054 0 0 1 .68-1.77c.21-.422.476-.816.718-1.219.031-.047.078-.078.117-.117.012.05.035.106.028.152-.055.336-.114.668-.18 1-.047.25-.11.496-.152.746-.075.43-.137.864-.2 1.297-.008.028.012.059.02.09.039-.035.097-.062.11-.105.073-.293.12-.598.206-.887.176-.566.285-1.156.598-1.676.058-.094.11-.187.21-.14.083.039.192.152.188.23-.007.3-.05.602-.086.902-.004.04-.035.079-.035.121.004.094.024.192.031.286.036-.086.075-.172.102-.262.094-.285.18-.574.27-.863.003-.02 0-.047.011-.059.09-.101.172-.215.282-.285.046-.035.234.258.246.383.058.722-.075 1.41-.348 2.078-.164.402-.316.808-.477 1.215-.015.039-.039.074-.046.113-.008.027.007.062.015.094.02-.032.035-.063.05-.09.27-.45.544-.899.802-1.352.09-.156.199-.28.332-.394.043-.04.047-.117.078-.172.101-.164.137-.367.34-.48.097-.06.133-.223.199-.337.11-.187.223-.375.34-.566.066-.117.195-.133.289-.094.101.051.21.133.18.286-.024.113-.043.23-.07.343-.02.094-.087.203-.06.274.176.433.024.828-.097 1.234-.008.024.008.074.008.074.195-.015.183.14.215.254.007.031.023.059.035.09.023-.023.05-.047.07-.074.09-.106.172-.219.266-.324.031-.04.113-.082.133-.067.046.031.09.098.097.153.035.187-.027.359-.11.523-.175.355-.335.719-.527 1.062-.273.493-.437 1.028-.64 1.551-.098.25-.223.496-.36.727-.078.137-.043.144.082.152.325.02.59-.015.762-.367a4.82 4.82 0 0 1 .602-.89c.234-.294.512-.555.77-.829a.265.265 0 0 1 .136-.066c.098-.02.223-.07.29-.031.14.078.081.23.05.355-.086.344-.3.625-.504.902-.281.383-.598.743-.898 1.11-.06.07-.098.101.023.16.16.074.281.101.402-.047.078-.094.168-.184.262-.258.063-.05.16-.11.223-.094.105.024.105.137.113.243.02.254-.16.41-.281.593-.063.094-.16.16-.235.239-.027.035-.043.082-.07.12.055-.003.117.012.156-.01.2-.118.383-.263.586-.372.125-.063.274-.168.41-.012.082.102.04.301-.101.434-.176.164-.363.316-.543.476-.02.02-.035.051-.055.075.04 0 .082.015.113 0 .164-.067.32-.153.489-.211.222-.082.293-.04.414.215.062.132.02.257-.137.355-.082.05-.164.125-.246.133-.14.008-.11.097-.098.16.043.25-.047.469-.277.582-.445.223-.898.43-1.348.645-.015.007-.035.03-.054.03a.414.414 0 0 0-.336.114c.12.008.246.035.36.016a8.923 8.923 0 0 0 1.019-.22c.16-.046.296-.097.414.048.066.082-.063.351-.215.433-.246.125-.508.23-.762.348-.45.207-.922.215-1.398.203-.274-.008-.282.012-.2.274.168.523.332 1.05.504 1.574.278.875.578 1.738.809 2.629.117.441.293.867.422 1.304.222.762.433 1.524.648 2.286.176.613.352 1.226.516 1.84.09.335.152.68.226 1.019.016.059.043.113.067.172.012.023.031.047.043.066.008-.02.02-.035.023-.058.07-.399.137-.797.203-1.196.043-.238.07-.48.137-.714.098-.329.129-.665.207-.993.082-.355.05-.699.055-1.05a10.72 10.72 0 0 0-.13-1.73c-.007-.044 0-.087 0-.134-.019-3.277-.042-6.554-.065-9.832 0-.37-.036-.746.007-1.11.098-.866 0-1.734.078-2.597.043-.508.094-1.023.036-1.52-.086-.8-.086-1.6-.036-2.394.082-1.316.02-2.633.055-3.945.004-.149.047-.297.063-.442.007-.043-.008-.086-.016-.129-.035.024-.066.043-.098.07-.285.286-.566.575-.859.856-.184.18-.406.305-.664.34-.375.055-.668-.117-.875-.402-.332-.465-.59-.965-.516-1.567.059-.468.149-.933.438-1.332.02-.027.012-.074.015-.113-.03.02-.07.031-.093.063-.305.367-.59.753-.914 1.101-.317.34-.586.711-.825 1.106-.254.414-.511.824-.761 1.234-.196.316-.399.621-.707.848-.274.203-.551.183-.825.066a1.575 1.575 0 0 1-.707-.602c-.214-.335-.152-.707-.101-1.074.097-.66.433-1.234.746-1.808.148-.274.32-.563.629-.711.027-.012.047-.047.07-.07-.039-.012-.082-.04-.117-.032-.082.012-.16.043-.242.063-.598.16-1.196.3-1.79.476-.585.172-1.167.375-1.75.563-.445.14-.902.183-1.34.035-.46-.164-.718-.594-.44-1.078.128-.227.21-.485.374-.68a2.6 2.6 0 0 1 .622-.508c.496-.312.988-.633 1.515-.883.45-.21.899-.437 1.387-.55.27-.067.539-.13.82-.141.242-.012.48-.086.723-.121.258-.031.515-.05.777-.074.04-.008.082-.016.125-.02-.039-.023-.07-.055-.11-.07-.41-.152-.82-.3-1.23-.45-.183-.07-.37-.132-.554-.202-.067-.028-.13-.07-.192-.114-.066-.047-.14-.09-.187-.152-.035-.05-.031-.129-.047-.195-.07.043-.14.105-.219.12-.062.008-.14-.03-.207-.062-.316-.152-.629-.316-.95-.469a14.267 14.267 0 0 1-2.124-1.21c-.184-.13-.379-.235-.555-.364-.328-.25-.504-.61-.61-.992-.1-.363.098-.617.388-.797.375-.234.8-.351 1.218-.472.012-.004.024 0 .035 0 .122-.032.243-.063.368-.09-.051-.102-.114-.2-.145-.301-.023-.086-.02-.184-.02-.274 0-.039.044-.082.036-.117-.067-.289.148-.437.328-.566.11-.074.297-.078.441-.055.348.047.688.121 1.028.195.625.13 1.25.274 1.796.614.356.219.668.504.993.773.297.238.597.477.87.738.22.211.407.457.606.692.043.047.067.113.113.152.438.367.711.864 1.032 1.324.375.528.758 1.055 1.133 1.582.023.032.05.09.035.118-.051.101-.098.02-.137-.02-.367-.344-.64-.766-.965-1.14-.437-.5-.742-1.102-1.242-1.543-.195-.176-.348-.399-.531-.59-.575-.594-1.239-1.078-1.899-1.582-.449-.344-.957-.5-1.484-.649a4.205 4.205 0 0 0-.426-.101c-.371-.059-.738-.121-1.11-.164-.198-.02-.327.18-.304.433.016.227.156.324.375.309.313-.024.617.058.906.168.555.215 1.07.508 1.575.828.246.156.523.262.77.418.183.113.355.246.507.398.406.387.8.785 1.191 1.188.637.652 1.27 1.312 1.903 1.969.066.07.117.152.168.234.086.144.164.297.246.445-.14-.117-.29-.23-.422-.355-.227-.215-.445-.442-.664-.66a6.731 6.731 0 0 1-.164-.168c-.5-.5-1.004-.996-1.5-1.5-.13-.133-.23-.293-.36-.418-.629-.621-1.355-1.094-2.148-1.477-.41-.195-.809-.426-1.238-.574a1.797 1.797 0 0 0-1.11-.024c-.375.106-.746.204-1.105.34-.242.094-.465.242-.684.38-.043.03-.066.14-.055.202.063.297.157.567.43.762.64.465 1.305.883 2.004 1.258.758.41 1.543.77 2.332 1.113.57.246 1.156.453 1.746.668.176.063.367.086.555.121.308.059.625.113.937.168.055.012.106.031.157.031.605-.015 1.144.18 1.629.54.023.019.058.019.09.027.023.004.046.008.07.015-.004-.027.004-.066-.012-.09a.25.25 0 0 0-.098-.093c-.222-.078-.257-.281-.332-.465-.039-.098-.039-.168.04-.234.085-.067.163-.055.23.023.125.156.168.059.21-.059.012-.03.024-.058.032-.085.074-.2.219-.262.355-.125.141.148.235.125.36.003.035-.035.094-.043.133-.074.082-.066.129-.136.07-.254-.176-.336-.168-.715-.246-1.074-.078-.348-.16-.695-.27-1.031-.214-.64-.418-1.285-.687-1.903-.14-.324-.375-.62-.613-.89-.348-.39-.743-.75-1.11-1.125-.418-.418-.937-.637-1.496-.777-.195-.051-.39-.09-.586-.137-.152-.031-.18.066-.144.172.058.207.113.425.218.613.23.422.547.781.899 1.11.488.452.87.988 1.238 1.538.227.332.402.68.555 1.051.133.317.324.625.547.883.304.352.5.766.777 1.129.172.215.363.41.547.617.015.02.031.047.047.07-.035 0-.082.016-.114 0-.367-.175-.652-.418-.832-.816-.148-.32-.378-.613-.613-.887-.316-.367-.515-.793-.738-1.21-.16-.294-.379-.563-.567-.844a7.805 7.805 0 0 0-1.168-1.368 5.946 5.946 0 0 1-.863-1.09 1.892 1.892 0 0 1-.281-1.16c.012-.136.102-.246.262-.234.238.016.484.008.71.074.395.117.801.223 1.153.461.129.09.277.16.39.274.399.379.774.78 1.172 1.16.372.351.668.765.868 1.222.254.59.43 1.215.62 1.829.11.351.196.71.27 1.07.043.219.043.45.075.676.035.238.082.48.14.718.016.067.09.125.149.164.02.012.093-.062.136-.105.016-.012.024-.059.012-.066-.176-.125-.074-.309-.102-.465-.043-.203-.07-.418-.14-.614-.137-.402-.188-.824-.278-1.234-.136-.633-.097-1.266-.125-1.898-.03-.711.247-1.305.649-1.852.34-.46 1.133-.508 1.562-.113.141.129.266.273.407.398.16.14.183.352.203.524.054.535.113 1.086.062 1.617-.062.676-.218 1.344-.523 1.965-.211.43-.422.863-.66 1.273-.114.2-.004.328.058.485 0 .003.059-.004.067-.02.172-.441.472-.8.75-1.168.285-.383.664-.684 1.086-.926.57-.332 1.18-.566 1.8-.765a2.907 2.907 0 0 1 1.204-.102c.406.043.585.43.43.82-.114.286-.325.477-.563.657-.024.015-.059.023-.078.046-.024.032-.036.075-.051.114.043 0 .097.023.129.004a5.831 5.831 0 0 1 1.304-.508c.489-.117.965-.27 1.454-.399.343-.09.69-.171 1.039-.253.07-.02.152-.016.226-.016.293 0 .586.023.875-.004.48-.043.82.41.668.934a1.23 1.23 0 0 1-.426.629c-.12.09-.047.128.016.19.117.118.266.216.344.356.207.356.375.735.36 1.164 0 .028.019.059.026.09.012-.023.028-.047.04-.074.136-.258.277-.512.414-.773.105-.207.082-.196-.032-.356-.195-.281-.382-.566-.457-.922-.097-.484-.039-.968-.054-1.457-.004-.058.062-.172.101-.176.074-.003.192.036.223.094.226.387.457.774.64 1.18.098.219.2.476.02.726-.023.032-.012.09-.016.137.047-.02.11-.027.133-.058.172-.23.332-.47.504-.704.066-.085.137-.164.211-.242-.102-.043-.2-.09-.3-.129-.348-.144-.509-.464-.63-.777a2.263 2.263 0 0 1-.015-1.633c.074-.183.14-.199.27-.05.023.023.062.042.066.074.086.457.382.808.613 1.191.144.242.281.473.266.77 0 .027.023.054.03.086a.6.6 0 0 0 .052-.047c.086-.13.168-.27.261-.391.11-.144.086-.266-.043-.371-.394-.324-.52-.785-.636-1.254-.122-.457-.047-.922-.067-1.387-.004-.03-.004-.074.012-.093.105-.137.047-.375.277-.43.059.152.121.3.18.457.078.203.129.418.23.61.211.398.383.812.489 1.241.047.184.07.387-.043.575-.016.03.023.097.035.148.031-.031.07-.058.098-.094.132-.156.324-.296.378-.48.055-.18-.02-.399-.046-.606-.024-.21.062-.394.136-.582.313-.804.926-1.379 1.528-1.957.062-.058.14-.097.21-.144.06-.035.126-.07.184-.106.008.075.035.157.024.227-.036.262-.067.527-.137.785-.102.371-.192.742-.32 1.11-.2.546-.586.921-.989 1.304-.039.035-.097.07-.136.067-.395-.059-.508.312-.743.488-.02.012-.02.058-.027.09.04.004.086.027.117.015.168-.086.34-.144.52-.203.308-.097.566-.039.832.082.37.172.734.356 1.144.41.047.004.098.047.13.086.01.016-.024.102-.052.106-.062.015-.136.008-.199.004-.37-.02-.719.117-1.078.172-.2.027-.398.066-.598.097-.136.024-.27.063-.406.063a1.06 1.06 0 0 1-.629-.184c-.183-.117-.218-.113-.351.05a1.822 1.822 0 0 0-.117.184c-.047.083-.079.172-.118.254.082.012.168.04.25.032.336-.02.582.183.84.332.344.191.684.367 1.078.418.067.007.125.066.188.105-.035.05-.059.117-.106.156-.312.29-.82.391-1.277.274-.313-.078-.598-.192-.84-.406a3.537 3.537 0 0 1-.344-.38c-.093-.117-.171-.113-.257.008-.149.196-.305.391-.454.586-.054.079-.03.133.063.121.531-.054.875.333 1.289.543.152.079.293.176.418.286.152.136.129.218-.05.316-.184.098-.38.121-.587.145-.39.035-.687-.114-.96-.375-.114-.106-.266-.172-.391-.266-.125-.094-.219-.035-.274.062-.183.329-.355.66-.523.997-.024.039-.008.101-.008.156.043-.016.086-.031.129-.043.5-.168.973-.012 1.434.144.148.051.253.215.382.328-.097.11-.172.254-.293.313-.27.137-.543.273-.851.293-.219.012-.254.059-.164.273.035.079.082.153.094.23.046.282-.094.5-.418.618-.426.16-.86.281-1.32.223-.044-.004-.098.004-.126-.024-.18-.144-.254.031-.344.125-.046.047-.05.133-.074.203.063-.011.13-.039.192-.03.238.015.496-.009.707.073.254.094.511.13.765.192.14.035.172.117.075.242a3.723 3.723 0 0 1-.36.422c-.11.113-.129.187-.023.332.156.222.285.465.379.719.039.097-.004.257-.059.367-.16.324-.547.465-.89.351-.07-.023-.141-.05-.208-.074-.191-.055-.355-.074-.558.05-.32.196-.688.153-1.024.009-.152-.067-.297-.063-.445-.059-.059.004-.137.05-.156.098-.113.23-.211.472-.313.71 0 .009.051.06.078.063.305.004.606.004.91.004.067 0 .133-.008.2 0 .097.016.12.102.05.172-.124.129-.253.254-.378.383-.328.32-.621.351-1.012.097-.106-.066-.172-.113-.234.063-.07.195-.192.371-.278.559-.101.214-.062.27.16.273.235.004.473-.012.704.004.105.008.242.05.296.125.082.113-.011.355-.129.441-.265.207-.863.23-1.156.051-.215-.133-.246-.125-.351.113-.2.465-.395.934-.594 1.403-.012.023-.02.047-.027.07.03.004.074.023.093.012.235-.149.493-.184.758-.203.098-.008.11-.102.14-.188.126-.34.333-.621.692-.75a.865.865 0 0 1 .277-.062c.313-.008.625.004.942-.008.508-.016 1.016-.04 1.52-.07.074-.004.152-.07.218-.118.094-.074.008-.058-.039-.082-.379-.207-.601-.597-.512-.914.047-.168.114-.336.164-.504.04-.14.06-.289.102-.43.063-.214.117-.226.277-.062.254.27.395.594.461.953.02.09.051.18.067.274.015.086.015.175.023.261.07-.062.14-.125.211-.183.133-.113.27-.227.399-.344.066-.055.074-.094-.02-.137-.55-.242-.613-.605-.516-1.117.067-.363.278-.695.465-1.015a.383.383 0 0 1 .117-.122c.063-.05.114-.058.133.043.016.075.059.137.067.211.023.352.074.692.246 1.008.043.082.047.184.074.274.059.18.133.203.277.09.137-.106.258-.235.403-.329.109-.07.18-.105.078-.246-.23-.324-.133-.668-.04-1.011.087-.325.274-.61.317-.95.004-.047.098-.101.16-.12.024-.009.074.07.114.105.015.015.043.027.043.047.05.34.101.68.144 1.02.023.194-.012.382-.094.562-.015.035-.02.078-.031.113.031-.016.066-.024.098-.047.093-.066.18-.156.28-.211.204-.102.313-.23.298-.484a.507.507 0 0 1 .172-.399c.441-.367.918-.64 1.515-.656.18-.004.36-.04.543-.066.121-.016.153.078.114.136-.336.469-.598 1.004-1.153 1.278-.172.09-.351.14-.547.136-.55-.004-.554-.004-.988.301-.074.05-.137.117-.203.176.09.02.18.058.266.058.41-.007.789.16 1.191.215.059.008.113.055.16.094.031.024.047.07.067.106-.032.02-.063.043-.098.058-.16.074-.344.117-.48.219-.266.195-.567.223-.868.18a1.23 1.23 0 0 1-.715-.375c-.101-.11-.187-.086-.273-.02-.188.145-.367.3-.55.457-.079.07-.087.113.042.149.43.125.856.265 1.281.402.211.07.246.219.098.383-.293.324-.668.351-1.05.261-.325-.078-.645-.195-.833-.527-.023-.043-.18-.043-.254-.012-.074.028-.129.114-.191.18-.09.102-.176.207-.262.309.117.074.227.156.352.21.273.122.558.223.836.344.074.035.191.11.187.16a.35.35 0 0 1-.156.23c-.324.177-.66.196-1.024.083-.289-.09-.519-.242-.718-.465-.024-.027-.09-.047-.114-.035-.105.055-.011.094.02.14.254.329.46.676.547 1.087.023.093.05.19.043.285-.024.215.062.351.238.468.649.422 1.043 1.036 1.277 1.754.125.387.215.793.165 1.207-.051.434-.133.864-.196 1.297-.015.114.004.227 0 .336-.023.363-.047.723-.066 1.086-.004.031.012.059.015.09.028-.016.051-.027.075-.043.28-.23.535-.496.867-.668.535-.277 1.047-.617 1.64-.746a3.977 3.977 0 0 1 1.997.066c.238.07.468.22.57.48.176.45.465.813.805 1.153.324.324.55.707.496 1.207-.043.41.035.809.164 1.207.093.29.218.617-.032.914-.035.04-.046.11-.085.13-.415.198-.82.402-1.278.495-.785.16-1.578.117-2.367.13-.746.015-1.488.042-2.23.066-.028 0-.06.015-.09.023.02.023.035.055.058.074.336.188.684.348 1.059.438.379.094.754.195 1.137.27.23.042.472.062.71.066.56.011 1.122.007 1.68 0 .309 0 .578.09.863.195.614.234 1.153.59 1.692.953a.86.86 0 0 1 .402.727c.012.21.055.422.11.625.05.183.02.343-.098.48-.223.258-.45.516-.691.754-.13.125-.293.207-.446.305-.07.043-.16.058-.226.105a7.777 7.777 0 0 1-1.207.735.878.878 0 0 1-.399.105c-.18.004-.375.004-.539.07-.308.125-.601.055-.89-.011-.422-.106-.84-.254-1.192-.536-.203-.164-.418-.312-.586-.527-.12-.16-.316-.265-.46-.414-.204-.21-.391-.441-.579-.668-.094-.113-.176-.238-.258-.363-.015-.024.016-.074.024-.11.027.008.07.008.09.024.09.105.164.234.265.324.395.363.801.719 1.203 1.074.106.094.22.176.328.266.457.375 1.028.453 1.575.586.195.05.422.027.644-.035.23-.063.477-.09.719-.145.16-.035.14-.101.102-.195-.106-.258-.293-.445-.504-.625-.293-.254-.66-.34-1.012-.387-.45-.054-.848-.242-1.266-.363-.328-.094-.652-.207-1-.188-.425.02-.777-.109-.992-.515-.07-.133-.183-.125-.25.015-.129.286-.262.57-.281.899-.008.144-.09.3-.184.422-.133.172-.39.156-.636 0-.465-.301-.786-.739-1.051-1.207-.184-.328-.309-.684-.496-1.004a5.167 5.167 0 0 0-.543-.75c-.246-.293-.325-.613-.196-.961.067-.18-.023-.317-.058-.465-.016-.059-.14-.098-.219-.133-.23-.113-.238-.11-.309.121-.117.367-.214.742-.343 1.106-.164.469-.352.93-.535 1.39-.22.551-.446 1.098-.672 1.641-.176.41-.364.816-.54 1.227-.245.582-.492 1.164-.742 1.746-.175.41-.359.816-.543 1.222-.27.582-.52 1.176-.738 1.782-.156.425-.36.835-.547 1.253a26.599 26.599 0 0 0-.867 2.098c-.234.652-.5 1.297-.754 1.942-.004.011-.02.015-.023.027-.028.105-.047.21-.07.316.171.016.124-.152.187-.226.23-.29.453-.59.719-.848.562-.547 1.148-1.062 1.722-1.601.493-.461.985-.926 1.47-1.407.187-.191.366-.402.491-.633a.973.973 0 0 0-.008-.925c-.25-.489-.21-.98-.062-1.485.129-.441.223-.894.375-1.324.156-.437.27-.898.531-1.293.02-.031.059-.05.082-.074.016.035.051.074.051.105-.02.172-.043.34-.066.508-.016.16-.036.324-.051.485a3.287 3.287 0 0 0-.016.195 11.754 11.754 0 0 1-.254 1.773c-.078.356-.015.739-.015 1.11 0 .02.015.035.027.054.023-.02.05-.035.07-.058.13-.125.254-.25.38-.375.187-.184.257-.41.265-.664.02-.48.11-.953.2-1.43.023-.129-.028-.281.015-.398.133-.34.39-.579.726-.727.024-.012.063.012.094.016-.012.043-.012.093-.039.117-.145.133-.309.246-.441.387-.09.097-.149.226-.215.347-.012.02.004.07.02.086.019.016.066.012.09 0a.427.427 0 0 0 .093-.094.496.496 0 0 1 .566-.144c.215.09.254.027.313-.153.02-.062.015-.25.152-.19.117.054.016.167-.027.25-.035.073-.063.155-.114.218-.074.09-.144.172-.3.094-.305-.149-.516.109-.75.234-.032.016-.043.094-.047.144a4.6 4.6 0 0 1-.2 1.262c-.011.04.028.094.04.145.039-.02.078-.031.113-.059.023-.015.047-.047.07-.07.25-.23.5-.465.758-.688.375-.328.649-.734.918-1.136.09-.13.11-.325.11-.489.003-.472.144-.898.41-1.28.187-.263.402-.509.609-.759a.336.336 0 0 1 .16-.097c.102-.02.211-.016.172.148-.02.07-.031.145-.059.211-.218.469-.449.938-.664 1.406-.086.188-.129.406-.246.567-.21.28-.469.527-.707.789-.023.027-.035.062-.055.093.04-.007.083-.003.114-.023.117-.074.226-.156.344-.23.363-.243.78-.407 1.058-.766a.248.248 0 0 1 .05-.043c.067-.023.138-.04.204-.063-.047.063-.05.133-.121.204-.524.5-1.164.82-1.766 1.203a3.21 3.21 0 0 0-.402.328c-.273.242-.535.492-.805.734-.105.094-.226.168-.324.266-.043.039-.039.117-.059.18.051.011.102.042.149.035.43-.063.863-.04 1.297-.118a.527.527 0 0 0 .363-.25c.297-.449.668-.828 1.031-1.218a.306.306 0 0 1 .098-.09c.02-.008.059.012.086.027.012.008.016.051.004.063-.04.05-.09.094-.133.144-.316.399-.633.793-.941 1.196-.192.246-.41.398-.739.386-.425-.011-.855.004-1.28-.004a.346.346 0 0 0-.29.121c-.246.266-.55.473-.73.801-.106.196-.184.407-.317.575-.262.335-.547.648-.828.972-.059.067-.129.125-.188.192-.015.015.008.058.012.09.016-.008.04-.012.047-.02.223-.262.547-.145.817-.227.238-.07.5-.027.742-.082.379-.082.793-.023 1.129-.285.03-.023.078-.05.113-.043.055.02.105.063.16.098-.039.035-.078.086-.121.097-.426.13-.79.372-1.18.579-.32.171-.664.328-1.054.386-.356.047-.664.055-.973-.14-.035-.024-.129 0-.176.035-.164.125-.32.262-.473.398-.425.383-.855.758-1.273 1.145-.168.156-.309.34-.453.52-.254.308-.5.62-.758.929-.422.516-.598 1.145-.805 1.758-.238.707-.468 1.418-.703 2.129-.078.238-.16.472-.234.71-.012.048.004.106.012.16.011.052.043.099.046.15.028.57.047 1.148.067 1.722.027.586.012 1.176.082 1.754.05.398 0 .797.062 1.183.075.442.02.88.063 1.317.043.433.137.863.195 1.297.031.25.04.5.07.746.032.23.09.457.126.687.03.227.05.45.074.676.047.453.09.906.137 1.36.042.351.074.707.14 1.054.102.543.137 1.09.203 1.633.047.375.098.746.137 1.121.059.613.16 1.219.203 1.836.031.453.094.906.133 1.36.055.632.082 1.265.14 1.894.04.422-.007.844.063 1.254.09.543-.008 1.09.066 1.62.106.825.024 1.645.059 2.466.008.172.078.344.063.511-.082.81-.055 1.618-.063 2.43 0 .059-.035.121-.059.176-.015.031-.046.055-.07.082-.023-.035-.074-.074-.066-.102.144-.527.023-1.058.058-1.59.024-.351.051-.703.047-1.054-.004-.629.016-1.262-.062-1.883-.051-.406-.032-.812-.051-1.219-.027-.644-.02-1.293-.082-1.933-.027-.282-.008-.575-.063-.848-.07-.34-.007-.684-.07-1.012-.086-.476-.055-.964-.187-1.433-.028-.106 0-.227-.004-.336a4.853 4.853 0 0 0-.13-.922c-.05-.211-.054-.43-.07-.645-.046-.5-.082-.996-.14-1.492-.055-.515-.13-1.023-.2-1.535-.066-.5-.124-1-.206-1.496-.067-.418-.133-.832-.13-1.258 0-.02.008-.05-.003-.066a1.574 1.574 0 0 0-.102-.125c-.012.039-.035.082-.031.12.02.641.004 1.286.082 1.923.039.332.035.656.05.984.126 2.524.044 5.05.071 7.578.004.305.047.61.063.914 0 .04-.04.082-.059.125-.023-.039-.07-.074-.07-.113-.028-.566-.012-1.137-.075-1.7-.109-.956.012-1.917-.074-2.866-.07-.735.008-1.465-.066-2.192-.047-.5-.008-1-.074-1.484-.047-.367-.008-.727-.055-1.086-.106-.774 0-1.555-.078-2.328-.063-.578-.024-1.149-.051-1.723-.027-.527-.027-1.059-.074-1.59-.04-.433-.137-.863-.192-1.297-.054-.414-.086-.836-.136-1.257a87.623 87.623 0 0 0-.203-1.461c-.008-.032-.047-.055-.07-.086-.02.03-.055.058-.063.09-.16.652-.34 1.304-.461 1.964-.051.282-.094.567-.149.848-.062.3-.148.598-.191.898-.04.254-.106.504-.129.75-.047.43-.219.848-.152 1.29.039.261.086.523.129.785.003.03 0 .066.003.097.043.567.067 1.133.141 1.696.074.578.09 1.16.14 1.738.032.351 0 .707.063 1.047.086.453-.004.91.067 1.351.093.59-.004 1.176.066 1.758.11.914-.008 1.828.07 2.73.114 1.274.02 2.544.059 3.813a.85.85 0 0 1-.004.2c-.004.03-.047.054-.07.077-.02-.03-.055-.058-.059-.093-.02-.235-.043-.469-.043-.703 0-.239.067-.485.035-.72-.12-.91.012-1.827-.074-2.733-.058-.633.016-1.266-.066-1.891-.075-.567.004-1.129-.067-1.688-.05-.398-.004-.797-.066-1.183-.055-.332-.008-.664-.067-.985-.07-.382-.019-.77-.062-1.152-.05-.484-.113-.969-.133-1.457-.02-.441-.082-.883-.129-1.324a6.57 6.57 0 0 0-.07-.473c-.008-.043-.031-.082-.047-.12-.031.046-.086.093-.082.132.04.363-.09.707-.148 1.055-.106.628-.067 1.261-.043 1.89.015.395.023.79.058 1.184.055.574.102 1.148.137 1.726.031.504.133 1 .191 1.5.024.203.02.407.059.614.082.386.09.793.148 1.183.055.36.141.711.196 1.063.02.11.008.226 0 .336 0 .043-.028.086-.043.125-.031-.047-.082-.086-.086-.133-.028-.485-.195-.942-.215-1.43-.016-.332-.133-.66-.191-.992-.036-.211-.051-.43-.067-.645-.027-.273-.047-.543-.07-.812-.047-.488-.063-.98-.14-1.461a8.656 8.656 0 0 1-.122-1.797c.004-.129-.101-.254-.012-.383.008-.007-.023-.047-.039-.074-.03.02-.074.035-.09.063a.642.642 0 0 0-.066.207c-.031.21-.043.43-.074.644-.04.274-.098.543-.129.817-.023.195-.016.382-.059.582-.066.308-.03.632-.082.945-.07.406-.015.816-.07 1.219-.117.879.012 1.757-.07 2.632-.078.844-.032 1.688-.059 2.528 0 .043-.043.082-.062.125a3.33 3.33 0 0 0-.07-.121c-.075-.149-.005-.297-.005-.45.008-.648.055-1.304-.007-1.949-.114-1.18-.051-2.363-.036-3.539.004-.445-.011-.91.11-1.36.062-.237.027-.5.078-.741.082-.387.059-.786.191-1.168.067-.188.043-.407.075-.606.05-.324.113-.648.171-.972.036-.188.075-.375.098-.567.059-.55-.016-1.105-.004-1.66.016-.57.004-1.145.004-1.719 0-.707-.004-1.414 0-2.12 0-.442-.086-.872-.195-1.302-.074-.285-.09-.586-.149-.879-.093-.488-.21-.968-.304-1.453-.028-.129-.016-.261-.032-.394 0-.024-.03-.047-.046-.07-.028.023-.075.046-.082.074-.051.398-.067.797-.145 1.191-.094.45-.082.914-.188 1.363-.05.23-.02.473-.062.715-.07.375-.031.77-.086 1.145-.066.465-.008.93-.078 1.387-.055.363-.008.726-.055 1.082-.09.64-.008 1.289-.082 1.921-.058.536-.035 1.059-.047 1.59-.035 1.45-.03 2.899-.082 4.348-.015.383-.09.77-.047 1.148.086.778.012 1.555.075 2.328.027.36.035.723.054 1.083.012.16.047.316.063.476.004.024-.024.066-.047.066-.024.008-.074-.011-.082-.03-.027-.075-.059-.157-.067-.24a9.023 9.023 0 0 1-.07-.644c-.027-.43-.027-.859-.07-1.285-.102-.941 0-1.894-.078-2.832-.063-.71-.09-1.422-.035-2.125.082-1.183-.024-2.367.066-3.543.047-.644-.012-1.289.066-1.922.051-.441 0-.882.063-1.316.058-.398.035-.793.058-1.188.036-.507.063-1.023.141-1.523.067-.418.067-.84.129-1.258.082-.558.184-1.113.27-1.672.035-.234.043-.476.07-.714.015-.137.012-.286.074-.407.086-.176.031-.32-.004-.484-.14-.668-.281-1.34-.465-1.996-.125-.457-.18-.934-.28-1.399-.114-.515-.247-1.02-.368-1.53-.04-.153-.07-.31-.102-.462-.023-.125-.117-.18-.214-.14-.512.183-1.004.058-1.399-.223-.445-.317-.941-.492-1.422-.727-.414-.199-.828-.379-1.285-.476-.27-.059-.512-.223-.77-.324-.46-.188-.925-.36-1.39-.543-.125-.051-.254-.098-.375-.16-.7-.368-1.45-.614-2.184-.899-.039-.016-.086-.016-.129-.016-.07 0-.12 0-.125-.101-.004-.14.09-.106.16-.102.227.016.465.008.676.074.262.086.528.07.79.114.374.062.769.035 1.144.086.355.043.71.117 1.055.218.652.192 1.312.356 1.968.528.567.144 1.075.449 1.563.773a9.755 9.755 0 0 1 1.7 1.43c.022.023.062.031.093.047.004-.031.015-.063.012-.094-.18-.664-.348-1.336-.543-1.996a35.89 35.89 0 0 0-.54-1.664c-.253-.723-.542-1.434-.785-2.164-.234-.715-.574-1.38-.859-2.07-.316-.754-.613-1.516-.934-2.27-.125-.297-.296-.574-.43-.875a.452.452 0 0 1 .157.125c.187.25.348.52.555.742.183.195.418.344.629.504.023.02.074 0 .113 0-.008-.039-.008-.086-.031-.113a88.62 88.62 0 0 0-1.141-1.278c-.043-.046-.09-.109-.149-.129-.093-.027-.183-.011-.152.13-.035-.02-.07-.044-.105-.063-.012.039-.035.086-.028.121.075.25.16.496.227.746.05.2.074.399.11.598.015.074.038.148.038.219-.007.21-.02.421-.043.628-.004.016-.144.047-.171.02-.09-.102-.254-.156-.231-.34.004-.012-.047-.047-.07-.043-.024.004-.047.035-.059.059a.067.067 0 0 0 0 .066c.156.332-.031.664-.008 1 .008.113-.066.234-.105.352-.082-.086-.195-.16-.25-.266a3.025 3.025 0 0 1-.313-1.18c-.004-.047.008-.093-.004-.136-.027-.102-.062-.2-.093-.297-.012.09-.032.183-.035.273-.004.223.015.45-.004.672-.028.285-.086.57-.133.856-.012.058-.028.132-.07.168-.06.054-.141.082-.22.109-.132.043-.14-.106-.156-.152a1.867 1.867 0 0 1-.085-.504c-.012-.38-.004-.762-.008-1.145 0-.27.043-.531.133-.785.015-.05.003-.113.003-.168 0-.02-.011-.04-.02-.059-.019.02-.038.036-.046.055-.07.176-.156.344-.2.524a1.37 1.37 0 0 1-.269.53c-.14.177-.265.212-.441.083-.078-.055-.094-.078-.102.039-.035.539-.218 1.047-.406 1.547-.129.347-.309.68-.469 1.015a.496.496 0 0 1-.125.184c-.113.102-.277.043-.273-.113.004-.239-.016-.47.05-.715.118-.438.344-.828.442-1.266.043-.195.117-.379.172-.57.012-.027-.008-.063-.008-.094-.023.012-.055.012-.07.028-.082.101-.195.19-.235.308-.16.441-.406.816-.742 1.137-.031.035-.058.086-.093.09-.098.02-.196.02-.293.027-.008-.082-.043-.18-.016-.246.121-.277.187-.582.398-.816.055-.06.121-.149.114-.215-.043-.391.234-.606.433-.871.078-.106.125-.239.176-.36.012-.031-.02-.078-.035-.117-.035.016-.094.023-.11.05-.085.145-.156.298-.242.442-.36.586-.785 1.121-1.238 1.64-.309.352-.613.712-.93 1.06-.109.117-.242.222-.379.304-.078.043-.195.043-.293.035-.05-.004-.132-.297-.109-.363.156-.402.324-.797.645-1.113.39-.387.777-.77 1.16-1.16.05-.051.082-.125.137-.204.027-.039.039-.058.066-.086.027-.02.039-.042.066-.062a.11.11 0 0 0 .02-.066.205.205 0 0 1-.055.066c-.031.02-.039.043-.066.062-.028.024-.035.067-.047.09m-2.727.676c-.054.043-.113.09-.203.133 0 .023 0 .043-.004.066.016-.023.028-.043.07-.066.06-.043.114-.09.204-.133.035-.02.066-.047.133-.066.101-.02.195-.043.234-.157.004-.003-.008-.02-.012-.027-.086.05-.168.102-.254.152-.004.004 0 .02-.035.032-.031.02-.066.043-.133.066m9.356-10.098c-.055.079-.113.153-.164.227 0 .004.023.023.039.035.058-.082.187-.125.195-.262.004-.02.004-.043.004-.062a.137.137 0 0 1-.074.062m-1.852 5.825c.024 0 .043 0 .063.004a.162.162 0 0 1-.063-.07c-.09-.095-.18-.192-.281-.278-.094-.09-.129.027-.176.066-.008.008.028.094.055.106.133.054.246.168.402.172m-6.36 3.664c.013 0 .024.008.036 0 .598-.317 1.133-.727 1.68-1.117.082-.055.097-.2.136-.31.008-.034-.02-.077-.03-.116-.024.023-.048.043-.071.066a7.383 7.383 0 0 1-1.242 1.047c-.188.129-.36.29-.575.434-.03.023-.066.047-.097.078-.008 0 .015.031.023.05.028-.027.059-.05.086-.074.012-.015.016-.039.055-.058m6.226-7.032c.04-.058.067-.132.122-.183.109-.102.246-.176.343-.285.395-.45.778-.907 1.164-1.364.028-.03.024-.09.035-.136-.054.02-.144.031-.156.066-.078.2-.242.293-.406.39-.04.024-.063.067-.09.098-.238.282-.473.567-.71.844a.817.817 0 0 1-.25.2c-.247.113-.263.199-.052.44.07-.003.141-.003.207-.007.082 0 .172-.023.25-.008.27.067.266.067.422-.148.176-.242.336-.504.547-.715.508-.504.883-1.102 1.29-1.688.55-.793.948-1.672 1.421-2.507.274-.493.246-1.02.238-1.551 0-.043-.058-.086-.09-.133-.03.027-.062.05-.093.074-.219.168-.281.434-.34.668a12.164 12.164 0 0 1-.691 1.903c-.157.34-.368.652-.567.976-.183.305-.348.633-.578.902-.352.407-.617.88-.98 1.282-.313.351-.614.695-1.036.882m8.012-17.566c-.098-.164-.07-.316.05-.457.024-.027.06-.047.071-.07.012-.024.004-.059.004-.09-.023.008-.05.02-.074.023-.18.035-.156.227-.246.332-.047.059-.137.227.09.23.035 0 .074.044.109.098.031.079.102.16.098.235-.028.254-.297.453-.524.406-.226-.05-.347-.262-.3-.52.007-.03.015-.078.007-.081-.175-.067-.449.035-.558.207-.258.398-.493.812-.774 1.191-.41.555-.648 1.16-.636 1.855.007.497.199.91.562 1.243.133.12.273.203.492.093.16-.082.324-.148.453-.277.453-.46.903-.922 1.457-1.266.13-.082.286-.234.301-.375.043-.351.106-.71-.066-1.058-.094-.195-.164-.403-.235-.606-.074-.195.024-.422-.136-.597-.008-.008.007-.04.011-.055.067-.215.524-.422.625-.262.125.211.207.067.305.035.137-.043.262-.14.422-.062.09-.129.176-.258.266-.387.023-.035.066-.058.097-.086.028-.015.059-.023.09-.031-.031-.012-.059-.039-.086-.031-.16.023-.32-.09-.305-.184.047-.254-.171-.422-.152-.652.012-.172-.117-.184-.25-.176-.027.004-.055.023-.082.04.02.03.031.073.059.093.187.152.195.242.035.41-.117.125-.238.238-.426.273-.055.008-.14.122-.133.18.028.192-.105.278-.21.387-.137.125-.278.035-.41-.008m6.327 22.95c.063-.15.133-.302.203-.454.016-.043.043-.078.067-.117.023.05.047.102.062.156a.134.134 0 0 1-.015.094c-.125.324-.27.637-.496.902-.196.23-.36.493-.579.7-.246.238-.304.582-.52.832-.112.136-.077.304-.046.464l.246 1.313c.008.035.027.07.04.11.03-.036.093-.071.089-.098-.047-.223.106-.368.215-.516.137-.188.316-.344.48-.508.016-.015.059-.008.09-.015.004.039.016.082.004.117-.008.027-.05.043-.07.07-.227.356-.543.649-.676 1.07-.078.254-.152.508-.098.758.055.25.07.473 0 .727-.066.246.047.523-.07.777-.008.016.05.066.082.098.016-.016.043-.031.047-.051.101-.336.262-.652.394-.977.29-.71.633-1.398.918-2.113.168-.422.383-.828.567-1.246.312-.71.62-1.426.926-2.14.148-.344.28-.692.425-1.036.215-.508.344-1.043.594-1.535.043-.086.04-.2.059-.297-.063.078-.137.149-.18.238-.172.352-.426.653-.824.676-.61.043-1.235.082-1.781-.316-.372-.27-.649-.586-.622-1.055.02-.277.106-.562.223-.816a1.99 1.99 0 0 0 .18-.735c.023-.308-.164-.472-.34-.671-.129-.153-.23-.329-.207-.551.027-.227.043-.453.07-.68.051-.445-.078-.848-.304-1.223-.051-.082-.094-.171-.141-.257-.055.101-.121.199-.16.304a24.733 24.733 0 0 1-.942 2.371c-.117.243-.234.485-.336.735a60.283 60.283 0 0 0-.656 1.648 96.447 96.447 0 0 0-.691 1.867c-.145.399-.285.801-.43 1.2-.258.71-.539 1.418-.777 2.136-.27.809-.496 1.633-.75 2.45-.145.472-.324.933-.266 1.437.04.344.094.684.133 1.023.05.442.09.883.137 1.325.047.418.11.836.129 1.257.023.477.07.95.136 1.426.063.418.094.836.137 1.258.047.406.113.813.133 1.223.02.476.086.949.129 1.426.054.535.054 1.082.074 1.62.004.055-.008.114.004.169.004.035.039.062.058.093.024-.023.063-.047.07-.082.095-.285.169-.578.278-.863.313-.812.559-1.648.856-2.469.41-1.12.8-2.25 1.28-3.343.333-.758.622-1.536.962-2.293.11-.23.097-.457.133-.684.074-.465.14-.926.128-1.395-.007-.293-.046-.585-.062-.878-.027-.364-.047-.723-.07-1.083-.004-.023.004-.046 0-.066-.168-.418-.207-.855-.2-1.297 0-.191.02-.379-.18-.504-.09-.058-.152-.156-.238-.23a1.632 1.632 0 0 1-.593-1.266c-.016-.484.086-.984-.2-1.433-.019-.036.02-.102.032-.153.035.028.078.051.101.086.18.29.235.598.211.938-.02.222.063.457.051.68-.008.226.024.449.152.613.172.23.403.418.606.617 0 0 .058-.035.058-.055 0-.367.004-.738 0-1.11 0-.093-.02-.19-.035-.288-.054-.278-.12-.555-.164-.84-.062-.426-.12-.856-.332-1.242-.008-.02-.152-.086-.015-.13.035-.015.113.032.14.071a.94.94 0 0 1 .137.281c.098.364.184.73.27 1.098.05.227.113.453.128.684.04.46.051.925.075 1.386 0 .078-.004.157 0 .235.003.023.027.05.043.074.03-.02.07-.035.086-.066.062-.106.093-.235.171-.333.344-.425.696-.84 1.047-1.324m-6.328-2.554c.02.293.063.586.063.882.007 1.29-.004 2.579.004 3.868.003.53.043 1.062.066 1.59.004.027.02.058.031.085a.566.566 0 0 0 .07-.066.247.247 0 0 0 .032-.09c.047-.285.078-.57.136-.851.079-.372.172-.739.262-1.106.113-.469.23-.934.34-1.406.145-.613.262-1.235.426-1.844.191-.71.43-1.414.633-2.125.132-.473.234-.957.359-1.434.105-.406.23-.804.332-1.207.277-1.097.79-2.097 1.219-3.132.207-.508.465-.996.656-1.512.09-.25.254-.524.086-.816-.02-.036-.016-.098 0-.133.11-.254.062-.535.191-.797.192-.39.332-.809.782-.969.12-.047.132-.133.164-.207.082-.187.136-.39.21-.586.13-.336.247-.687.41-1.004.083-.16.024-.191-.081-.238a1.022 1.022 0 0 1-.528-.496c-.156-.324-.058-.676-.07-1.012-.004-.098.14-.125.223-.043.254.238.5.485.648.809.035.074.106.133.16.203.024-.067.04-.137.075-.195.109-.204.218-.407.332-.602.058-.098.062-.148-.063-.14-.324.023-.492-.18-.625-.422-.066-.118-.101-.254-.172-.368-.113-.187-.125-.39-.11-.593.009-.13.114-.207.184-.141.211.2.418.402.618.613.113.117.207.25.308.38.059.07.13.105.184.007.113-.211.215-.426.312-.645.012-.023-.043-.101-.07-.105-.379-.027-.703-.203-1.035-.348-.207-.093-.383-.27-.578-.394-.563-.36-1.11-.746-1.575-1.223-.449-.465-1.039-.703-1.55-1.062-.016-.012-.07 0-.086.023-.016.02-.016.074 0 .086.101.078.203.16.312.227.516.308.88.75 1.153 1.273.136.27.257.547.379.82.226.532.234 1.106.136 1.645-.097.539-.457.965-1.011 1.18-.274.105-.52.093-.711-.102-.23-.238-.461-.477-.668-.738-.555-.715-1.063-1.457-1.442-2.293-.062-.137-.117-.29-.203-.418-.05-.078-.113-.13-.21-.028-.145.145-.31.278-.466.414a.13.13 0 0 0-.043.075c-.027.203-.07.406-.066.609.008.606.055 1.215.059 1.82 0 .418-.051.836-.063 1.25-.047 1.91.07 3.82-.062 5.73-.063.884-.063 1.774-.075 2.661 0 1.523.008 3.047.008 4.64m-6.465 3.16c.047.075.086.15.145.212.12.132.262.246.375.382.047.06.09.176.062.223-.03.055-.148.098-.218.086a1.212 1.212 0 0 1-.344-.144c-.067-.04-.11-.114-.168-.165-.02-.015-.059-.011-.09-.015-.004.035-.023.082-.012.113.196.445.395.89.59 1.34.277.637.578 1.262.832 1.91.324.817.617 1.649.914 2.48.211.606.414 1.215.602 1.837.152.496.273 1.007.41 1.511.09.332.184.664.266 1 .101.407.183.817.285 1.227.125.531.27 1.058.386 1.59.125.554.227 1.117.34 1.675.028.145.051.293.086.438.008.031.059.055.09.082.008-.02.024-.04.027-.059.043-.27.094-.543.133-.816.031-.191.043-.383.082-.574.059-.301.137-.598.188-.895.058-.34.082-.683.14-1.02.106-.616.227-1.23.332-1.847.075-.441.157-.887.196-1.328.02-.2.011-.406-.035-.617-.067-.301-.145-.594-.223-.887-.121-.445-.223-.894-.344-1.34a46.35 46.35 0 0 0-.336-1.207c-.152-.562-.316-1.125-.469-1.687a19.813 19.813 0 0 0-.53-1.696c-.173-.457-.274-.941-.41-1.41-.153-.508-.317-1.012-.47-1.523-.047-.156-.125-.223-.289-.254-.367-.074-.754-.082-1.101-.262-.059-.031-.145-.074-.2-.055a2.397 2.397 0 0 1-.894.122c-.016 0-.031.039-.043.062.129.09.254.246.394.258.329.027.668-.012 1-.035.282-.016.567-.075.836.054.09.047.149.133.028.235-.301.254-.633.426-1.031.433-.04 0-.075.028-.11.043l.067.09c.05.063.117.113.148.188.023.066.04.18 0 .218-.035.043-.148.04-.219.024a1.032 1.032 0 0 1-.535-.332.725.725 0 0 0-.512-.242c-.25-.012-.5-.082-.75-.125-.066-.008-.132.007-.199.007.031.051.059.098.098.145.144.176.297.348.48.55m25.715-4.644c-.047-.18-.082-.367-.137-.547-.113-.379-.046-.765-.066-1.148-.008-.098-.016-.2-.04-.29-.089-.35-.288-.636-.546-.882-.27-.258-.504-.527-.629-.887a.682.682 0 0 0-.105-.187c-.067-.078-.13-.172-.211-.207-.485-.211-.965-.387-1.524-.274-.289.063-.582.106-.863.196-.602.195-1.117.562-1.664.859-.129.07-.227.207-.344.305-.328.265-.722.41-1.097.597-.211.102-.395.227-.395.508 0 .07-.066.16-.129.207-.215.156-.441.29-.656.442-.078.058-.176.12-.117.27.039.093.062.23.027.316a.602.602 0 0 1-.258.273c-.043.023-.18-.059-.23-.129-.043-.055-.028-.16-.024-.242 0-.07.02-.137.032-.207-.063.031-.125.058-.184.09-.012.008-.02.023-.027.023-.223.043-.172.125-.047.242.082.07.129.176.21.246.16.141.337.258.493.399.098.082.195.086.3.043.012-.008.02-.043.012-.063-.043-.113-.14-.109-.242-.125-.074-.015-.137-.093-.207-.14.043-.055.082-.114.125-.168a2.21 2.21 0 0 1 .168-.164c.07-.067.07-.13.04-.22-.036-.108-.173-.214-.02-.343.14-.113.422-.152.566-.035.106.082.106.063.113-.05.008-.079-.082-.212.098-.223.105-.012.21-.067.309-.059.093.008.148.098.125.195-.036.14-.145.29-.262.254-.152-.043-.223.035-.324.086a.168.168 0 0 0-.059.059c.031.02.078.062.09.05.16-.113.21.02.289.114.05.066.117.125.187.176.149.109.192.218.114.34-.117.18-.227.21-.395.066-.11-.09-.101-.035-.129.047-.011.035-.066.058-.09.097-.066.11-.035.172.09.196.094.015.196.03.266.082.113.09.144-.047.137-.063-.168-.246.125-.195.191-.277.027-.035.195 0 .254.055.098.09.055.218-.027.316-.106.129-.114.289-.18.434-.063.14.008.195.125.226.082.02.172.027.254.027.82.004 1.637.004 2.453 0 .906 0 1.809.04 2.703-.132a4.482 4.482 0 0 0 1.246-.407c.133-.058.238-.132.211-.367m-15.953-12.652c.207.187.426.308.672.066.16-.156.34-.3.469-.476.336-.457.226-.957.093-1.446-.066-.238-.18-.464-.285-.691-.105-.234-.195-.496-.36-.688a10.293 10.293 0 0 0-1.112-1.109c-.239-.203-.461-.437-.778-.55-.18-.067-.304-.282-.453-.43-.031-.032-.031-.09-.047-.141.051-.008.106-.023.156-.016.047.008.094.043.137.067.121.066.235.144.36.195.086.031.195.016.28.047.34.125.68.25 1.009.402.312.149.629.297.902.504.527.395 1.012.852 1.539 1.25.54.41 1.102.801 1.785.961.164.04.34.067.508.067.195-.004.398-.184.375-.329-.059-.316-.176-.617-.453-.808-.145-.098-.317-.152-.477-.23-.183-.094-.386-.169-.55-.29-.61-.43-1.254-.793-1.93-1.113-.14-.066-.297-.121-.41-.219-.172-.144-.368-.195-.578-.242-.297-.062-.598-.117-.891-.203-.45-.129-.887-.297-1.367-.266-.211.012-.438-.046-.543.23-.035.102-.153.141-.25.102-.059-.023-.098-.109-.145-.168.043.004.094.02.137.016.047-.004.113 0 .137-.027a.92.92 0 0 0 .12-.219c.024-.059.028-.129.044-.195-.07.02-.149.027-.207.062-.18.106-.36.211-.535.332-.215.145-.235.164-.102.36.336.507.46 1.054.406 1.656a.585.585 0 0 0 .11.351c.312.5.636.996.964 1.485.38.578.762 1.156 1.27 1.703m17.027 17.973c.07-.075.16-.133.211-.22.09-.14.211-.273.192-.456-.012-.102-.063-.203-.063-.309-.004-.305-.082-.574-.336-.77-.527-.402-1.078-.757-1.71-.98a2.881 2.881 0 0 0-.856-.137c-.582-.007-1.168.055-1.754-.054-.438-.082-.867-.153-1.3-.258a4.317 4.317 0 0 1-1.708-.84c-.058-.047-.164-.039-.246-.05-.031-.005-.062.011-.09.019.02.023.031.05.051.074.238.262.484.512.71.781.118.14.231.305.302.477.156.379.05.766-.04 1.137-.03.117-.007.175.063.257.328.383.719.618 1.25.551.223-.031.426.035.625.113.559.211 1.11.438 1.711.497.152.015.313.062.45.136.359.196.675.457.902.809.16.25.23.25.46.062.141-.113.286-.234.446-.308.27-.113.508-.274.73-.531m-9.422-24.57c-.234-.188-.453-.407-.707-.563a4.262 4.262 0 0 0-2.066-.606c-.691-.023-1.39.063-2.09.047-.515-.012-.988.14-1.453.313-.64.234-1.262.527-1.887.8-.086.036-.16.102-.234.164-.078.07-.078.11.043.149.473.156.969.242 1.426.46.293.141.62.173.949.231.555.094 1.078.336 1.648.39.391.036.774.169 1.16.188.985.047 1.977.059 2.961.07.31.005.594-.109.872-.241.125-.059.132-.106.093-.215-.093-.242-.148-.504-.273-.727-.09-.164-.27-.285-.442-.46m-1.414 17.163c.047-.093.118-.183.13-.281.019-.144.132-.117.202-.125.102-.012.211.027.317.035.2.012.285.121.226.305a.508.508 0 0 1-.093.16c-.09.09-.016.14.047.18.007.008.105-.063.113-.102a.779.779 0 0 1 .312-.543c.04-.031.114-.047.157-.031.07.023.16.031.148.172-.02.215-.133.36-.379.402-.031.004-.055.031-.082.05.035.028.066.08.102.08.046 0 .093-.06.14-.06.098 0 .215-.105.297.043.012.02.059.016.09.02.004-.04.023-.102.008-.113-.082-.063-.008-.09.023-.121.09-.094.211-.172.274-.286.156-.261.386-.394.668-.496.207-.07.484-.132.402-.472-.004-.016.027-.035.027-.055.008-.309.024-.617.024-.922 0-.16-.051-.32-.047-.48 0-.184.039-.364.062-.543.012-.075.028-.149.04-.223.03-.219.093-.445.085-.668-.007-.203-.086-.41-.129-.617-.132-.664-.437-1.238-.94-1.692a1.669 1.669 0 0 0-1.192-.449c-.16 0-.258.082-.286.211a4.4 4.4 0 0 0-.066.676c-.012.336-.004.676-.004 1.012 0 .074.012.156-.012.23-.273.906-.53 1.817-.832 2.715-.218.64-.207 1.262-.023 1.895.012.054.102.085.191.093m-22.011 4.11c.129.203.312.312.465.277.402-.102.433-.09.687.27.203.28.488.273.668-.024.008-.016.004-.043.012-.062.187-.395.554-.454.918-.27.343.172.629.09.804-.246.082-.156.172-.27.364-.328.148-.043.336-.184.375-.32.097-.329.297-.5.59-.618.105-.043.226-.12.277-.214.152-.27.265-.567.219-.88a.917.917 0 0 0-.434-.656c-.082-.054-.133-.066-.23-.03-.286.097-.524-.06-.536-.352-.004-.168-.039-.34.047-.52.063-.121-.015-.25-.164-.316-.207-.094-.27-.094-.48.18-.133.167-.242.23-.45.124-.05-.027-.171-.14-.269-.023l-.602.07h-.199c-.445 0-.437.004-.644.367-.09.157-.176.364-.317.426-.191.082-.402.106-.5.324-.246.012-.203.196-.191.344.015.18-.05.29-.223.34-.066.023-.133.059-.199.082-.313.113-.422.316-.25.66.066.133.16.25.25.367.129.172.21.336.094.555-.067.113-.059.27-.082.473m1.18-18.344c.285.18.6.183.906.098.629-.18 1.25-.395 1.875-.586.359-.114.718-.215 1.078-.32.508-.157 1.015-.31 1.52-.47.406-.128.8-.3 1.214-.398.45-.11.875-.258 1.3-.43.458-.18.919-.335 1.395-.453.172-.043.348-.078.516-.14.055-.02.086-.106.129-.164-.05-.008-.106-.024-.156-.036-.137-.02-.293 0-.407-.066-.316-.191-.687-.227-1.02-.387-.17-.086-.401-.074-.6-.078-.247-.004-.5.028-.747.047-.55.047-1.09.133-1.633.215-.484.074-.976.105-1.46.195-.48.086-.938.23-1.368.442-.613.304-1.21.648-1.804.996-.254.148-.528.293-.664.586-.07.148-.16.293-.235.441-.125.238-.113.293.16.508m20.094 11.14c-.015-.5-.176-.949-.473-1.355-.37-.5-.355-1.004.016-1.422.106-.12.305-.25.297-.367-.008-.129-.195-.254-.32-.363-.293-.258-.575-.535-.899-.754a.888.888 0 0 0-.82-.09c-.383.144-.813.18-1.098.516a2.422 2.422 0 0 0-.285.488c-.164.336-.285.715-.168 1.058.25.715.54 1.418 1.121 1.961.383.352.77.72 1.067 1.141.48.691 1.023 1.316 1.605 1.922.024.023.043.055.07.07.043.016.094.024.141.035-.008-.035-.004-.078-.016-.113a1.3 1.3 0 0 1-.105-.598c.012-.289.055-.593-.012-.87a5.114 5.114 0 0 1-.12-1.258m-1.919 6.832c.375.128.758.16 1.152.136.32-.027.594-.117.774-.425.098-.172.27-.297.398-.454.04-.047.082-.144.059-.187-.125-.274-.152-.567-.211-.856-.082-.382-.082-.714.168-1.03.016-.02.016-.071 0-.095-.29-.402-.57-.8-1-1.093-.355-.243-.645-.586-.926-.914a2.628 2.628 0 0 1-.437-.723c-.164-.387-.524-.5-.84-.664-.082-.047-.266-.024-.328.043-.098.097-.082.242.015.383.121.164.22.355.286.55.109.297.175.618.105.922-.11.47-.098.895.262 1.258.039.035.058.086.09.133.226.34.148.695.043 1.047-.07.238-.157.472-.247.703-.113.27-.082.504.059.766.125.238.34.332.578.5m-7.71 23.12c.007.473-.016.95.066 1.419.078.43.113.867.214 1.293.055.207.036.41.063.613 0 .023.047.047.07.074.02-.02.051-.039.059-.062.066-.395.133-.797.203-1.196.05-.277.117-.554.176-.832.05-.238.129-.469.156-.71.07-.567.258-1.102.387-1.657.082-.36.27-.695.222-1.082-.015-.102-.05-.203-.066-.309-.047-.37-.09-.746-.133-1.12-.023-.204-.047-.407-.074-.606-.04-.254-.09-.504-.129-.754-.031-.215-.016-.438-.074-.64-.106-.395-.117-.801-.192-1.2-.062-.336-.066-.683-.14-1.016-.149-.632-.285-1.265-.336-1.914 0-.03-.04-.058-.059-.09-.023.024-.066.051-.07.079-.047.476-.106.949-.133 1.425-.023.383-.023.766-.062 1.149-.067.738 0 1.48-.059 2.226-.074.938-.016 1.883-.078 2.829-.043.668-.012 1.34-.012 2.082m5.656-46.446c-.222.09-.44.168-.664.262-.355.148-.707.297-1.058.453-.254.113-.516.223-.758.36-.16.09-.36.183-.281.445.011.035-.004.09-.028.121-.101.137-.015.156.09.14.145-.019.219.087.258.172.024.055-.066.16-.098.25-.023.079-.21.016-.14.157.012.02.144-.016.219-.035.14-.043.28-.082.41-.145.629-.32 1.25-.64 1.91-.91a5.325 5.325 0 0 1 1.7-.356c.593-.035 1.19-.046 1.784-.066.035 0 .074.008.098-.004.367-.176.734-.344 1.09-.535.222-.121.437-.266.629-.43.23-.191.441-.41.527-.722.055-.2-.066-.438-.262-.465a3.586 3.586 0 0 0-.574-.063c-.203 0-.414.02-.61.063-.644.148-1.292.285-1.921.476-.77.239-1.524.528-2.32.832m-1.583 18.813c-.07.226-.148.453-.214.687-.145.524-.282 1.047-.426 1.57-.156.563-.313 1.126-.473 1.688-.11.39-.226.781-.332 1.176-.156.586-.308 1.176-.457 1.762-.098.394-.187.793-.289 1.191-.105.438-.227.875-.328 1.313-.09.39-.16.785-.238 1.18-.008.034.03.077.046.12.016-.027.04-.05.047-.082.051-.16.102-.32.137-.484.086-.406.258-.79.352-1.2.074-.34.27-.652.386-.98.278-.773.512-1.558.82-2.32.356-.875.68-1.758 1.048-2.625.304-.715.632-1.422.937-2.137.149-.34.281-.691.43-1.035.234-.531.367-1.101.664-1.61.156-.269.258-.566.383-.85.007-.02-.004-.052-.02-.071a1.876 1.876 0 0 0-.117-.188 3.739 3.739 0 0 1-.578-1.07c-.016-.05-.051-.094-.074-.145-.043.047-.11.09-.122.141-.097.508-.34.961-.53 1.43-.247.605-.528 1.195-.782 1.797-.094.23-.156.472-.27.742m-2.05-20.969c.043-.27.113-.543.129-.816.02-.383.003-.766.003-1.145 0-.55-.246-.96-.722-1.234a.833.833 0 0 0-.985.12c-.476.462-.668 1.044-.718 1.688-.055.762.05 1.516.136 2.27.024.176.082.344.122.52.085.44.289.859.214 1.324-.015.097-.015.18.141.105.172-.078.316.035.332.223.012.144-.035.261-.117.39-.055.09.164.223.125.407-.055.238.086.363.305.273.12-.05.375-.004.308-.289-.008-.035.082-.098.133-.14.094-.083.09-.102-.024-.157-.12-.058-.152-.047-.19.074-.024.067-.04.141-.071.207-.035.082-.262.121-.305.043-.047-.101-.066-.214-.094-.328-.004-.02.032-.058.055-.062.023-.004.063.02.07.039.016.027-.004.07.008.097.012.047.04.086.059.13.027-.04.062-.075.082-.114.097-.2.097-.207-.121-.226-.032-.004-.086-.043-.082-.063.007-.18-.04-.367.058-.547.145-.262.25-.543.39-.812a9.89 9.89 0 0 0 .759-1.977m-6.668 10.031c.215-.37.41-.757.652-1.109.262-.379.477-.793.824-1.11.2-.183.36-.413.547-.609.344-.355.695-.699 1.047-1.043.207-.195.426-.379.637-.57.105-.098.207-.203.304-.309.02-.02.02-.058.032-.086-.036-.011-.078-.039-.11-.03-.351.124-.703.245-1.05.382a33.67 33.67 0 0 1-2.653.906c-.207.063-.426.164-.574.313-.227.226-.399.504-.594.758-.222.285-.328.628-.476.945-.207.441-.32.89-.344 1.379-.02.394.187.64.46.816.419.27.661.188.907-.105.129-.157.238-.328.39-.528m15.786 15.18c-.027.008-.086.012-.086.023-.043.485-.063.954.351 1.329.176.164.313.379.438.59.258.437.484.902.75 1.335.187.309.39.614.75.766.23.098.254.086.324-.148.074-.243.04-.504.195-.73.133-.196.243-.411.336-.63.157-.36.153-.742.137-1.12a.258.258 0 0 0-.05-.145c-.364-.477-.7-.973-1.223-1.309-.184-.121-.258-.09-.38.043-.1.113-.218.215-.386.2a7.113 7.113 0 0 1-.637-.087c-.148-.031-.3-.078-.52-.117m-8.007-23.96c-.227.179-.473.343-.676.55-.27.273-.5.574-.742.867-.09.113.024.172.09.191.172.043.16.168.144.286-.007.082-.046.16-.074.238-.008.027-.027.047-.039.07a.333.333 0 0 0 .09.016c.09-.016.223-.082.262-.043.133.121.242.027.324-.024.398-.27.816-.5 1.258-.703.433-.199.86-.41 1.289-.617.14-.07.305-.117.414-.223.293-.285.566-.585.832-.894a.482.482 0 0 0 .074-.492c-.062-.137-.234-.164-.394-.172a3.252 3.252 0 0 0-1.16.2c-.575.198-1.13.421-1.692.75m-1.785 36.515c-.02-.172-.05-.34-.067-.512a88.478 88.478 0 0 1-.066-1.047c-.004-.035.004-.07 0-.101-.047-.286-.098-.567-.133-.852-.031-.27-.047-.543-.07-.813-.004-.023-.027-.046-.04-.07a.209.209 0 0 0-.05.051c-.016.035-.039.074-.043.113-.07.477-.137.953-.203 1.43l-.07.547c-.043.328-.09.656-.133.984-.059.45.082.883.137 1.32.03.262.093.52.144.778.086.45.176.894.254 1.34.055.328.086.66.14.988.06.352.145.703.2 1.059.055.39.09.793.137 1.187.02.168.039.34.066.512.066.387.133.773.203 1.156.016.082.063.156.09.23.016-.066.023-.132.043-.203.062-.234.176-.46.137-.718-.024-.137-.059-.27-.067-.41-.031-.504-.047-1.012-.074-1.516-.016-.383-.043-.77-.062-1.153 0-.019.003-.046 0-.066-.122-.305-.082-.637-.133-.953-.047-.309-.04-.629-.07-.945-.06-.508-.137-1.02-.2-1.528-.031-.246-.047-.496-.07-.808m8.918-24.54c-.336 0-.68.051-1.004-.007-.61-.106-.875 0-1.14.527-.063.13-.02.113.066.172.425.29.875.559 1.222.945.188.203.375.403.547.618.367.457.684.941.684 1.566 0 .027.039.059.066.082.02-.027.059-.059.063-.09.027-.328.047-.652.066-.98.024-.348.043-.7.07-1.047.02-.238.184-.371.438-.371.18 0 .36.004.539-.008.031 0 .094-.05.094-.082a.798.798 0 0 0-.035-.254 2.413 2.413 0 0 0-.442-.89c-.097-.122-.281-.173-.426-.25-.23.156-.492.03-.808.07m-13.527 25.918h.437c.043 0 .082-.016.121-.024-.023-.031-.047-.066-.07-.094-.606-.62-1.301-1.12-2.035-1.578a5.179 5.179 0 0 0-1.438-.593c-.547-.137-1.09-.293-1.633-.438-.62-.168-1.246-.305-1.89-.305-.239 0-.477-.043-.711-.058-.028-.004-.055.02-.086.031.031.012.058.023.09.031a5.91 5.91 0 0 1 1.007.407c.083.042.16.101.247.132.484.184.972.36 1.453.547.425.164.832.39 1.27.508.398.102.765.258 1.136.426.14.066.273.156.422.195.258.07.484.188.699.356.184.144.379.296.637.328.094.011.183.082.344.129m-7.036-20.16c-.015-.016-.043-.028-.043-.047-.148-.547-.277-1.098-.433-1.637-.258-.883-.528-1.758-.805-2.629-.11-.344-.262-.676-.398-1.012a.788.788 0 0 1-.028-.09c-.015.024-.035.051-.039.075-.023.25-.066.496-.062.746.004.316.035.633.062.949.016.18.024.367.07.539.079.262.122.52.137.79.008.175.055.355.098.53.094.395.191.793.305 1.188.12.43.242.86.453 1.254.199.379.394.758.594 1.136.12.227.242.461.363.688.012.023.05.031.078.039.004 0 .031-.04.027-.055-.086-.488-.183-.976-.176-1.472a.467.467 0 0 0-.015-.13c-.059-.265-.125-.53-.188-.863m-7.808.54c-.051-.036-.106-.067-.16-.102.02.047.035.098.062.14.055.079.102.165.168.231.598.582 1.2 1.16 1.805 1.738.113.11.234.227.375.305.488.285.93.645 1.46.867.43.18.848.375 1.305.508.375.113.758.168 1.133.262.11.027.2.07.305.035-.067-.07-.125-.152-.195-.211-.348-.29-.711-.563-1.055-.863-.442-.387-.953-.664-1.473-.91-.543-.258-1.117-.446-1.64-.747-.688-.406-1.422-.734-2.09-1.253m14-3.098c.074-.293.14-.59.215-.887a1.75 1.75 0 0 0-.012-.992c-.012-.035-.031-.063-.043-.098-.024.024-.055.043-.07.07-.032.055-.067.11-.09.169-.18.539-.344 1.086-.543 1.625-.278.757-.551 1.52-.883 2.257-.219.493-.527.95-.793 1.418-.262.461-.531.926-.785 1.391-.094.176-.211.355-.16.574.007.031.039.063.062.09.008.004.051-.027.07-.05.04-.048.07-.106.11-.157.285-.352.57-.703.855-1.059.141-.171.266-.359.407-.535.035-.047.113-.168.117.028 0 .03.035.062.058.093.024-.027.051-.05.075-.078.113-.164.195-.37.347-.488.387-.305.61-.727.86-1.125a5.63 5.63 0 0 0 .386-.746c.153-.352.286-.711.422-1.07.016-.032-.015-.079-.027-.122-.024.02-.055.04-.07.067-.16.27-.313.543-.477.808-.16.262-.328.516-.5.77-.117.18-.273.332-.375.52-.14.261-.238.55-.371.82-.055.113-.149.21-.23.308-.024.024-.063.028-.094.043.004-.027 0-.062.011-.09.286-.644.579-1.285.856-1.933.223-.527.426-1.059.672-1.621m15.55-8.277c-.316-.192-.617-.399-.94-.567-.47-.246-.954-.457-1.43-.68-.294-.132-.579-.28-.883-.382-.239-.082-.5-.09-.743-.157-.464-.125-.921-.265-1.378-.398-.04-.012-.086.008-.13.016.024.03.04.074.067.09.063.038.133.058.2.093.448.238.921.445 1.34.727.448.297.894.593 1.378.812.316.149.508.367.64.672.051.11.153.23.262.274.563.21 1.133.402 1.703.597.207.07.516-.176.442-.367-.102-.27-.168-.582-.527-.73m-19.79 13.527c.008.008.016.02.024.023.004.004.02 0 .023 0 .059-.18.137-.336.301-.445.063-.04.106-.137.121-.215.074-.469.278-.914.278-1.398 0-.168.007-.352.066-.508.133-.356.133-.73.187-1.098.063-.39.184-.777.157-1.187-.016-.246.093-.5.12-.75.036-.336.024-.68.079-1.012.027-.18-.078-.36 0-.512.086-.175.043-.343.059-.515 0-.028-.024-.055-.036-.078-.011.027-.02.054-.03.085-.138.403-.282.801-.403 1.211-.149.504-.266 1.012-.41 1.516-.102.367-.246.73-.329 1.106-.093.46-.128.93-.21 1.394-.075.438-.145.879-.13 1.324.012.34.048.672.079 1.008 0 0 .012.008.054.05m-10.3 8.079c-.02.023-.067.063-.059.07.066.133.16.243.332.23.317-.019.64-.007.942-.081.175-.04.355.004.507-.067.325-.144.668-.168 1.004-.254a9.446 9.446 0 0 0 1.672-.59 7.33 7.33 0 0 0 1.133-.671c.324-.227.66-.434.953-.696.445-.382.86-.8 1.285-1.207.031-.03.07-.054.094-.097.012-.02.008-.067-.008-.086-.015-.016-.074-.024-.09-.012-.074.066-.156.133-.21.215-.38.562-.923.93-1.493 1.254-.515.293-1.078.484-1.64.668-.86.277-1.723.539-2.614.672-.48.07-.945.18-1.406.336a.725.725 0 0 0-.402.316m4.207 1.582c.215-.156.433-.316.644-.473.29-.207.582-.398.852-.625.465-.398.914-.82 1.37-1.234.09-.082.169-.172.263-.254.144-.125.015-.18-.051-.262-.102-.117-.149-.004-.211.047-.078.059-.16.11-.234.164-.708.555-1.489.989-2.27 1.426-.344.195-.691.39-1.031.598-.196.125-.375.277-.57.41-.395.27-.641.644-.794 1.09-.011.039.004.105.036.133.027.03.097.046.129.03.32-.152.64-.304.945-.476.305-.168.597-.36.922-.574m8.246-15.922c-.149.399-.305.793-.45 1.192-.101.285-.206.566-.288.859-.067.242-.094.496-.165.734-.214.72-.367 1.446-.378 2.2a1.047 1.047 0 0 1-.051.312c-.035.106.133.211-.008.313-.016.011.02.097.031.144.031-.031.074-.059.09-.098.184-.359.379-.718.54-1.086.179-.394.339-.8.48-1.21.113-.336.18-.688.265-1.032.047-.183.11-.367.13-.55.038-.317.046-.633.07-.946.003-.039.027-.082.035-.12.054-.282.113-.56.168-.84.054-.278.109-.56.16-.84.008-.044.004-.09.008-.137-.032.03-.07.054-.094.093-.18.313-.36.63-.543 1.012m-7.91.778a6.96 6.96 0 0 0 .578 1.71c.152.297.347.579.539.856.285.418.582.836.887 1.246.18.242.378.469.566.707.133.172.254.348.383.516.172.21.344.418.52.625.023.027.062.039.093.058.008-.039.035-.082.024-.113-.032-.117-.083-.234-.122-.352a7.718 7.718 0 0 0-.714-1.62c-.282-.462-.614-.891-.922-1.337-.2-.289-.414-.566-.582-.87-.309-.567-.703-1.067-1.11-1.56-.074-.09-.14-.179-.215-.269.016.125.032.246.075.403m2.457 10.128c-.22.125-.426.262-.653.368-.418.191-.836.367-1.257.535-.395.156-.813.226-1.23.277-.27.031-.552.016-.813.074-.594.13-1.18.297-1.77.434-.332.07-.672.121-1.012.16-.261.027-.52.082-.757.2-.04.023-.075.054-.11.081.043.043.086.114.137.121.215.036.43.067.644.07a9.614 9.614 0 0 0 1.832-.124c.47-.075.93-.184 1.38-.332.343-.114.695-.223 1.038-.332a8.245 8.245 0 0 0 1.832-.856c.286-.18.559-.387.844-.562.059-.035.137-.035.09-.118-.023-.03-.105-.023-.195.004m-8.11-1.918c.192.137.371.293.578.399a7.43 7.43 0 0 0 1.02.453c.437.145.887.246 1.332.36.313.077.633.113.953.148.34.043.68.105 1.02.117.613.02 1.222 0 1.832-.117.32-.063.644-.113.957-.219.125-.043.23-.148.343-.226 0-.004-.03-.086-.066-.102-.031-.012-.078.016-.121.027-.496.13-.988.274-1.516.242-.672-.042-1.351.063-2.023-.066-.223-.043-.457-.023-.672-.078-.758-.195-1.484-.48-2.203-.781-.524-.22-1.043-.47-1.602-.594-.039-.008-.078-.008-.113-.016-.004.055-.031.125-.008.157.074.093.168.175.29.296m1.581 2.055c.254.031.512.067.766.098.05.008.105.008.16.02.356.062.707.152 1.067.175.488.04.972-.047 1.457-.113.425-.059.843-.117 1.261-.211.38-.082.758-.16 1.13-.274.097-.03.195-.07.292-.109.024-.012.035-.043.05-.066-.03-.012-.065-.032-.089-.024-.527.219-1.078.274-1.64.262-.45-.008-.899.043-1.352-.05-.348-.075-.719-.056-1.078-.083-.192-.016-.395-.016-.574-.07a2.893 2.893 0 0 0-.856-.13c-.066 0-.137.017-.2-.003a3.867 3.867 0 0 0-1.054-.133c-.168.004-.336-.004-.504.004-.175.004-.347.024-.52.035.09.192.294.215.45.29.375.183.766.347 1.234.382m4.782-7.406c-.008-.027-.008-.07-.028-.09-.36-.414-.73-.816-1.09-1.23-.132-.153-.246-.325-.363-.489-.195-.265-.39-.531-.59-.797-.035-.043-.093-.066-.14-.101.015.047.03.094.05.14.137.383.348.73.528 1.094.219.438.496.832.781 1.219.27.363.594.691.844 1.066.406.606.906 1.125 1.437 1.61.313.281.614.57.91.86.028.026.075.034.118.05.007-.04.03-.086.015-.113-.148-.32-.289-.645-.457-.953-.254-.47-.62-.86-.988-1.239-.152-.156-.34-.277-.492-.433-.18-.172-.336-.371-.535-.594m3.836 1.078c-.024-.863-.043-1.73-.07-2.594-.012-.328-.044-.656-.071-.98 0-.04-.035-.074-.047-.113a5.108 5.108 0 0 1-.219-.985c-.027-.226-.035-.457-.07-.68-.059-.367-.133-.73-.2-1.093-.003-.032 0-.07-.015-.098-.023-.031-.062-.055-.094-.082-.007.031-.027.063-.023.09.027.16-.066.332.066.484.02.024.02.106 0 .13-.125.112-.062.253-.058.378.008.363.047.723.058 1.082.012.27-.027.543.008.809.067.46.137.922.13 1.39 0 .035-.009.07 0 .102.085.312.132.629.132.953 0 .144-.043.309.012.434.074.183.039.367.058.546.02.192.047.383.067.579.023.238.007.484.078.707.05.152.023.3.062.445.016.059.106.133.172.144.14.028.086-.093.086-.16.008-.414.008-.828 0-1.242 0-.062-.039-.121-.062-.246m-5.555.91c.289.11.586.207.867.336.863.399 1.602.984 2.336 1.586.074.059.148.137.234.152.067.012.168-.039.22-.097.023-.028-.017-.16-.063-.192-.239-.18-.489-.336-.73-.511-.321-.23-.65-.454-.946-.711-.29-.25-.535-.547-.813-.801-.34-.309-.703-.563-1.148-.719a3.468 3.468 0 0 1-1.125-.61c-.344-.288-.715-.546-1.074-.812-.02-.011-.047-.015-.07-.023 0 .027-.008.07.007.09.235.285.45.59.715.843.504.496 1.035.957 1.59 1.47m-3.028 6.39c.22.039.446.054.657.125.351.11.71.062 1.035-.02.492-.12.988-.164 1.48-.226a6.38 6.38 0 0 0 1.243-.258c.363-.121.714-.277 1.066-.43.3-.137.594-.297.887-.445.023-.012.035-.047.05-.07-.03-.008-.062-.024-.09-.02-.038.008-.074.035-.113.043-.418.105-.789.336-1.23.367-.238.02-.477.133-.707.23-.543.231-1.106.372-1.695.368-.067 0-.145-.02-.204.004-.386.168-.757-.02-1.136-.051-.262-.02-.516-.102-.774-.156a8.829 8.829 0 0 0-.945-.157 2.094 2.094 0 0 0-.625.008c-.156.024-.137.137-.207.196.059.074.105.191.18.21.347.114.707.196 1.129.282m7.265-7.067c.035.098.055.203.106.293.203.371.355.758.402 1.18.008.047.055.086.09.133.023-.043.039-.09.074-.113.18-.133.156-.247.023-.41-.132-.157-.222-.352-.32-.54-.203-.375-.41-.746-.605-1.125a7.425 7.425 0 0 1-.27-.629c-.25-.644-.383-1.324-.543-1.996-.05-.207-.086-.425-.215-.617-.226-.34-.445-.691-.644-1.047-.242-.425-.461-.863-.688-1.297-.011-.027-.02-.058-.027-.086-.016.024-.043.051-.035.075.012.117.027.234.054.347.086.332.196.66.274.996.152.63.324 1.25.648 1.817.043.078.059.176.094.262.156.351.293.714.484 1.043.22.375.493.714.73 1.082.126.191.227.398.368.632m10.266 26.016c.066.398.136.797.207 1.195.015.114.039.23.066.34.016.059.055.11.086.168.016-.05.043-.101.047-.152.035-.719-.004-1.434.05-2.156.087-1.004.06-2.02.087-3.028.008-.32.008-.629.05-.949.063-.477-.011-.969.079-1.45.007-.034-.02-.081-.028-.12-.031.039-.093.074-.097.117-.055.336-.094.68-.141 1.02-.047.327-.086.656-.14.984-.06.355-.133.707-.196 1.058-.055.305-.101.61-.156.91-.055.31-.176.625-.156.93.02.356.156.711.242 1.133m-8.278-26.453c-.039-.965.079-1.934-.062-2.899-.04-.27-.035-.543-.074-.812-.055-.367-.13-.727-.203-1.094-.004-.027-.047-.05-.075-.074-.015.031-.05.062-.054.098-.024.437-.067.875-.067 1.316.008.984.043 1.973.067 2.961.015.742.043 1.484.066 2.227 0 .007-.008.023 0 .035.016.03.031.07.059.09.011.007.062-.02.078-.043.027-.04.05-.09.062-.141.086-.371.223-.734.203-1.125-.007-.156 0-.316 0-.54m-6.53 2.696c.14.145.26.313.421.434.45.332.965.523 1.5.68.371.109.738.222 1.129.195.035-.004.074-.024.113-.035-.039-.016-.078-.028-.113-.047-.414-.196-.824-.39-1.238-.59-.176-.082-.352-.18-.528-.27-.336-.164-.695-.293-1-.504a7.325 7.325 0 0 0-1.496-.77c-.512-.194-1.043-.355-1.566-.523-.363-.12-.742-.203-1.074-.402-.028-.015-.075.008-.118.012.02.035.028.082.051.101.106.075.215.137.317.204.398.265.754.585 1.191.785.121.054.246.101.371.16.285.125.566.258.848.383.027.011.062.007.09.007-.016-.03-.02-.074-.043-.09-.082-.07-.18-.12-.254-.195-.043-.05-.055-.132-.078-.203.058-.012.117-.031.18-.039a.289.289 0 0 1 .128.008c.406.176.844.293 1.168.7m1.953 6.73c.028-.012.063-.016.086-.036.563-.46 1.125-.917 1.672-1.394.23-.2.422-.445.621-.684.168-.195.32-.402.477-.609.011-.02.004-.074-.016-.09-.02-.015-.078-.012-.09.004-.086.098-.152.215-.242.3-.535.513-1.086 1-1.687 1.434-.45.325-.895.641-1.38.895-.292.152-.6.281-.906.414-.12.055-.261.078-.378.137-.364.183-.723.383-.985.707-.035.05-.043.117-.066.176.058.02.11.054.164.054.418 0 .77-.215 1.117-.383.543-.265 1.055-.593 1.613-.925m7.61-11.848c-.067.219-.149.434-.2.652a9.069 9.069 0 0 1-.675 1.907c-.203.421-.407.84-.606 1.261-.02.035-.02.078-.027.118.039-.02.086-.028.11-.06a.997.997 0 0 0 .113-.187c.167-.32.328-.648.507-.964.227-.403.477-.79.703-1.192.329-.59.524-1.238.743-1.875.218-.613.37-1.234.402-1.883.012-.183.039-.363.066-.543.016-.093.047-.183.063-.277.008-.023-.016-.059-.024-.086-.039.012-.09.016-.113.043-.035.035-.055.086-.074.137-.152.43-.316.855-.453 1.289-.168.535-.266 1.094-.535 1.66m15.68 1.21c0 .2-.008.407.003.606.004.055.059.11.09.164.04-.046.09-.093.106-.144.128-.418.246-.84.375-1.258.043-.148.132-.289.156-.437.015-.121-.024-.254-.059-.375-.054-.188-.16-.368-.195-.559-.07-.406-.332-.684-.61-.953a.131.131 0 0 0-.113-.02c-.246.102-.558.625-.484.86.058.195.144.394.262.562.32.45.523.922.468 1.555m2.696 6.258c.129-.07.14-.184.05-.278a1.239 1.239 0 0 0-.378-.289c-.473-.214-.903-.48-1.254-.87-.16-.188-.368-.337-.559-.497-.055-.047-.172-.11-.2-.082a.366.366 0 0 0-.144.234c-.027.336.047.665.145.977.078.25.238.477.515.57.247.078.497.153.743.235.351.113.71.144 1.082 0m-28.508-.434c.035 0 .07-.008.101 0 .739.262 1.5.41 2.286.399.386-.004.773-.04 1.16-.067a.965.965 0 0 0 .273-.066c.047-.016.074-.07.11-.106-.04-.007-.083-.027-.122-.027-.335-.004-.671 0-1.011 0-.27 0-.551.055-.801-.012-.566-.144-1.14-.234-1.695-.441-.856-.32-1.684-.703-2.536-1.028-.34-.128-.671-.269-1.007-.398-.04-.016-.09 0-.13.004.02.039.032.094.067.117.192.133.406.23.578.387.332.308.742.488 1.133.683.484.239 1.035.352 1.594.555m8.043-8.383c-.02-.156-.047-.316-.063-.472-.027-.215-.027-.434-.074-.645a5.36 5.36 0 0 1-.133-1.086c.004-.191.004-.383 0-.57 0-.027-.02-.059-.031-.082-.012.027-.027.058-.031.086-.043.379-.156.746-.219 1.12-.09.567-.191 1.13-.187 1.7.003.215-.004.426 0 .64.02.864.046 1.727.066 2.59 0 .024-.004.047.004.067.004.02.02.031.031.047.012-.016.031-.031.035-.055.047-.316.106-.633.13-.949.034-.48.179-.934.292-1.395.07-.304.195-.601.18-.996m-6.528 3.836c.102.13.196.262.31.375.41.418.82.825 1.233 1.235.059.062.125.12.196.175.394.293.793.582 1.187.872.07.05.153.074.23.109-.034-.063-.07-.129-.113-.188-.023-.035-.062-.058-.082-.097-.203-.414-.492-.758-.82-1.074-.422-.407-.851-.81-1.281-1.211-.176-.164-.36-.325-.543-.477-.383-.32-.781-.625-1.149-.957-.21-.188-.382-.422-.578-.633-.011-.012-.043-.012-.066-.012-.004.02-.016.047-.004.063.043.074.086.148.137.21.148.177.304.345.449.52.289.348.574.707.894 1.09m7.067 6.664c-.086-.199-.172-.398-.262-.597a1.798 1.798 0 0 1-.074-.203c-.008-.028.012-.059.02-.094.023.015.054.023.066.047.086.156.176.308.246.468.176.395.348.786.855.832.137.016.278.036.414.06.067.007.133.026.2.042l-.117-.21c-.008-.02.003-.048-.008-.063-.07-.114-.149-.164-.25-.028a.532.532 0 0 1-.094.094c-.098.066-.188.023-.188-.098 0-.144.02-.312-.14-.375-.313-.132-.512-.379-.703-.644a.468.468 0 0 0-.168-.16c-.067-.024-.203-.016-.215.011-.04.118-.16.211-.074.368.117.218.218.449.28.687.153.57.263 1.149.415 1.711.11.398.258.793.406 1.176.035.097.149.16.227.238-.012-.086-.02-.172-.031-.258v-.035c.011-.656-.188-1.273-.395-1.887-.117-.347-.25-.695-.41-1.082m-3.469 2.055c-.164-.027-.238.078-.3.2-.18.355-.438.655-.712.945-.27.28-.558.546-.824.835-.21.227-.422.465-.59.727-.132.211-.25.441-.23.711.004.082.023.09.086.031.062-.058.148-.09.207-.148.183-.176.37-.348.543-.54.32-.355.652-.706.945-1.085.375-.485.75-.973 1.05-1.512.079-.14-.015-.144-.175-.164m5.992-3.902c-.078.02-.164.035-.238.066-.047.02-.086.063-.129.098.05.035.098.078.152.101.051.016.118.02.168 0 .38-.125.762-.14 1.157-.136.074 0 .144-.024.215-.047.453-.157.894-.328 1.351-.469.504-.152.98-.356 1.422-.625.14-.09.258-.223.371-.344.02-.023.113-.074.02-.152-.079-.067-.086.016-.125.027-.07.02-.141.043-.211.067-.602.222-1.207.433-1.805.68-.586.242-1.152.538-1.8.6-.161.02-.321.087-.548.134m1.215-3.168c.527-.02 1.055-.04 1.582-.07.156-.012.309-.06.465-.094-.137-.07-.266-.16-.406-.207-.301-.094-.578-.239-.914-.246-.485-.012-.946.105-1.422.152-.235.023-.465.121-.7.172-.285.058-.378.324-.558.496-.035.035-.059.078-.086.117.05.004.121.031.152.008.254-.172.536-.215.829-.195.035.003.078.015.101 0 .277-.18.586-.125.957-.133m.54 2.023-1.415.809c-.023.015-.039.078-.031.082.027.023.082.054.098.043.375-.239.847-.156 1.218-.395.094-.058.207-.094.313-.137.648-.246 1.3-.488 1.945-.742.277-.113.54-.261.817-.386.132-.059.261-.121.246-.293-.008-.067-.262-.09-.391-.036-.305.125-.621.239-.918.387-.332.172-.66.344-1.035.422a7.15 7.15 0 0 0-.848.246m-2.023 1.008c.094-.047.191-.086.277-.14.387-.255.758-.544 1.164-.75.672-.34 1.242-.798 1.774-1.317.336-.332.652-.688.968-1.043.075-.082.11-.195.157-.3.007-.02-.016-.071-.036-.083-.023-.008-.066.008-.085.024-.036.027-.051.07-.079.101-.16.184-.253.442-.492.52a.809.809 0 0 0-.344.222c-.27.266-.523.559-.812.801-.266.223-.555.43-.86.59-.312.16-.62.312-.867.562-.207.211-.48.305-.726.438-.223.121-.223.121-.04.375m-11.374-1.617c-.035-.02-.067-.047-.106-.067a22.307 22.307 0 0 0-3.039-1.343c-.031-.012-.082.015-.113.035-.008.004.004.07.023.086.387.25.77.508 1.168.75.286.172.582.316.88.472.183.094.363.211.562.262.504.137 1.027.195 1.512.406.125.051.285.028.425.043-.097-.082-.195-.168-.3-.238-.09-.055-.184-.113-.282-.129-.242-.05-.46-.14-.73-.277m3.195 1.383c.39.12.727-.063 1.07-.192.028-.012.047-.047.07-.07-.034-.012-.07-.04-.105-.04a4.91 4.91 0 0 1-1.191-.202c-.477-.14-.945-.309-1.375-.563-.195-.113-.39-.222-.528-.441-.246-.39-.652-.61-1.066-.805-.039-.02-.101.004-.152.008.027.039.047.086.086.113.082.07.183.121.254.196.234.246.449.515.695.75.223.214.473.406.726.593.438.336.938.535 1.516.653m5.86 5.586c.066.261.132.527.203.789.011.043.043.078.066.117.023-.043.063-.082.063-.125.003-.45.015-.899-.004-1.344-.008-.195-.082-.387-.13-.582-.109-.496-.292-.969-.34-1.477-.019-.23-.085-.457-.14-.683-.008-.035-.058-.063-.094-.094-.007.04-.03.078-.03.117.038.657-.087 1.313.124 1.965.133.414.168.856.281 1.317m5.622-5.215c-.22-.008-.434.015-.649.015-.277 0-.55.118-.824.184-.117.027-.23.055-.344.066-.316.028-.633.043-.95.07-.034.005-.062.04-.093.055.024.028.047.075.078.075.313.027.63.07.95.066.414-.004.835-.027 1.25-.04.57-.01 1.043-.257 1.539-.444.097-.04.175-.122.257-.188.02-.016.02-.059.032-.09-.028.008-.059.008-.09.016-.363.07-.73.14-1.156.215m-1.75.937c.214.043.289.156.234.363-.055.196.023.372.2.446.01.008.023 0 .034 0a.954.954 0 0 0 .094.039c.004-.031.016-.067.008-.098-.098-.293-.203-.586-.3-.883-.036-.105-.09-.144-.208-.14-.512.027-1.012-.008-1.496-.196-.102-.039-.242-.023-.281.106-.067.195-.196.246-.38.23-.03-.004-.062.016-.089.024.027.031.047.078.082.094.238.097.477.195.723.285.246.09.48.09.726-.059.172-.105.387-.14.653-.21m-6.598 2.76c.164.017.309-.05.453-.116a2.503 2.503 0 0 0 1.14-.98c.176-.294.204-.595.255-.903.007-.027-.04-.059-.059-.086-.023.027-.066.055-.066.082.007.574-.305.969-.704 1.324-.273.242-.632.238-.957.254-.257.016-.523-.133-.789-.172-.117-.02-.25.031-.363.082-.094.047-.133.145-.047.25.25.297.637.442 1.137.266m2.187-1.984c0-.036.008-.067-.003-.102-.028-.09.074-.27-.083-.258-.19.016-.039.18-.046.278-.043.617.027 1.23-.059 1.855-.066.492-.102.992-.137 1.488-.035.45.032.899.059 1.352 0 .023.031.062.05.062.024.004.071-.015.079-.035.05-.16.101-.32.133-.48.043-.223.007-.45.05-.684.032-.2.032-.43.024-.648-.02-.371-.055-.743-.063-1.114-.011-.55-.004-1.097-.004-1.714m17.164 6.527c0-.156-.05-.34.016-.461.07-.137.027-.258.05-.383.024-.125.052-.25.067-.375.004-.05-.02-.105-.027-.156-.031.05-.066.101-.094.156-.012.02-.004.043-.012.063-.183.664-.375 1.324-.554 1.988-.051.18-.094.367-.113.555-.036.293.082.562.195.824.035.082.074.16.11.238.046-.094.12-.18.132-.277.023-.149.004-.301-.008-.45-.004-.093-.047-.195-.031-.285.086-.46.18-.914.27-1.437m-15.72-5.55c.325.16.688.132 1.032.187.406.074.832.058 1.246.082.316.015.602-.102.887-.211.09-.035.23-.149.222-.192-.039-.164-.156-.011-.242-.023-.039-.008-.086-.055-.113-.043-.418.183-.875-.055-1.293.133-.352-.14-.719-.032-1.078-.07a8.432 8.432 0 0 1-.629-.102c-.086-.016-.168-.051-.254-.074l.14.23c.016.016.036.031.083.082m5.386-7.27c.047-.07.09-.144.141-.21.238-.32.496-.63.613-1.02.008-.027.02-.082.012-.086a.234.234 0 0 0-.121-.031c-.035.008-.07.043-.106.066-.417.27-.707.657-.972 1.063-.195.293-.313.633-.606.855-.023.02-.046.075-.039.094.067.145.41.152.512.016.172-.239.356-.477.566-.746m-1.28-1.211c.292-.586.589-1.172.882-1.754.027-.063.047-.125.074-.188-.062.035-.133.059-.187.102-.059.047-.125.097-.164.164a7.631 7.631 0 0 0-.707 1.39 14.68 14.68 0 0 1-.942 1.93c-.05.078-.105.145-.043.227.043.054.281.004.313-.059.152-.34.406-.629.48-1.016.051-.265.172-.507.293-.796m-1.781 3.464c.14-.164.285-.328.426-.492.027-.027.066-.039.097-.062 0 .054.028.125 0 .156-.074.094-.168.176-.254.266-.011.015-.003.043-.003.066.023 0 .054.008.07-.004.242-.148.484-.3.723-.453.03-.02.046-.059.07-.09-.031-.008-.059-.023-.09-.023-.328-.004-.652.004-.977-.004-.093 0-.101.062-.152.117-.46.488-.95.953-1.547 1.29-.054.03-.113.054-.16.097-.02.015-.027.066-.016.086.012.02.059.035.086.03.137-.038.29-.062.41-.136.434-.265.856-.543 1.317-.844m.64.235c.348-.262.7-.52 1.047-.785.02-.016.028-.078.02-.086-.074-.043-.422.023-.492.094-.27.28-.602.468-.942.644-.164.086-.336.164-.496.258-.343.203-.68.414-1.023.613-.09.055-.192.082-.29.117.122.008.243.02.364.02.027 0 .059-.016.09-.028.36-.12.723-.246 1.086-.375a.28.28 0 0 0 .125-.097c.101-.18.281-.266.512-.375m-6.563 8.047c-.05.156-.082.324-.148.476-.13.325-.254.645-.254 1 0 .059.027.114.043.172.047-.05.105-.094.132-.152.094-.196.176-.395.262-.594.285-.66.442-1.363.633-2.055.027-.09.004-.199 0-.3 0-.008-.062-.032-.066-.024-.114.153-.266.297-.325.469-.109.312-.168.648-.277 1.008m5.55-10.2c-.109.157-.222.31-.327.47-.024.03-.024.073-.032.113 0 .003.047.027.055.023.176-.129.442-.059.555-.363.129-.336.36-.64.582-.93.32-.406.574-.852.816-1.305.024-.05.024-.105.04-.16-.055.031-.122.05-.165.094-.136.152-.265.316-.406.465-.055.062-.156.082-.203.148-.102.145-.172.309-.266.461-.203.317-.41.633-.648.984m.437 5.555c-.187.078-.375.188-.574.23-.324.063-.648.173-.992.075-.05-.016-.121-.024-.16.004-.067.039-.137.105-.149.172-.03.14.09.082.157.09.168.027.336.046.507.066.43.05.832-.082 1.223-.211.234-.078.508-.168.617-.445.02-.059.035-.121.051-.184-.07 0-.14-.016-.203.004-.156.047-.297.11-.477.2m1.985-3.2c-.121.102-.254.203-.375.309-.043.039-.078.093-.114.14.067-.012.137-.015.204-.031.382-.094.652-.402 1.011-.54.442-.171.762-.507 1.117-.784.086-.067.18-.14.141-.278-.09.028-.187.043-.273.082-.25.13-.485.293-.746.395-.23.086-.41.223-.582.387-.106.101-.23.191-.383.32m-6.157 5.148c.043-.336.09-.675.133-1.015 0-.028-.02-.059-.027-.086-.012.027-.031.05-.035.074-.043.27-.196.484-.344.7-.027.042-.043.093-.062.14-.098.27-.192.547-.293.816-.079.203-.176.403-.243.606a.603.603 0 0 0 0 .3c.02.075.067.149.18.044.156-.137.207-.32.277-.493.137-.347.254-.699.414-1.086m4.98-8.48c-.038.059-.077.125-.12.184-.227.32-.457.636-.684.96-.039.06-.05.133-.066.208-.008.023.008.062.023.085.008.016.43-.187.446-.21.109-.188.238-.372.332-.57.21-.438.406-.884.609-1.321.148-.313.23-.649.441-.926.02-.027.008-.074.008-.113-.023.015-.05.027-.07.043-.094.094-.176.21-.29.281-.151.094-.023.234-.085.348-.184.324-.34.664-.543 1.03m-6.496 9.794c.246-.223.367-.512.437-.828.008-.035-.02-.082-.039-.113-.004-.008-.066.007-.086.027-.05.055-.125.11-.132.176-.02.113-.09.14-.165.207-.308.273-.593.574-.882.867-.032.031-.036.097-.04.148-.007.09 0 .145.13.098.3-.11.523-.324.777-.582m4.008-4.274c-.106-.218-.075-.453-.063-.675.012-.176-.086-.305-.14-.45a.172.172 0 0 0-.075-.007c-.039.113-.129.25-.097.34.129.347.105.703.101 1.062a1.543 1.543 0 0 1-.066.375c-.082.277-.18.555-.258.832-.016.05.023.113.04.172.034-.04.077-.078.108-.121.239-.313.286-.692.383-1.051.031-.133.043-.273.067-.477m-3.2 1.786c.079-.16.16-.317.23-.477.017-.031-.01-.082-.023-.121-.015.035-.027.07-.046.098-.11.156-.192.347-.34.46-.332.262-.711.442-1.156.45-.157 0-.313.054-.458.11-.078.03-.132.116-.195.179.086.039.168.078.258.105.05.016.113.016.164 0 .219-.062.438-.148.66-.195.297-.059.54-.2.727-.434.047-.05.097-.097.18-.175m-6.497-16.528c.258.207.555.11.84.094.117-.004.23-.078.344-.137.043-.02.066-.082.094-.125-.04-.02-.082-.039-.118-.066-.164-.098-.328-.192-.48-.3-.125-.087-.23-.09-.348 0-.16.124-.254.288-.332.534m1.715 14.172c.047-.066.07-.125-.039-.133-.344-.027-.637-.18-.926-.355-.129-.082-.285-.164-.43-.176-.277-.02-.538-.101-.8-.184a13.81 13.81 0 0 0-.813-.222c-.054-.016-.125.015-.187.027.055.031.105.074.164.094.226.074.46.125.68.219.55.23 1.093.46 1.691.547.203.027.398.117.66.183m26.555 5.887c-.348.5-.606 1.031-.606 1.656 0 .043-.023.086-.035.129.035-.039.094-.07.11-.117.113-.25.187-.528.336-.762.246-.398.425-.828.609-1.254.008-.027.008-.058.012-.09-.028.008-.067.008-.086.032-.102.12-.203.246-.34.406m-4.676 7.234c-.258-.015-.45.168-.683.219-.008 0-.004.105-.004.105.21.028.421.051.632.067.07 0 .141-.04.211-.047.414-.05.762-.27 1.133-.422.016-.008.012-.058.016-.086a.43.43 0 0 0-.07.008c-.387.05-.778.105-1.235.156m1.11-16.523c-.079-.098-.157-.203-.239-.305-.242-.308-.488-.625-.734-.937-.02-.024-.063-.032-.094-.043.004.027-.004.066.008.09.289.554.64 1.05 1.148 1.44.282.216.567.458.723.802.047.101.117.199.195.285.024.027.11.012.157-.008.093-.043.003-.078-.02-.117-.066-.113-.133-.235-.2-.352-.027-.047-.046-.097-.09-.133-.269-.23-.546-.457-.855-.722m-18.543 6.633c.528-.317.727-.832.836-1.395.008-.023-.039-.059-.062-.086-.024.028-.066.059-.066.086.011.145-.043.266-.11.39-.328.66-.91.907-1.59 1.005-.043.004-.082.02-.12.03.042.036.085.099.124.099.313-.008.637.066.988-.13m6.731-5.59c-.133.114-.258.24-.402.337-.278.187-.563.367-.852.539-.113.062-.18.137-.105.258.097.148.187.004.253-.04.637-.39 1.176-.91 1.739-1.394.023-.023.043-.05.066-.074-.031-.008-.058-.028-.09-.028-.14 0-.28-.03-.336.176-.015.082-.156.13-.273.227m2.656 29.719v1.851c0 .066-.004.133.004.2.004.023.031.046.05.07.028-.024.075-.047.079-.075.05-.308.094-.613.137-.918a.797.797 0 0 0-.004-.304c-.086-.29-.086-.59-.137-.887-.02-.125.11-.285-.074-.375-.016.121-.035.246-.055.438m-11.808-49.708c.187-.124.074-.18-.051-.257-.227-.14-.399-.118-.48.117-.114.34-.04.672.105.992.004.012.039.027.055.02.027-.008.066-.036.066-.051-.031-.301.133-.54.305-.82m-4.278 1.511c-.105-.176-.203-.36-.328-.527-.129-.172-.281-.149-.387.035-.066.117-.003.441.102.527.156.13.355.164.55.196.188.035.145-.086.063-.23m13.262 14.003c-.277.18-.328.524-.54.754-.019.023.005.086.009.129.039-.024.086-.04.117-.07.191-.192.367-.395.566-.575.211-.191.38-.41.532-.648.05-.078.086-.14-.008-.184-.047-.02-.137 0-.176.032-.11.093-.2.21-.3.312-.063.063-.134.121-.2.25m.57-1.922c-.078.125-.136.266-.238.364a.389.389 0 0 0-.129.351c.027.285-.023.555-.144.813-.016.027-.012.058-.016.09.027-.012.074-.012.082-.028.105-.23.344-.36.395-.644.05-.313.183-.61.148-.938 0-.016-.04-.027-.098-.008m12.825-12.683c.039-.207.074-.418.234-.578.023-.02.016-.075.02-.114-.032.016-.067.035-.098.047-.028.016-.067.016-.086.035-.258.266-.613.352-.93.504-.043.024-.094.028-.14.04.05.034.105.081.164.093.246.055.496.098.746.145.03.007.062.02.093.027-.003-.043-.003-.09-.003-.2m-16.594 20.563c.004.043-.016.11.008.133.136.137.195.289.246.477.058.199.02.39.054.582.036.171.082.343.133.515.008.02.051.04.074.04.024-.005.059-.044.055-.063-.039-.215.059-.422.02-.653-.07-.41-.239-.746-.59-1.03m4.879-19.356c.011.03.007.078.027.09.234.136.52.093.727-.106.062-.059.125-.125.187-.187-.078-.036-.156-.063-.23-.098-.325-.14-.532-.074-.711.3m-1.14 10.571c-.075.094-.15.184-.212.281-.164.246-.336.496-.129.805.016.023.02.059.031.086.012-.024.02-.05.04-.074.218-.282.304-.625.449-.946.062-.136-.047-.168-.18-.152m-8.855 15.852c-.07.136-.145.273-.211.418-.012.03 0 .074.004.113.035-.012.085-.012.113-.035.332-.274.488-.676.73-1.008.012-.016-.015-.086-.023-.086-.102.008-.254-.016-.3.043-.118.156-.188.344-.313.555m4.78-5.051c-.187-.184-.487-.235-.593-.512-.008-.016-.121-.148-.2-.035-.058.09-.128.223-.054.297.16.152.352.277.535.406.067.05.176.129.215.106.067-.04.09-.149.098-.262m1.144-3.43c.075-.07.149-.14.211-.215.02-.02.035-.066.024-.086-.012-.023-.063-.043-.082-.03-.13.065-.328.12-.364.226-.12.379-.511.484-.718.765-.207.012-.016.125-.043.184.05-.008.125 0 .156-.031.266-.258.523-.52.816-.813m-.472 4.035c.156 0 .312.008.468 0 .086-.004.168-.023.25-.043.016-.008.032-.031.047-.047l-.058-.043c-.246-.105-.496-.195-.739-.308-.109-.055-.132-.028-.132.082 0 .05-.008.11-.032.152-.082.153.008.188.196.207m-11.844-19.047c-.047.07-.106.137-.14.211-.09.207-.044.282.183.254.16-.015.32-.078.473-.133.023-.007.02-.078.027-.12-.184-.012-.274-.239-.543-.212m.605 19.52h-.035l-.324.023c.11.04.223.09.336.11.2.035.406.047.61.07.238.027.476.012.714-.004.387-.027.77-.086 1.153-.133.02 0 .039-.027.058-.043-.02-.007-.039-.02-.058-.023-.067 0-.137-.008-.2 0-.254.043-.5.117-.75.129-.492.023-.988.027-1.504-.13m12.485-2.995.129-.14c-.055.01-.11.023-.16.042-.286.09-.575.176-.86.27-.058.015-.11.054-.168.082.047.054.078.133.137.156.055.023.14.004.2-.023.23-.114.46-.235.722-.387m1.047 2.863c-.059 0-.137.024-.164-.004-.149-.148-.282.004-.418.008-.02 0-.055.04-.055.059 0 .023.027.062.047.07.32.07.637.14.96.2.04.007.09-.032.137-.048-.027-.047-.042-.113-.085-.129-.13-.05-.262-.086-.422-.156m10.43-8.012c-.067-.047-.15-.082-.208-.144-.113-.125-.172-.028-.226.055-.024.039-.004.113-.031.152-.098.14-.012.148.093.14.215-.015.41.008.563.184.031.04.086.055.137.07.027.012.062.004.09.004-.008-.023-.012-.05-.028-.07-.117-.121-.238-.238-.39-.39m-13.294 6.292c-.132-.148-.328-.14-.5-.156-.086-.008-.183.078-.273.129-.02.012-.035.059-.027.082.004.023.046.047.07.043.207-.016.394.05.582.133.137.062.164-.047.148-.23m8.348 21.878-.055-.101c-.027.023-.078.047-.078.074-.035.5.063.996.133 1.488 0 .02.02.04.031.055.016-.016.04-.031.043-.047.024-.059.063-.129.051-.18-.105-.402-.133-.808-.125-1.289m-14.402-21.004c-.336.055-.672.114-1.004.168-.133.028-.27.043-.406.07-.02.005-.04.028-.063.044.02.007.043.023.059.02.195-.02.382-.063.578-.06.41 0 .793-.148 1.187-.21.04-.004.075-.047.098-.079.016-.02.016-.058.02-.09-.024.005-.047.005-.07.012a2.68 2.68 0 0 0-.4.125m2.825.407c-.133.14-.043.312-.063.472-.007.07.012.149.02.223.059-.047.105-.11.168-.14.14-.083-.02-.16.004-.247.027-.09-.016-.199.094-.262l.046.223.024.09c.023-.016.055-.027.066-.05.04-.083.11-.177.094-.247-.027-.113-.152-.098-.254-.098-.055 0-.113 0-.2.036m13.767-20.766c-.368-.11-.73-.227-1.098-.332-.04-.012-.129.027-.145.066-.03.082.008.125.114.137.218.023.433.09.648.117.152.02.29.035.414.14.07.056.137-.01.067-.128m-12.723 3.566c.012-.16.031-.324.031-.484 0-.043-.066-.078-.101-.117-.032.043-.086.082-.094.125-.031.222-.05.449-.067.672-.007.07.024.195.043.199.168.012.059-.121.09-.192.02-.054.04-.113.098-.203m19.82 13.43c-.066-.05-.156-.082-.203-.148-.07-.098-.125-.063-.203-.024-.066.031-.133.13-.219.016-.07-.098-.058-.176.028-.258.03-.031.039-.09.058-.133-.031-.008-.062-.02-.09-.027-.097-.02-.105.039-.11.117-.003.047-.042.09-.062.137-.078.156.09.207.141.304.07.145.168-.003.203-.03.145-.102.211-.052.262.085.016.043.043.082.062.121l.133-.16m-10.664-17.066c.027-.008.082-.008.086-.024.063-.23-.047-.36-.289-.304-.078.02-.16.117-.2.203-.015.035.067.152.126.175.066.028.16-.007.277-.05m-5.117 18.175c.055-.02.117-.039.172-.066.027-.016.039-.059.062-.09-.027-.015-.05-.035-.078-.039a.165.165 0 0 0-.097.004 4.2 4.2 0 0 1-1.243.398c-.015.004-.03.032-.05.047.015.016.027.04.046.047.036.016.082.04.114.028.34-.11.672-.22 1.074-.329m-4.477 4.543c-.117.121-.28.22-.343.36-.082.187-.09.41-.125.617-.004.016.011.035.02.059.015-.024.03-.04.042-.063.137-.3.27-.605.406-.973m-1.953-5.988c.047.125.09.254.137.375.012.031.086.063.09.059.058-.07.129-.14.164-.227.016-.035-.035-.113-.074-.156-.118-.129-.246-.25-.371-.375-.036-.035-.079-.074-.114-.113.012.054.012.109.035.16.04.07.09.14.133.277m12.352-17.871c.086-.039.164-.082.254-.113.101-.043.222-.078.18-.215-.04-.152-.18-.07-.27-.07-.192 0-.277.175-.164.398m-.875.2c.008-.036.031-.102.02-.11-.06-.04-.165-.106-.188-.082a.587.587 0 0 0-.195.262c-.024.074-.008.218.043.261.097.067.18-.043.238-.117.035-.047.035-.121.082-.215m-1.309-.91c-.027.07-.05.14-.07.203l-.035.098c.039-.016.097-.016.113-.04.082-.171.195-.296.395-.327.035-.008.078-.055.09-.094a.264.264 0 0 0-.008-.156c-.043-.094-.079-.008-.118.015-.125.082-.246.157-.367.301m-4.308 18.918c.07-.074.14-.14.21-.215.016-.015.028-.047.044-.07-.032-.008-.067-.027-.09-.02-.059.028-.117.055-.157.098-.222.215-.44.434-.664.656-.027.032-.035.078-.054.117.039-.011.086-.02.113-.046.188-.157.375-.325.598-.52m-.371 4.676c-.102-.195-.325-.18-.489-.266-.015-.012-.066.012-.082.031-.008.02 0 .067.02.086.16.188.34.336.61.286.034-.008.066-.028.097-.04-.028-.035-.059-.066-.156-.097m-1.754-1.145a.365.365 0 0 1-.063.07c.152.11.3.227.457.333.047.03.11.035.16.054.008-.062.036-.14.012-.187-.027-.055-.098-.098-.156-.13a1.97 1.97 0 0 0-.41-.14m-1.512-5.082c0-.043.004-.09 0-.133-.004-.03-.012-.058-.02-.09-.015.032-.043.06-.046.09-.028.223-.043.45-.07.672-.009.055-.028.106-.044.16.067 0 .145.028.192 0 .035-.015.054-.105.05-.16-.011-.156-.043-.312-.062-.539m3.062 1.313c.008-.016.016-.031.02-.047 0-.004-.02-.02-.027-.02-.317.141-.57.368-.809.614-.008.007-.008.043-.008.047.02.011.043.02.059.011.05-.011.105-.023.144-.054.2-.168.395-.344.621-.551m5.317-17.43c.047-.023.101-.039.137-.074.062-.074.109-.156.164-.23-.114.003-.227-.008-.336.007a.26.26 0 0 0-.16.094c-.032.043-.036.121-.024.176.004.02.102.02.219.027m.37-1.383c.02.035.032.094.052.098.12.016.347-.16.347-.281 0-.055-.035-.133-.078-.157-.031-.02-.12.008-.156.047a.827.827 0 0 0-.164.293m-1.18.438c.055-.102.09-.223.172-.297.106-.094-.015-.145-.012-.215 0-.031-.058-.062-.09-.094-.035.063-.085.121-.097.192-.031.144-.047.293-.074.441.027.004.047.004.101-.027m1.114.101c.136.063.27.055.39-.035.047-.035.094-.07.14-.11-.077-.05-.155-.1-.234-.155-.066.12-.277.054-.296.3m.91.707c-.012.032-.043.067-.035.086.058.106.117.157.25.059.109-.09.156-.18.152-.305-.098.004-.195.004-.29.02-.023.004-.03.07-.077.14m9.386 2.121c.063-.074.125-.144.192-.214l-.293-.024c-.059 0-.113-.004-.168.004-.024.004-.067.043-.063.047.04.086.07.18.137.242.035.035.129.008.195-.055m-15.043 21.168c.106.11.207.227.329.325.054.043.195.086.214.058.09-.097-.043-.14-.093-.195a.495.495 0 0 0-.45-.188m6.16-24.535c.165.098.184-.093.274-.144.129-.07-.055-.13-.012-.203-.062 0-.144-.028-.175 0-.086.082-.196.168-.086.347m-13.797 20.192c-.09-.024-.18-.047-.27-.067-.023-.004-.047.004-.066.008.008.027.008.074.027.082.156.074.313.164.477.203.066.016.215-.058.222-.113.032-.133-.097-.066-.16-.078-.066-.008-.133 0-.23-.035m15.242-19.282c.05-.043.101-.082.152-.12-.066-.028-.136-.079-.203-.075-.062 0-.137.05-.187.102-.043.043-.063.11-.094.164.07.02.137.05.207.05.027 0 .058-.058.125-.12m-3.063-.438c.055-.078.114-.152.16-.234.012-.024-.003-.067-.019-.094-.008-.012-.059-.024-.066-.016-.114.106-.227.207-.325.328-.058.07-.015.125.075.11.05-.004.097-.04.175-.094m13.192 20.394c-.192-.113-.301.02-.41.145-.028.035-.032.09-.051.137.055-.02.113-.028.16-.051.02-.012.016-.059.035-.082.012-.016.043-.024.059-.016.137.055.137.055.207-.133m-22.918 2.458c-.14.085-.09.23-.098.355.028 0 .059.008.082-.004.168-.074.156-.234.184-.379.004-.027-.024-.066-.035-.101-.036.03-.067.066-.133.129m11.344-21.239c.03-.054.109-.129.093-.164-.05-.11-.129-.082-.207-.008-.035.035-.093.047-.132.082-.032.028-.063.079-.06.114.005.03.063.074.099.074.058-.004.113-.04.207-.098m-12.454 17.168c-.078-.082-.152-.164-.234-.238-.074-.063-.156-.113-.238-.172.062.086.144.164.18.262.05.125.113.207.292.148m4.645 2.692c-.133-.055-.262-.114-.39-.168-.02-.004-.044.007-.06.015-.007 0-.003.035.005.04.136.097.265.21.414.269.105.047.129-.031.031-.156m-3.938 1.511c-.054-.043-.101-.144-.167-.011a1.123 1.123 0 0 0-.083.199c-.011.047-.003.097-.007.148.066-.011.156.047.164-.094.004-.07.082-.136.094-.242m.269 1.953c.055-.05.11-.101.168-.152-.066.008-.14.008-.207.02-.047.011-.121.03-.133.066-.031.078-.035.168-.047.25.047-.035.09-.07.14-.105.017-.012.028-.028.079-.079m10.195-24.535c.047-.05.145-.105.012-.164-.035-.015-.086-.011-.125-.02-.05-.007-.094-.019-.14-.03.007.062-.008.144.023.175.047.043.129.051.23.04m2.29-.54c-.02.047-.044.094-.067.14.04.009.094.04.117.024.078-.047.149-.113.215-.18 0-.003-.047-.081-.062-.081a.661.661 0 0 0-.204.097m-3.804.239c.05-.204-.09-.301-.219-.403-.012-.008-.04.004-.059.012.055.113.11.226.164.344.012.015.032.03.114.046m13.496 18.88c.023-.024.066-.063.062-.07-.07-.114-.168-.122-.257-.032-.036.039-.083.117-.067.144.07.114.156.07.262-.043m-19.957-1.511c.035.03.086.101.113.015.04-.12.04-.254.055-.375 0-.011-.035-.039-.04-.039-.027.02-.058.043-.066.07a.819.819 0 0 0-.062.329m19.656 2.152c.09.008.145-.059.078-.105-.078-.063-.207-.07-.285.039-.027.039-.05.082-.074.12.082-.007.164-.011.281-.054m-9.156-18.375c-.055.05-.11.106-.168.156.058.012.117.043.176.04.054 0 .105-.036.16-.06-.043-.03-.086-.07-.168-.136m8.785 18.004c-.024-.063.055-.191-.082-.16-.07.015-.129.11-.184.172-.004.007.047.086.059.082a.542.542 0 0 0 .207-.094m.035-1.313c.078-.078.156-.152.234-.226l-.043-.043a.707.707 0 0 0-.19.27m-8.517-16.86c-.011-.144-.101-.18-.222-.168-.02.004-.031.027-.043.043.066.055.133.106.203.16 0 0 .02-.004.062-.035m8.043 16.59c-.074.059-.144.121-.218.184l.07.07c.059-.074.121-.145.148-.254m.809.672c.008-.008.016-.012.023-.024 0-.004 0-.02-.003-.02-.125-.062-.207-.015-.254.106-.012.035.007.082.011.125.067-.05.125-.101.223-.187m.941 1.144-.152.118c.074.027.149.05.227.078a.746.746 0 0 0-.075-.196m-1.847-.636c.012-.055.023-.11.039-.164-.043.02-.11.023-.13.058-.03.047-.026.117-.038.176a.485.485 0 0 0 .129-.07m-21.137 4.308c.027.031.07.098.082.094.074-.04.074-.223 0-.258-.012-.008-.059.063-.082.164m3.734-2.457-.093.094c.03.012.074.043.097.035a.407.407 0 0 0 .157-.098c.011-.007-.008-.082-.016-.082-.035-.004-.074.008-.145.051m-5.824-.035c.04-.016.078-.031.113-.047-.023-.02-.046-.055-.07-.05-.082.015-.16.038-.238.066-.024.008-.043.027-.063.043l.09.02c.047.003.09.003.168-.032m24.703-.336c.016.035.036.066.051.102.05-.047.152-.106.145-.137-.032-.121-.121-.066-.196.035m-.035-.91a.6.6 0 0 0 .074-.066c.032-.028.063-.06.098-.09-.059-.012-.125-.051-.172-.032-.05.016-.144.079 0 .188m-11.305-20.328c-.117.082-.125.195-.085.32.003.008.02.016.023.012.121-.07.09-.192.063-.332m10.972 21.136c.031-.042.074-.078.098-.125.004-.011-.059-.078-.063-.074-.078.043-.199.067-.035.2m1.11-.239c-.067-.047-.125-.066-.133.043-.004.04.035.086.05.13.04-.048.079-.09.083-.173m-1.079-.601c.024.062.043.129.067.195.008.012.043.008.066.008-.035-.082.094-.223-.133-.203m-.636-.575a.332.332 0 0 1 .035-.085c-.024-.008-.05-.028-.059-.02-.05.043-.105.086-.14.14-.008.016.03.067.046.102.024-.035.055-.07.118-.137m-22.317 4.543c.086.086.13.004.176-.046.008-.008-.023-.055-.039-.086-.047.023-.09.043-.137.132m-.367.575c.031-.032.063-.059.098-.09-.043-.008-.094-.031-.125-.016-.07.035-.067.067.027.106m23.387-4.211c0 .035-.137.074-.008.093.063.008.133-.066.2-.101a.408.408 0 0 0-.192.008m-23.758-.2c.035.028.074.06.113.086.004-.05.012-.101.02-.152-.043-.004-.09-.004-.133.066m22.012-.875c.023.036.047.067.074.102l.059-.059c-.036-.027-.067-.05-.133-.043m.433-.37c.032-.008.067-.008.09-.024.027-.024.043-.063.063-.094-.036.004-.078 0-.114.016-.027.012-.05.047-.039.101m-15.48-.132c.031 0 .074.011.094-.004.03-.024.05-.067.07-.098-.027.008-.059.016-.09.027-.035.012-.07.028-.074.075m17.297.468-.024.024c0 .008.004.015.004.027.055-.02.11-.035.16-.059.008 0 .008-.027.008-.042a.381.381 0 0 0-.148.05m-2.285-.468c0 .043 0 .09-.004.132.023-.047.047-.09.004-.132m-1.45-15.45a.533.533 0 0 0 .067-.066.831.831 0 0 0-.106-.027c.004.043.004.082.04.093m2.39 15.582c.012.024.023.047.035.067.012-.02.02-.043-.035-.067m-.637-.504c-.035-.007-.074-.02-.11-.027l-.01.043c.026.008.054.012.12-.016m-22.281-18.507c.02-.012.043-.024.066-.035-.023-.012-.046-.024-.066.035Zm0 0"/></g></svg>
