<svg viewBox="9.028 9.636 43.206 88.607" xmlns="http://www.w3.org/2000/svg"><defs><clipPath id="a"><path d="M9.023 9.605h43.211v88.797H9.024Zm0 0"/></clipPath></defs><g clip-path="url(#a)"><path fill="#4a7c59" d="M21.191 21.297c-.066-.086-.117-.207-.207-.25-.125-.063-.28-.067-.418-.094-.023.106-.066.215-.058.317.02.214.066.43.094.648.007.05-.008.102-.012.152-.04-.02-.082-.039-.121-.062-.227-.149-.465-.278-.672-.45a5.147 5.147 0 0 1-.602-.601c-.156-.191-.36-.133-.523-.102-.098.02-.2.196-.223.317-.039.156-.054.355.14.45.13.058.333.171.395.124.332-.266.559.012.774.145.37.23.707.527 1.047.8.035.028.03.102.047.153-.055-.016-.11-.028-.16-.043-.051-.016-.11-.024-.157-.043-.152-.067-.297-.27-.46-.137-.055.047.019.309.093.445.578 1.067 1.125 2.137 2.156 2.899.688.508 1.36 1.035 2.086 1.488.406.254.871.305 1.293.492.098.047.18.012.211.18.129.691.293 1.371.434 2.059.062.3.093.613.129.921.16 1.434.164 2.875.097 4.313-.035.7.008 1.414-.12 2.09-.106.527-.009 1.058-.184 1.582-.137.41-.09.879-.137 1.324-.07.734-.14 1.469-.23 2.2-.051.394-.145.777-.231 1.167-.012.051-.082.09-.129.133-.031-.059-.098-.152-.09-.16.215-.191.094-.438.106-.649.015-.52.011-1.035.003-1.55-.019-1.313-.48-2.489-1.093-3.621-.239-.438-.469-.864-.532-1.391-.085-.715-.136-1.434-.234-2.145-.14-1.054-.426-2.09-1.05-3.003-.36-.528-.54-1.168-.981-1.66-.227-.258-.383-.583-.617-.833a33.087 33.087 0 0 0-1.739-1.734c-.503-.457-1.066-.84-1.593-1.27-.164-.132-.278-.324-.43-.468-.156-.14-.285-.086-.336.117a.425.425 0 0 0 0 .172c.164.793.098 1.601.3 2.398.153.606.282 1.235.372 1.856.078.55.324 1.02.52 1.511a5.767 5.767 0 0 0 1.093 1.782c.695.757 1.445 1.464 2.176 2.191.64.637 1.46 1.023 2.156 1.586a.983.983 0 0 1 .266.289c.316.594.66 1.18.914 1.805.242.593.39 1.218.492 1.867.156 1 .059 2 .086 3 .012.422-.062.848-.113 1.27-.012.081-.098.152-.149.226-.062-.055-.148-.094-.187-.164-.371-.668-.774-1.32-.93-2.086a.383.383 0 0 0-.148-.219c-.028-.023-.188.051-.184.074.059.594-.156 1.208.106 1.793.02.047 0 .114 0 .172.039.871.074 1.742.117 2.614.02.445-.012.882.093 1.336.106.457-.132.91-.289 1.355-.222.621-.394 1.254-.613 1.871-.156.45-.348.89-.531 1.328-.445 1.07-.77 2.176-1.074 3.29-.227.824-.461 1.648-.688 2.472-.215.773-.492 1.531-.59 2.34-.074.617-.316 1.21-.437 1.824-.113.574-.125 1.168-.246 1.738-.125.567-.11 1.157-.328 1.703-.04.098-.008.227-.008.34.008.52-.086 1.016-.215 1.516a4.426 4.426 0 0 0-.121 1.156c.012.934-.172 1.785-.684 2.59-.375.598-.613 1.277-.933 1.906-.473.934-.973 1.856-1.453 2.79-.239.452-.461.917-.688 1.378-.035.063-.055.13-.086.195-.023-.058-.062-.12-.062-.18-.004-2.218-.028-4.437.011-6.66.008-.37-.136-.769 0-1.1.164-.4.067-.778.09-1.165.028-.402-.043-.812.016-1.207.14-.922.023-1.852.129-2.766.07-.597.054-1.195.093-1.793.028-.441.07-.886.118-1.328.043-.43.363-.722.632-.992.508-.508 1.098-.937 1.649-1.398.172-.145.351-.282.508-.446.254-.27.5-.55.73-.843.406-.504.797-1.016.996-1.657.067-.218-.015-.148-.11-.156-.019-.004-.042-.012-.058 0-.52.313-1.043.621-1.558.945-1.082.668-1.598 1.758-2.102 2.852-.043.094-.062.207-.129.285-.144.18-.308.34-.469.512-.273-.207.063-.383.036-.586-.036-.246-.02-.496-.008-.746.035-.75.047-1.504.129-2.25.023-.227.203-.465.367-.64.441-.47.855-.99 1.55-1.106.321-.051.637-.133.954-.188.644-.11 1.183-.332 1.57-.93.266-.406.672-.734 1.047-1.058.168-.145.414-.191.621-.293.07-.031.129-.094.192-.14-.07-.036-.149-.106-.215-.102-.328.023-.668.035-.985.117-.652.168-1.308.344-1.945.574-.922.332-1.75.785-2.043 1.848-.043.152-.187.347-.387.472-.238.157-.39.442-.582.668-.031.04-.078.063-.12.09-.016-.05-.044-.101-.044-.152.04-.617.067-1.23.125-1.848.008-.097.117-.218.215-.277.887-.508 1.781-.996 2.61-1.605.742-.543 1.425-1.133 1.964-1.88.344-.48.64-.988.852-1.542.223-.575.445-1.157.66-1.735a.32.32 0 0 0 0-.172.554.554 0 0 0-.074-.187c-.008-.012-.102.02-.14.05-.286.2-.587.376-.837.61-.918.871-1.781 1.785-2.351 2.93-.207.41-.352.851-.493 1.289-.21.648-.66 1.086-1.214 1.433-.332.203-.684.383-1.024.575-.047.027-.082.07-.12.109-.02-.066-.056-.137-.052-.207.043-.559-.054-1.113.09-1.68.11-.414.035-.875.02-1.312-.012-.367.066-.668.312-.969.375-.46.719-.836 1.348-1.04.73-.237 1.484-.589 2.031-1.183.582-.636 1.328-1.039 2.027-1.5.368-.246.735-.586 1.235-.609.058-.004.148-.102.152-.16.004-.051-.082-.13-.144-.156-.422-.207-.883-.204-1.305-.086-.922.254-1.73.746-2.5 1.316-.777.574-1.332 1.336-1.934 2.066-.086.102-.183.184-.277.278-.238.25-.477.496-.715.738-.05.055-.113.098-.172.148.004-.078 0-.156.008-.238.016-.164.027-.332.05-.496.075-.504.083-1.031.247-1.508.266-.77.738-1.468 1.488-1.828 1.125-.535 2.055-1.289 2.871-2.203.657-.734 1.098-1.594 1.461-2.496.02-.043-.004-.102-.008-.156-.066.008-.152-.012-.195.023-.484.403-.96.813-1.45 1.215-.339.281-.718.516-1.034.82-.418.407-.875.805-1.164 1.297-.41.696-.93 1.301-1.407 1.938-.183.25-.433.445-.468.785-.004.035-.035.062-.055.094-.02-.032-.055-.059-.055-.086-.004-.153-.02-.309 0-.461.07-.637.106-1.282.243-1.91.093-.442-.032-.938.27-1.317.323-.406.648-.855 1.065-1.144.825-.575 1.637-1.153 2.31-1.903.57-.633.905-1.394 1.175-2.207.3-.898.348-1.808.332-2.734 0-.05-.024-.102-.035-.156-.043.027-.094.047-.121.082-.332.414-.676.82-.989 1.257-.261.36-.507.743-.707 1.137-.218.426-.375.88-.558 1.32-.383.942-.563 1.981-1.395 2.7-.347.3-.625.687-.933 1.031-.043.05-.106.086-.16.125-.012-.074-.047-.152-.032-.215.102-.512.227-1.02.32-1.531.094-.5.153-1.008.254-1.504.118-.598.305-1.188.387-1.79.086-.605.422-1.089.645-1.632.03-.082.101-.156.109-.238.043-.79.152-1.582.098-2.363a5.872 5.872 0 0 0-.617-2.204 61.428 61.428 0 0 1-.895-1.93c-.055-.124-.027-.292-.082-.425-.043-.102-.145-.184-.223-.273-.039.085-.11.175-.11.261-.007 1.719-.07 3.45.02 5.164.047.856.184 1.762.805 2.469.082.094.2.223.188.316-.04.262-.106.528-.223.766-.11.211-.082-.016-.105-.059-.184-.343-.352-.703-.555-1.03-.422-.673-.88-1.321-1.293-1.993a7.464 7.464 0 0 1-.91-2.148c-.02-.086-.075-.16-.106-.243-.035-.093-.058-.191-.094-.293-.085.102-.242.2-.246.305-.02.531-.015 1.067.004 1.602.004.18.098.355.094.53-.027 1.071.45 1.954 1.043 2.782.285.395.64.735.973 1.094.086.09.195.164.3.23.184.106.485.164.532.309.09.258.097.59.011.848-.246.785-.336 1.59-.445 2.398-.004.035-.023.066-.035.098-.04-.024-.102-.04-.117-.078-.063-.125-.11-.262-.168-.391a7.977 7.977 0 0 0-1.457-2.156c-.434-.457-.817-.961-1.223-1.442-.05-.054-.11-.101-.164-.156-.016.09-.047.176-.047.266-.035 1.304.656 2.246 1.578 3.054.285.246.64.407.938.641.3.234.484.527.476.95-.015.706-.07 1.398-.226 2.09-.102.448-.086.921-.13 1.386-.003.07-.026.14-.042.21l-.07-.234c-.036-.156-.047-.332-.121-.468-.336-.625-.426-1.32-.583-2-.097-.422-.34-.813-.527-1.211-.363-.793-1.094-1.242-1.695-1.817-.223-.207-.43-.43-.645-.636-.039-.036-.101-.036-.152-.051-.016.062-.063.136-.047.187.258.754.484 1.52.797 2.254.187.422.484.809.793 1.16.398.457.84.883 1.285 1.297.34.317.395.754.578 1.14.27.552.41 1.118.305 1.704-.266 1.531-.215 3.078-.223 4.617 0 .05-.031.102-.047.153-.02-.047-.047-.086-.062-.137-.04-.114-.098-.235-.113-.352-.125-1.187-.27-2.37-.922-3.406-.438-.688-.91-1.332-1.551-1.895-.633-.546-1.352-.906-2.04-1.336-.284-.18-.491-.468-.745-.703-.047-.047-.13-.062-.192-.09-.02.063-.058.13-.062.2-.016.386.031.75.293 1.086.25.32.383.73.625 1.054.75 1.036 1.55 2.02 2.742 2.606.387.191.7.52 1.07.75.336.207.36.558.422.86.133.632.195 1.277.457 1.878.063.145.051.344.012.508-.223.992-.05 2-.11 2.996-.007.188-.027.375-.039.563-.093-.165-.195-.317-.28-.48-.325-.618-.512-1.282-.716-1.946-.324-1.078-.867-2.043-1.73-2.778-.723-.617-1.55-1.046-2.527-1.093-.371-.016-.657.191-.918.418-.137.117-.188.187.074.28 1.23.43 2.375 1.036 3.32 1.95.574.559.965 1.262 1.332 1.973.082.16.164.351.305.441.371.235.492.637.719.961.507.719.332 1.531.336 2.32 0 .2.015.403.011.602 0 .043-.047.09-.074.133-.05-.035-.133-.063-.148-.11-.114-.332-.325-.632-.649-.675-.414-.051-.87-.13-1.262.113-.308.191-.593.422-.878.644-.38.293-.739.61-1.13.891-.402.29-.87.348-1.355.242-.066-.015-.144-.078-.195-.062a.562.562 0 0 0-.266.172c-.023.035.055.168.114.226.355.344.82.446 1.277.504a3.579 3.579 0 0 0 1.797-.226c.281-.11.55-.282.777-.477.387-.34.723-.727 1.098-1.078.086-.082.285-.184.324-.149.176.149.402.325.445.524.09.453.082.945-.011 1.387-.075.375-.07.738-.086 1.105-.043 1.172-.008 2.352-.141 3.508-.09.777-.027 1.543-.094 2.312-.238 2.72-.043 5.442-.117 8.16-.008.372-.008.743.016 1.11.023.418-.094.8-.285 1.152-.56 1.035-.954 2.13-1.34 3.235-.328.933-.746 1.832-1.082 2.765a123.083 123.083 0 0 0-1.262 3.668c-.191.574-.336 1.16-.484 1.75-.02.078.062.184.097.278.055-.067.137-.125.16-.204.176-.597.336-1.199.512-1.796.414-1.395.93-2.75 1.469-4.098.547-1.363 1.004-2.762 1.52-4.137.167-.445.394-.867.605-1.297.027-.054.105-.082.16-.12.012.054.031.105.031.155.012.485-.05.973.117 1.446.082.234-.05.46-.02.71.099.747.09 1.5.138 2.247.023.406.117.812.097 1.215-.008.242.016.472.016.71 0 .25-.008.5.004.747.02.386-.07.78.105 1.164.098.218-.039.46-.011.707.085.8.074 1.613.136 2.418.145 1.746.11 3.492.106 5.238 0 .387-.078.773-.106 1.16-.004.063.07.137.11.207.039-.07.101-.133.113-.203.16-1.11.113-2.223.117-3.34.004-.476-.004-.957 0-1.433a23.29 23.29 0 0 0-.215-3.297 4.376 4.376 0 0 1-.02-.88 5.777 5.777 0 0 0 0-.972c-.105-1.101-.054-2.203-.128-3.3-.09-1.31-.188-2.614-.238-3.926-.016-.457-.075-.926-.086-1.387 0-.11.011-.227.058-.32 1.086-2.153 2.18-4.301 3.27-6.454.039-.082.074-.16.117-.238.012-.031.039-.055.062-.078.016.031.047.063.051.094.004.113 0 .226 0 .344 0 .761-.012 1.53.004 2.293a82.58 82.58 0 0 0 .117 3.113c.043.754.078 1.52.239 2.254.21.945.273 1.914.66 2.824.261.61.586 1.18.922 1.746.41.695 1.027 1.207 1.5 1.844.047.062.183.133.234.105.145-.074.145-.18.02-.308-.149-.16-.254-.364-.41-.516-1.055-.996-1.669-2.262-2.176-3.578-.176-.445-.22-.945-.301-1.422-.125-.695-.235-1.398-.348-2.098-.012-.074.004-.156 0-.23-.156-1.758-.12-3.524-.11-5.29.005-.671.063-1.347.118-2.019.012-.152.102-.3.184-.437.593-.992 1.062-2.051 1.585-3.078.34-.664.704-1.313 1.051-1.977.223-.418.657-.441 1.028-.543.328-.09.636-.058.964.219.286.238.766.277 1.168.332.856.121 1.676-.14 2.485-.375.742-.215 1.484-.273 2.219-.059.25.07.445.317.66.485.047.039.082.097.12.144.028-.094.114-.215.079-.273a4.046 4.046 0 0 0-.48-.719c-.43-.488-.915-.934-1.489-1.254a2.893 2.893 0 0 0-.945-.34c-1.317-.199-2.465.203-3.508.996-.398.309-.86.508-1.36.598-.05.012-.113 0-.163.016-.133.043-.262.093-.391.144.047-.152.059-.324.137-.46.636-1.06 1.25-2.134 1.945-3.153.45-.656.871-1.316 1.266-2.004.097-.172.265-.27.507-.3.372-.052.711-.231 1.11-.227.383.004.758.07 1.043.258.46.308 1 .398 1.484.406.567.011 1.164-.176 1.684-.473.765-.437 1.426-1.012 2.008-1.664.214-.242.449-.484.418-.86-.016-.199-.063-.234-.239-.124-.336.199-.675.398-1.027.566-.621.29-1.281.445-1.965.531-.66.086-1.332.172-1.976.36-.329.097-.598.398-.887.62-.133.102-.238.274-.403.052-.402.093-.804.187-1.199.285l-.199.035.094-.164c.293-.508.652-.977.863-1.54.234-.62.688-.991 1.375-1.187.984-.281 1.965-.453 2.98-.418.426.02.848.082 1.274.114.895.058 1.738-.168 2.586-.41.566-.169 1.152-.301 1.601-.704.438-.394.922-.777 1.227-1.265.402-.637.773-1.305.98-2.059.188-.7.188-1.394.188-2.098 0-.043-.055-.082-.082-.125-.047.04-.125.07-.14.121-.215.606-.575 1.122-.985 1.602-.266.313-.559.606-.805.93-.414.547-1.008.66-1.617.668-.594.011-1.195-.051-1.789-.11-.605-.058-1.145.184-1.715.297-1.078.215-1.969.762-2.793 1.438-.41.336-.758.746-1.137 1.125-.066.066-.132.136-.203.203-.02.012-.074.02-.078.012-.015-.032-.035-.082-.023-.102.312-.52.586-1.074.957-1.55a18.54 18.54 0 0 0 1.496-2.313c.328-.594.738-1.145 1.039-1.75.324-.657.54-1.352.656-2.09.07-.414-.023-.797-.027-1.192 0-.226-.11-.203-.246-.078-.29.258-.625.489-.875.778-.36.414-.684.855-.98 1.316-.505.781-.821 1.652-1 2.57-.133.668-.313 1.325-.45 1.993-.047.234-.02.484-.058.722-.06.34-.211.633-.395.93-.277.453-.469.953-.7 1.43-.05.097-.109.183-.163.277-.024-.098-.07-.2-.063-.293.051-.648.156-1.305.469-1.871.293-.531.367-1.117.562-1.664.215-.61.418-1.223.332-1.867-.128-.973-.34-1.922-1.062-2.66-.05-.055-.129-.098-.156-.165-.059-.144-.192-.28.027-.441.852-.637 1.684-1.297 2.531-1.937.328-.25.692-.458 1.028-.696.215-.156.379-.152.593.02.782.613 1.528 1.293 2.47 1.664.413.16.85.25 1.273.394.859.29 1.625-.054 2.402-.343.586-.215 1.184-.383 1.77-.579.136-.046.265-.105.386-.175.074-.043.156-.106.031-.203-.218-.168-.406-.399-.652-.512-.18-.082-.164-.106-.066-.227.043-.054.05-.148.101-.183.164-.11.239-.434.477-.344.32.125.726.21.691.723-.015.254.203.421.504.46.332.047.598-.085.703-.351.102-.25.016-.61-.183-.742a.356.356 0 0 0-.207-.051c-.38.059-.653-.172-.965-.305-.25-.105-.238-.207-.13-.406.184-.324.356-.652.528-.984.035-.07.074-.211.051-.227-.328-.234-.133-.394.059-.574.101-.098.16-.242.25-.356.062-.078.125-.183.25-.035.039.047.183-.004.273.016.273.066.492-.086.55-.285.056-.176-.007-.473-.136-.598-.14-.14-.387-.246-.648-.094-.262.157-.262.133-.34.57-.024.13-.14.247-.235.356-.097.117-.28.207-.308.332-.074.363-.336.309-.567.285-.355-.035-.417-.175-.195-.453.336-.402.703-.781 1.047-1.176.066-.074.094-.183.137-.273-.086-.016-.176-.043-.27-.043-.824-.004-1.648 0-2.469-.008-.074 0-.152-.05-.23-.082.035-.062.055-.14.105-.183.165-.145.352-.27.512-.418.297-.29.625-.567.86-.907.152-.226.34-.289.558-.359.133-.043.274-.094.38-.184.28-.246.304-.433.116-.668-.281-.343-.48-.394-.785-.136-.21.175-.492.351-.266.718.04.063-.02.227-.082.297-.3.32-.617.63-.933.934-.012.016-.113-.02-.117-.035a1 1 0 0 1-.004-.285c.05-.36.031-.395-.278-.41-.421-.024-.425-.024-.296-.434.074-.238.175-.473.222-.711.031-.14-.008-.297-.031-.445-.008-.047-.078-.082-.117-.121-.024.039-.07.078-.067.113.035.492-.257.89-.355 1.351-.05.227-.219.383-.492.36a.917.917 0 0 0-.274.027c-.367.098-.433.043-.375-.34.04-.254.082-.504.114-.758.035-.265-.184-.238-.29-.175-1.175.668-2.32 1.394-3.156 2.48-.441.57-.804 1.219-.922 1.965-.039.25-.129.484-.187.727-.024.105-.078.253-.031.324.238.347.039.613-.118.898-.058.106-.062.242-.12.352-.118.199-.169.402-.485.504-.43.136-.785.504-1.172.77-.879.6-1.75 1.21-2.523 1.948-.145.141-.293.196-.43.036a35.376 35.376 0 0 1-.973-1.204c-.02-.023.059-.105.07-.164.235-1.035.747-1.949 1.192-2.898.43-.91.824-1.84 1.266-2.746.273-.559.605-1.09.93-1.621a1 1 0 0 1 .671-.45c.344-.062.692-.136 1.035-.128.618.011 1.11-.192 1.621-.547.786-.543 1.555-1.153 2.508-1.426.082-.023.13-.16.196-.242-.098-.032-.196-.102-.286-.09-1.09.144-2.187.074-3.28.125-.337.016-.665.23-.997.355-.074.024-.156.036-.234.055.039-.055.078-.105.113-.164.555-.824 1.125-1.637 1.66-2.469.336-.523.7-1.05.922-1.629.305-.8.957-1.218 1.59-1.672.226-.164.5-.27.746-.414.57-.332 1.164-.406 1.789-.168.05.016.113 0 .172 0 .96.04 1.922.075 2.883.118.468.023.937.097 1.406.105.848.02 1.656-.207 2.477-.387 1.25-.277 2.242-1.023 3.23-1.761.582-.43 1.105-.938 1.656-1.414.059-.051.125-.098.16-.164.086-.153.243-.43.211-.454-.172-.136-.304.067-.457.137-.55.238-1.093.504-1.652.723a3.515 3.515 0 0 1-.941.219c-.766.062-1.536.085-2.305.12-.25.012-.496-.003-.746.005-.91.035-1.824.039-2.727.125-.644.058-1.312.14-1.918.351-.804.285-1.636.602-2.238 1.242-.516.551-1.133.942-1.73 1.371-.18.125-.348.274-.524.399-.05.039-.129.039-.195.055.023-.055.047-.114.074-.165.273-.46.527-.937.82-1.382.723-1.082 1.45-2.16 2.192-3.227.675-.969 1.343-1.945 2.086-2.863.293-.36.57-.781 1.054-.996.325-.149.547-.508.86-.707a72.327 72.327 0 0 1 2.851-1.707c1.328-.743 2.594-1.578 3.551-2.774.617-.773 1.21-1.57 1.684-2.453.496-.93 1.007-1.855 1.59-2.726.425-.672.996-1.266 1.507-1.899.063-.082.102-.18.149-.277-.117.011-.254-.024-.348.027-.469.258-.926.535-1.387.805-.937.547-1.86 1.11-2.855 1.554-.797.352-1.52.883-2.242 1.375-.961.657-1.868 1.415-2.489 2.399-.547.863-1.18 1.691-1.5 2.703-.168.531-.515 1.008-.765 1.52-.207.43-.375.878-.582 1.308-.106.227-.211.48-.39.637-.997.883-1.673 2.02-2.466 3.058a43.33 43.33 0 0 0-1.18 1.637c-.203.293-.374.61-.574.91-.039.059-.105.102-.16.153-.015-.067-.07-.153-.047-.203.29-.618.184-1.274.23-1.918a4.92 4.92 0 0 1 .903-2.489c.582-.808 1.004-1.687 1.379-2.59.223-.539.406-1.101.547-1.668.098-.406.137-.84.144-1.261.016-1.375.02-2.758-.007-4.133-.004-.254.101-.496.03-.77-.062-.254-.026-.535.079-.816.09-.254.027-.57.016-.855-.004-.094-.059-.192-.09-.286-.098.036-.219.047-.297.11-.984.777-1.906 1.625-2.504 2.742-.34.637-.625 1.312-.844 2-.172.535-.16 1.117-.289 1.664-.195.805-.074 1.617-.105 2.422-.032.703.07 1.394.203 2.09.101.531.152 1.082.254 1.625.027.14.101.273.11.414.023.422.339.77.25 1.246-.083.445.038.926-.028 1.375-.106.687-.25 1.383-.465 2.047-.129.398-.41.746-.629 1.113-.687 1.152-1.367 2.309-2.074 3.445-.492.797-1.031 1.563-1.535 2.352-.246.39-.485.793-.668 1.219-.075.164-.164.23-.29.336-.581.492-1.175.98-1.456 1.734-.047.133-.188.23-.297.336-.512.512-1.024 1.016-1.344 1.684-.023.05-.102.074-.156.113-.012-.074-.047-.153-.028-.215.16-.512.203-1.04.23-1.57.067-1.086.231-2.157.571-3.203.29-.899.61-1.782.922-2.665.2-.57.594-1.05.7-1.668.019-.117.234-.27.37-.285.434-.054.743-.308 1.028-.578.648-.613.988-1.402 1.226-2.246.227-.8.453-1.61.692-2.41.05-.168.164-.316.218-.48.024-.075-.023-.176-.043-.266-.066.023-.148.027-.195.07-.746.7-1.52 1.371-2.215 2.117-.656.7-1.07 1.567-1.312 2.493-.07.253.004.558.058.828.059.28.051.527-.066.797-.445 1.058-.973 2.09-1.297 3.195-.133.445-.21.906-.316 1.36-.012.05-.035.1-.055.148-.02-.047-.063-.094-.055-.137.059-.559-.136-1.133.11-1.68.02-.047.027-.133 0-.164-.22-.273-.13-.597-.09-.87a3.093 3.093 0 0 0-.008-.829c-.082-.59-.043-1.2-.14-1.785-.118-.75-.176-1.508-.391-2.246-.102-.34-.215-.73.05-1.102.391-.558.614-1.18.587-1.883-.008-.332.097-.668.101-1.004.023-1.015-.25-1.964-.723-2.855-.285-.54-.5-1.129-.972-1.55-.074-.063-.133-.169-.211-.18-.098-.02-.281-.094-.278.152 0 .058-.109.12-.195.21-.066.22-.098.415-.144.602-.012.055-.051.102-.078.153-.032-.067-.094-.133-.094-.2 0-.14.043-.28.043-.421.004-.09-.028-.18-.047-.274.098.04.195.074.293.113-.028-.082-.035-.191-.086-.25-.3-.34-.285-.714-.211-1.132.062-.38.375-.668.305-1.09-.032-.176-.036-.375-.23-.387-.227-.012-.528-.137-.673.148-.086.165-.297.368-.035.586.238.196.246.473.238.758-.007.461-.015.922.004 1.38.008.214.082.429.106.64.008.086-.035.176-.051.262-.066-.063-.133-.13-.2-.192-.429-.422-.312-.96-.316-1.476 0-.051.012-.114.043-.153.2-.219.2-.215-.054-.36-.133-.073-.25-.171-.227.114.027.285.008.574.004.86-.004.058-.055.117-.082.175-.063-.031-.14-.054-.188-.101-.273-.305-.539-.621-.816-.922-.11-.125-.293-.063-.281.097.047.633-.14 1.282.105 1.907a.187.187 0 0 1 0 .113c-.02.059-.058.113-.09.172-.046-.043-.113-.074-.136-.125-.16-.375-.305-.754-.461-1.129-.09-.203-.149-.363-.051-.613.207-.524-.121-.934-.648-.883a.597.597 0 0 0-.29.125c-.285.21-.148.523-.144.789.004.078.242.148.371.23.125.075.293.125.356.239.195.36.355.734.511 1.105.008.024-.105.098-.195.176.484.144.75.508.762.988.011.524.125 1 .359 1.461.012.027-.004.074-.004.11-.043-.008-.101.003-.121-.02-.516-.672-1.355-1.121-1.414-2.102-.012-.18-.035-.359-.055-.539.157.02.305.043.453.063m6.778 34.508c.039-.016.078-.04.113-.114.18-.21.328-.453.54-.625.362-.3.757-.558 1.144-.828.5-.343.996-.707 1.582-.886.394-.125.804-.184 1.199-.293.465-.13.945-.282 1.41-.168.64.156 1.273.07 1.906.097.375.016.742-.093.996-.351.563-.57 1.23-1.055 1.594-1.801.086-.18.238-.324.36-.484-.016.183-.036.367-.051.546-.008.137.031.278-.004.403a7.893 7.893 0 0 1-1.766 3.168c-.351.383-.828.562-1.304.73-.782.281-1.56.567-2.41.547-.458-.012-.923-.039-1.376.008-.453.047-.882-.113-1.343-.035-.235.039-.508.039-.762.039-.266-.004-.531.094-.793.156-.262.063-.516.133-.774.2-.046.011-.097.007-.148.011.02-.05.027-.125.059-.148.562-.301 1.105-.649 1.699-.88.558-.214 1.18-.359 1.777-.253.555.093 1.07.074 1.633.004.855-.11 1.52-.598 2.246-.957.082-.04.113-.18.168-.27-.113.016-.234.012-.328.059-.332.172-.64.383-.98.547-.567.28-1.196.464-1.805.445-.473-.012-.961-.078-1.446-.078a4.097 4.097 0 0 0-2.773 1.062c-.062.055-.168.059-.25.145-.039.015-.078.039-.117.113l-.184.047c-.008-.023-.011-.05-.02-.074.075-.004.141-.012.208-.082m1.148-2.754-.035.144-.074-.023c.035-.059.07-.121.11-.238 0-.055-.02-.121 0-.168.484-1.082.968-2.164 1.46-3.243a6.76 6.76 0 0 1 .379-.703c.055-.097.152-.183-.008-.246-.047-.015-.164.035-.191.086-.172.29-.34.586-.488.887-.332.668-.653 1.328-.872 2.05-.18.59-.554 1.118-.628 1.75-.008.04-.102.067-.157.102-.02-.062-.062-.129-.05-.187.062-.278.144-.551.207-.828.136-.579.226-1.164.402-1.727.433-1.402 1.164-2.625 2.305-3.578.039-.031.078-.066.12-.094.016.05.04.102.044.153.058 1.011-.309 1.921-.735 2.792-.379.77-.851 1.485-1.289 2.223-.156.266-.332.524-.5.848m-1.379-.344-.031.145c-.023-.008-.05-.012-.074-.024a.936.936 0 0 0 .105-.238c0-.36-.011-.727.004-1.09.035-.852-.305-1.586-.742-2.273-.496-.782-1.043-1.52-1.574-2.278-.258-.37-.512-.746-.778-1.113-.03-.047-.125-.05-.187-.07-.008.066-.047.152-.02.191.59.871 1.157 1.754 1.79 2.59.937 1.238 1.44 2.558 1.18 4.152-.13.766-.47 1.485-.485 2.274 0 .03-.074.082-.113.082-.036 0-.106-.059-.106-.086-.016-.567-.332-1.012-.578-1.485-.25-.472-.496-.945-.75-1.41-.93-1.687-1.445-3.476-1.32-5.422.015-.27.015-.535-.004-.804-.008-.16-.075-.317-.094-.477-.05-.383-.09-.766-.129-1.148-.004-.051.02-.106.031-.16.028.05.055.101.078.152.204.394.36.824.622 1.172a49.6 49.6 0 0 0 2.187 2.765c.508.59.945 1.172 1.11 1.957.148.696.245 1.47.085 2.036-.039.171-.136.335-.207.562m-4.707.805c.106-.301.297-.598.309-.903.02-.664.46-1.027.87-1.425.247-.235.384-.2.513.113.191.476.437.93.687 1.379.27.476.559.957.766 1.46.328.79.578 1.587.558 2.481-.015.664-.214 1.223-.53 1.742-.782 1.29-1.579 2.575-2.438 3.813-1.27 1.824-2.215 3.824-3.258 5.77-.41.765-.77 1.554-1.156 2.335-.055.114-.13.215-.204.317-.02.031-.05.054-.078.082-.02-.031-.05-.063-.054-.094-.008-.074-.02-.156 0-.23.183-.801.34-1.61.347-2.438.004-.348.055-.7.114-1.047.144-.855.296-1.71.457-2.562.105-.547.222-1.098.343-1.64.145-.626.301-1.255.461-1.876.25-.965.485-1.937.785-2.89a99.4 99.4 0 0 1 1.508-4.387M41.004 20.84c-.11.148-.211.297-.332.437-.02.028-.117.024-.145-.004-.035-.023-.054-.113-.035-.144.106-.168.238-.32.336-.492.652-1.18 1.067-2.477 1.809-3.61.453-.703.828-1.46 1.46-2.03.192-.173.419-.31.598-.493.86-.856 1.883-1.48 2.946-2.035 1.082-.578 2.238-1.028 3.207-1.813.035-.031.101-.027.156-.035.035-.004.074.008.11.008-.009.039 0 .09-.028.117-.16.184-.36.34-.492.543-.73 1.145-1.403 2.32-2.082 3.496-.64 1.098-1.387 2.121-2.356 2.98-.738.66-1.593 1.118-2.426 1.622-.71.43-1.488.754-2.078 1.363-.05.059-.164.066-.25.086-.027.008-.062-.02-.097-.035.015-.028.023-.059.043-.078.43-.508.84-1.043 1.3-1.524 1.329-1.387 2.676-2.754 4.012-4.133l.164-.164c.028-.027.07-.05.078-.082.008-.05.008-.12-.023-.148-.027-.027-.113-.04-.149-.016-.203.156-.421.305-.597.485-.86.882-1.711 1.777-2.559 2.668-.57.601-1.152 1.195-1.699 1.82-.305.36-.547.77-.871 1.21m-21.418 9.59c.078.16.156.317.23.477.356.774.641 1.582 1.082 2.305.594.969 1.309 1.867 1.965 2.8.032.048.012.13.016.196-.055-.031-.117-.055-.168-.094-.465-.355-.945-.695-1.387-1.082-.437-.386-.828-.824-1.246-1.234-1.062-1.035-1.754-2.281-2.183-3.688a8.595 8.595 0 0 1-.243-1.043 40.418 40.418 0 0 1-.242-1.68c-.055-.437-.082-.886-.12-1.323-.009-.06-.04-.11-.06-.165.063.024.149.028.192.07.316.31.59.673.941.919.934.652 1.766 1.39 2.5 2.265.844 1.008 1.473 2.121 2.008 3.301.406.899.625 1.852.621 2.84-.004.406.031.805.188 1.184.023.058 0 .128 0 .195-.063-.04-.149-.063-.184-.113-.465-.707-.926-1.418-1.39-2.118-.399-.601-.876-1.16-1.2-1.8-.527-1.036-.957-2.125-1.433-3.192a.67.67 0 0 0-.164-.215c-.024-.023-.102 0-.149.02-.02.012-.039.074-.027.098.144.324.3.644.453 1.078m18.719-17.797c0 .613.011 1.222-.004 1.832-.031 1.23-.063 2.457-.121 3.683-.012.301-.114.598-.2.887-.148.512-.285 1.031-.488 1.52-.293.683-.64 1.34-.969 2.008-.023.042-.078.074-.12.109-.016-.067-.063-.149-.044-.207.063-.203.176-.395.22-.594.132-.621.32-1.219.378-1.863.047-.54.211-1.074.2-1.63-.005-.417.011-.839 0-1.26a459.133 459.133 0 0 0-.118-3.278c-.004-.121-.062-.242-.117-.352-.024-.05-.102-.074-.149-.105-.027.043-.074.09-.07.133.031.347.117.695.106 1.043-.036.968.101 1.933.12 2.898.016.8-.132 1.582-.218 2.371-.086.723-.305 1.406-.45 2.11-.136.671-.628 1.222-.597 1.937 0 .023-.039.063-.066.082-.035.031-.082.055-.121.082-.012-.031-.036-.066-.036-.098-.078-.484-.164-.968-.23-1.453-.055-.383-.059-.773-.148-1.144-.094-.41-.196-.809-.204-1.235-.015-1.363.043-2.707.336-4.05.235-1.063.645-2.047 1.262-2.914.477-.672 1.117-1.227 1.684-1.832.039-.043.082-.098.129-.106.035-.004.117.059.117.082-.028.406-.059.816-.082 1.344m1.836 28.015-1.055 1.168c-.516.586-.98 1.227-1.55 1.754-.556.52-1.192.961-1.833 1.371-.39.25-.848.418-1.34.356-.367-.043-.738-.043-1.097-.121-.61-.13-1.211-.301-1.809-.473-.05-.016-.125-.14-.11-.191.063-.203.13-.41.239-.586.793-1.254 1.719-2.367 3.187-2.875.332-.117.664-.25 1.004-.34.262-.07.54-.113.809-.117a64.267 64.267 0 0 1 3.555.054m7.75-13.375a24.888 24.888 0 0 1-2.176 1.52c-1.192.742-2.477 1.07-3.84 1.105-.977.028-1.957.079-2.938-.085-.718-.118-1.457-.09-2.19-.13-.048-.003-.099-.03-.153-.046.039-.024.078-.051.117-.067.7-.28 1.406-.53 2.172-.578.254-.015.5-.008.765-.09.348-.101.762-.074 1.133-.004a6.43 6.43 0 0 0 2.809-.09c.289-.074.55-.23.824-.363.05-.023.063-.12.09-.187-.078 0-.164-.04-.227-.008a3.918 3.918 0 0 1-1.898.406c-1.05-.027-2.106-.05-3.156.012-.547.027-1.121.027-1.649.297-.36.187-.754.308-1.133.453-.046.02-.105.02-.156.031.024-.054.028-.129.063-.16a7.48 7.48 0 0 1 1.71-.996c.794-.332 1.602-.555 2.462-.559.312-.004.648.02.933-.035.41-.074.817-.062 1.219-.086.058-.004.121.012.172-.004.586-.25 1.195-.05 1.789-.101.113-.012.242.113.355.101.446-.058.89-.187 1.34-.21.625-.04 1.2-.212 1.734-.528a3.82 3.82 0 0 1 .333-.172c.023-.012.066.02.101.028-.012.027-.012.066-.027.082-.172.136-.344.27-.578.464m-22.22-.402c-.038-.254-.058-.508-.116-.758a8.679 8.679 0 0 0-.856-2.164c-.027-.05-.082-.078-.12-.117-.017.066-.067.148-.052.203.106.3.243.59.344.89.234.688.461 1.376.684 2.071.039.125.043.258.066.387-.082-.113-.172-.227-.242-.348-.035-.062-.031-.14-.055-.21-.304-.907-.613-1.81-.926-2.716-.023-.062-.105-.109-.16-.16-.02.063-.07.137-.054.188.105.375.207.754.34 1.12.136.384.308.755.456 1.134.016.043-.011.105-.02.16-.03-.043-.065-.086-.089-.13-.308-.542-.613-1.085-.918-1.624a3.23 3.23 0 0 0-.172-.274c-.015-.02-.09-.023-.105-.003-.02.023-.024.078-.008.109l.398.808c.317.63.68 1.227 1.141 1.766.066.082.113.18.164.277.016.036.02.079.031.122-.05-.004-.12.007-.152-.02-.117-.098-.215-.293-.332-.3-.676-.052-.867-.641-1.18-1.055a6.798 6.798 0 0 1-1.218-2.598c-.133-.582-.266-1.16-.348-1.758-.027-.18-.063-.375-.024-.543.118-.496.16-.976-.023-1.469-.027-.074.02-.18.031-.265.09.039.207.058.274.125.277.297.543.61.812.918.274.312.61.582.801.933.625 1.153 1.316 2.282 1.621 3.575.14.597.348 1.207.242 1.847-.008.043-.054.082-.09.125-.035-.058-.058-.125-.144-.246m7.637 19.348a383.94 383.94 0 0 1-1.63-1.059c-.03-.023-.023-.101-.034-.152.043.004.085 0 .125.015.789.372 1.664.414 2.496.61.175.043.39.039.558-.024.617-.234 1.242-.48 1.73-.933.266-.25.497-.211.739-.063.613.367 1.219.758 1.82 1.145.047.035.075.101.11.156-.043.023-.086.055-.133.07-.688.235-1.383.45-2.063.696-.785.277-1.582.336-2.379.101-.441-.129-.859-.332-1.34-.562m-1.32-3.387c-.093.094-.234.285-.265.27-.243-.122.082-.223.039-.356a.287.287 0 0 1 0-.172c.125-.465.199-.949.39-1.386.7-1.567 2.067-2.465 3.446-3.336.035-.024.105 0 .152.015.02.012.035.07.027.098-.066.316-.129.633-.21.945-.114.43-.204.871-.376 1.278-.125.285-.273.546-.675.66a3.155 3.155 0 0 0-1.414.867c-.348.363-.707.707-1.114 1.117M25.5 65.855c-.43.024-.832-.082-1.234-.203-.067-.02-.13-.054-.196-.078.067-.062.137-.172.203-.172.559.004 1.051-.242 1.582-.347.598-.118 1.172-.301 1.743-.5.132-.043.242-.157.363-.239-.156-.023-.313-.046-.465-.066-.02-.004-.035.004-.05.012-.493.289-1.044.351-1.59.465-.708.148-1.383.441-2.07.664-.048.015-.102-.02-.157-.032.027-.043.047-.093.086-.12.836-.587 1.707-1.126 2.723-1.317.453-.086.972-.09 1.402.05.703.239 1.305.704 1.836 1.235.047.043.074.106.11.16-.071.008-.161.051-.216.024-.316-.164-.644-.278-.996-.22-.55.095-1.12.153-1.625.364-.394.164-.77.207-1.18.207-.074 0-.144.035-.269.113m-.863-44.613c.078-.219.144-.437.234-.648.055-.117.152-.219.23-.328.102.082.208.16.297.25.036.03.016.109.047.148.547.633.785 1.434 1.106 2.176.219.52.281 1.148.242 1.719-.027.402-.016.82-.094 1.214-.101.48-.297.946-.449 1.415-.008.03-.043.05-.063.074-.019-.032-.05-.063-.046-.09.015-.086.05-.172.062-.262.094-.496.254-.992.258-1.488.004-.559-.133-1.121-.219-1.68-.008-.055-.148-.144-.16-.137-.098.082-.148.172-.187-.054-.032-.203-.141-.399-.227-.586-.016-.035-.098-.04-.148-.059.007.051.003.102.02.149.155.547.339 1.086.468 1.636.055.227-.016.48-.028.727-.062-.211-.128-.422-.187-.637-.016-.074.012-.16-.016-.222-.336-.758-.617-1.555-1.043-2.258-.226-.36-.285-.64-.097-1.059m4.941 8.383c.39-.582.785-1.16 1.168-1.746.043-.063.043-.156.063-.234-.075.023-.16.03-.235.074a.42.42 0 0 0-.16.16c-.465.855-1.184 1.574-1.422 2.558-.015.063-.105.11-.16.165-.02-.067-.062-.137-.055-.2.051-.28.114-.562.18-.84.215-.933.797-1.652 1.418-2.328.418-.457.906-.843 1.367-1.261.028-.024.078-.02.117-.032-.004.051-.004.106-.015.153-.219.695-.492 1.37-.649 2.078-.234 1.07-.808 1.902-1.617 2.594-.105.09-.25.136-.387.172-.054.015-.257.093-.113-.145.203-.332.336-.7.5-1.168m-2.183 11.828c-.192.422-.348.856-.575 1.254-.36.633-.672 1.285-.914 1.973-.136.383-.25.777-.383 1.164-.015.05-.101.086-.156.125-.012-.055-.043-.11-.035-.157.012-.105.047-.207.078-.308.149-.457.332-.902.438-1.367.16-.707.308-1.418.382-2.137.036-.363.137-.668.32-.96.153-.25.305-.505.505-.708.52-.531.879-1.215 1.554-1.59.047-.027.11-.035.16-.05 0 .058.024.12 0 .167-.039.082-.113.149-.156.227-.293.508-.59 1.016-.87 1.531a4.74 4.74 0 0 0-.348.836m4.707 16.418c.418-.156.847-.289 1.183-.605.047-.043.106-.078.16-.118-.02.082-.027.164-.058.235-.047.101-.09.203-.164.277-.637.668-1.309 1.266-2.176 1.664-.934.426-1.809.43-2.707-.02a.798.798 0 0 0-.145-.058c.051-.02.102-.05.149-.055.46-.004.922.004 1.379-.004.144-.003.304-.011.425-.07.48-.23.95-.48 1.418-.738.04-.02.04-.117.051-.184-.047-.015-.113-.054-.148-.035-.242.113-.473.25-.715.356-.582.261-1.145.66-1.836.332-.063-.028-.176-.024-.219.015-.168.153-.328.13-.504.035.133-.097.258-.207.399-.28.125-.063.273-.09.41-.118a64.136 64.136 0 0 0 3.098-.629m-1.204-20.379c.395-.023.688-.277 1.02-.449.023-.016.039-.055.062-.082-.035-.016-.062-.043-.097-.043-.094-.008-.203-.031-.285 0-.59.234-1.188.46-1.766.727-.305.14-.582.347-.875.52-.039.019-.102-.009-.156-.013.02-.043.035-.086.062-.125.52-.672 1.242-1.093 2-1.394.473-.188.98-.414 1.563-.2.27.102.625-.015.941-.042.106-.008.215-.047.324-.043.079 0 .157.039.235.062-.055.055-.098.133-.164.16-.668.246-1.196.723-1.782 1.098a2.727 2.727 0 0 1-1.27.398c-.401.036-.804.086-1.206.133-.05.004-.102.02-.152.028.03-.051.05-.137.101-.157.457-.18.922-.351 1.445-.578m-7.12-10.68c-.31-.23-.637-.437-.919-.699-.476-.433-.914-.914-1.379-1.363-.437-.426-.648-.988-.93-1.508-.038-.066-.085-.137-.124-.203.09 0 .191-.023.265.012.649.277 1.164.75 1.676 1.215.098.09.137.246.203.37.203.415.387.837.621 1.235.184.313.426.594.586.942M37.672 38.87c.238.102.039.266.062.395.063.39-.187.578-.464.754-.274.171-.52.398-.887.347-.278-.039-.059-.137-.028-.191.204-.356.403-.715.618-1.067.129-.207.336-.28.699-.238m.746 4.762-.54.035c.099-.125.196-.246.298-.367.203-.242.394-.492.613-.719.2-.21.45-.21.688-.035.027.016.054.086.046.094-.347.316-.699.625-1.105.992m-3.102-3.098c.121-.351.223-.707.368-1.047.082-.187.226-.351.453-.386.183-.028.37-.043.554-.063-.078.16-.129.344-.242.469a7.889 7.889 0 0 1-1.133 1.027m3.848 3.387c-.125-.012-.254-.027-.383-.04.082-.093.157-.19.246-.28.2-.207.403-.407.606-.61.066-.066.125-.156.203-.191.074-.031.176-.008.266-.012-.016.078-.008.168-.043.234-.141.27-.274.543-.45.782-.074.097-.156.355-.445.117m-1.09.402c.211-.199.442-.097.66-.027.414.133.41.14.09.426a1.089 1.089 0 0 0-.199.203c-.09.12-.172.129-.297.035-.11-.078-.258-.11-.371-.184-.086-.054-.145-.152-.215-.234.09-.055.184-.11.332-.219M23.95 51.211c-.054.055-.105.113-.164.16-.023.02-.086.024-.105.012-.02-.02-.028-.074-.016-.11.129-.421.266-.843.402-1.265l.04-.098c.023.035.054.067.074.106.336.62.324.668-.23 1.195m13.78-7c-.128.05-.253.113-.386.148-.055.016-.125-.02-.188-.035.028-.062.04-.176.078-.183a.63.63 0 0 1 .496.07m3.157.973c.015.027.031.046.043.07-.032-.004-.067-.008-.043-.07m-19.98-25.836c-.016-.024-.032-.043-.044-.067.032 0 .067.004.043.067Zm0 0"/></g></svg>
