<svg viewBox="0.697 0.246 37.006 45.293" xmlns="http://www.w3.org/2000/svg"><defs><clipPath id="a"><path d="M0 .246h38V46H0Zm0 0"/></clipPath><clipPath id="b"><path d="M39.414 43.95 4.848 49.89-3.996-1.59 30.566-7.53Zm0 0"/></clipPath><clipPath id="c"><path d="M4.55 49.941 39.114 44 30.27-7.477-4.297-1.539Zm0 0"/></clipPath></defs><g clip-path="url(#a)"><g clip-path="url(#b)"><g clip-path="url(#c)"><path fill="#4a7c59" d="M24.176 37.2c-.004.472-.031.945-.086 1.413a15.123 15.123 0 0 1-.336 1.766c-.09.348-.192.687-.317 1.023a8.86 8.86 0 0 1-.425.989c-.032.054-.14.324-.235.418a.197.197 0 0 1-.14.062c-.043 0-.082-.02-.121-.062a.929.929 0 0 1-.196-.45c-.035-.214-.011-.445-.02-.656 0-.25.012-.496.024-.742.031-.574.09-1.145.125-1.719.008-.207.016-.414.031-.62.012-.145.028-.286.051-.427.04-.226.086-.449.145-.668.058-.222.129-.441.215-.656.168-.418.574-.777.773-1.184.023-.046.04-.093.059-.144.011-.023.02-.05.03-.078a85.06 85.06 0 0 1-.226-.797c-.09-.324-.191-.645-.28-.965-.294-1.058-.587-2.101-1.02-3.144a13.701 13.701 0 0 0-2.465-3.961 18.97 18.97 0 0 1-1.028-1.055c-.015-.016-.015-.035-.004-.047a21.837 21.837 0 0 0-1.074-1.008 42.033 42.033 0 0 0-2.433-1.96c-.832-.633-1.68-1.243-2.508-1.895-2.715-2.13-5.188-4.535-7.184-7.266l4.227 4.735c.156.273.277.55.367.84a4.3 4.3 0 0 1 .16.796c.024.23.024.465.012.7.008.05.015.101.02.152.046.312.097.625.117.945.015.246.023.496.011.742-.011.25-.05.493-.074.743-.035.378-.07.761-.121 1.136.023.485.14.969.297 1.453.183.578.433 1.149.648 1.7.059.144.11.293.16.433.149.426.282.848.364 1.285.043.23.058.461.082.692l.023.062c.004-.004.008-.004.012-.004.031-.007.062.012.066.043.036.09.07.18.094.274.004.023.012.047.016.07l.023.047c.004.008.004.012.008.016.02.035.039.07.059.101.199.324.492.567.78.82.052.043.098.082.145.13.11.109.207.23.297.355.11.156.203.324.266.512.035.105.058.21.074.316.031.2.027.41.043.613.012.196.04.39.086.574.18.696.332 1.372.477 2.043.062.293.136.586.187.883.066.422.105.852.121 1.297.004.316-.012.633-.058.95-.063.46-.18.913-.278 1.363-.062.28-.133.632-.23.992-.063.219-.133.441-.207.656a4.846 4.846 0 0 1-.22.54 2.755 2.755 0 0 1-.323.491c-.035.04-.07.043-.086.04a.082.082 0 0 1-.07-.055c-.008-.016-.004-.11-.008-.145l-.032-.266-.132-.886c-.075-.684-.192-1.36-.278-2.04a11.565 11.565 0 0 1-.058-.515 7.912 7.912 0 0 0-.223-1.184c-.168-.644-.39-1.277-.582-1.917a12.77 12.77 0 0 1-.223-.844 8.396 8.396 0 0 1-.16-1.043 3.641 3.641 0 0 1 .078-1.028c.02-.093.043-.187.067-.277.07-.558.207-1.125.172-1.683-.012-.172-.02-.344-.043-.516a7.84 7.84 0 0 0-.106-.606c.004.305.008.61 0 .915-.023.507-.07 1.03-.156 1.55s-.211 1.032-.367 1.52c-.114.328-.239.66-.383.984a5.6 5.6 0 0 1-.32.63l-.293.468-.149.203c-.02.023-.047.074-.066.094-.02.023-.047.023-.063.031-.031.012-.035-.02-.074-.02-.016-.003-.008-.02-.027-.03a.05.05 0 0 1-.024-.016c-.039-.04-.039-.114-.047-.18-.015-.133-.007-.29-.015-.395l-.098-1.058c-.043-.45-.133-.895-.187-1.348a5.122 5.122 0 0 1-.036-.344 2.515 2.515 0 0 1 .012-.422c.02-.203.059-.402.09-.605.063-.395.121-.77.21-1.14.06-.25.134-.5.235-.75.207-.536.688-.868.938-1.32.062-.122.113-.247.133-.395.011-.063.02-.125.023-.192a.108.108 0 0 1 .074-.117.9.9 0 0 0-.027-.074c-.05-.137-.11-.282-.164-.426-.215-.563-.438-1.152-.602-1.75a7.3 7.3 0 0 1-.125-.504c-.008.047-.02.098-.027.148-.055.274-.094.547-.16.813-.102.41-.23.805-.371 1.187-.297.782-.664 1.551-1.067 2.305-.43.8-.89 1.594-1.324 2.383-.078.14-.152.285-.23.426-.004.027-.008.058-.016.086a2.577 2.577 0 0 0-.02.523c.016.254.06.512.082.766.02.183.024.363.016.543-.02.347-.062.718-.16 1.074a3.79 3.79 0 0 1-.434 1.004c-.14.226-.3.41-.476.57a3.464 3.464 0 0 1-.403.313l-.414.285c-.175.12-.351.25-.53.39-.056.04-.102.082-.145.125-.118.114-.227.23-.344.336-.059.051-.106.102-.156.157-.121.132-.227.27-.356.402a.557.557 0 0 1-.187.145c-.012.003-.024.011-.035.011-.063-.023-.055.004-.075-.043-.027-.004-.07-.035-.105-.097-.051-.102-.102-.297-.11-.325l-.039-.156-.035-.164a4.717 4.717 0 0 1-.074-1.25c.027-.434.105-.863.238-1.246a2.74 2.74 0 0 1 .219-.488c.086-.153.188-.301.297-.442.316-.41.703-.77 1.082-1.11.18-.155.348-.327.52-.487a3.18 3.18 0 0 1 .246-.211c.171-.137.363-.25.539-.383.07-.05.136-.106.199-.168.308-.32.55-.672.777-1.031.106-.172.207-.344.313-.516-.172.102-.36.184-.602.285-.168.07-.328.156-.496.23a2.371 2.371 0 0 1-.23.094c-.262.086-.54.153-.82.204-.407.082-.825.128-1.223.195a4.67 4.67 0 0 1-.614.043c-.3 0-.597-.02-.902-.035l-.648-.043c-.047-.004-.133.011-.172.008-.024 0-.04-.012-.055-.02-.04-.02-.043-.059-.035-.121a.508.508 0 0 1 .09-.203c.035-.051.082-.094.109-.125a6.966 6.966 0 0 1 .742-.77 6.234 6.234 0 0 1 1.801-1.148c.695-.285 1.445-.41 2.129-.281.144.02.289.062.434.117.203.07.402.16.593.246.098.039.203.09.313.12.074.024.148.028.218.024.004 0 .008.004.008.004.114-.207.223-.414.332-.62.356-.669.7-1.34.977-2.028.152-.371.281-.758.406-1.153.082-.257.168-.515.235-.78.043-.169.074-.345.105-.516a4.478 4.478 0 0 1-.05-.645c.007-.445.058-.887.1-1.332.024-.207.044-.414.063-.617-.011-.219-.023-.438-.043-.656-.02-.309-.035-.618-.082-.922-.031-.184-.074-.364-.113-.543-.055-.274-.121-.543-.184-.809-.015-.074-.027-.148-.046-.219a6.835 6.835 0 0 0-.282-.84 8.739 8.739 0 0 0-.367-.742c-.004-.004-.008-.007-.008-.011-.05-.059-.136-.094-.16-.168-.015-.055.004-.047.016-.086a33.282 33.282 0 0 1-3.313-3.852 27.373 27.373 0 0 1-2.176-3.484A24.447 24.447 0 0 1 .992 3.03L.97 2.957c-.016-.059-.035-.121-.043-.18-.02-.097-.024-.191-.031-.285 0-.012-.004-.027 0-.039-.075-.469-.13-.93-.16-1.394-.07-1-.036-2.004.05-3.09 0-.016.016-.024.031-.028.016.004.028.016.028.032C.84-.95.91.043 1.024 1.03c.078.676.18 1.352.32 2.051.168.445.394.867.668 1.262.062.093.133.18.195.277.047.066.082.137.129.2.02.027.043.05.066.077.25.282.516.551.793.805.434.395.895.746 1.32 1.086.274.215.56.418.848.61.301.109.57.203.856.222.222.016.445.016.676-.008.328-.031.664-.09 1.023-.129.828-.082 1.719-.171 2.574-.062a4.548 4.548 0 0 1 1.664.535l1.356.793.406.23c.008.004.195.098.27.133.015.008.027.016.03.016a.073.073 0 0 1 .016.012c.086.066.036.148.024.168-.016.023-.078.062-.168.082-.133.027-.36.05-.387.054-.195.035-.39.063-.59.078-.285.024-.57.028-.86.059a8.027 8.027 0 0 1-1.105.004 14.604 14.604 0 0 1-1.628-.211 15.79 15.79 0 0 1-1.422-.32c.672.375 1.351.738 2.015 1.11.797.448 1.606.898 2.422 1.335.563.3 1.125.602 1.692.887.074.031.148.054.222.078 0-.008.004-.012.008-.02.016-.027.05-.035.082-.02.145.083.297.153.445.223.297.086.602.149.918.235.29.074.614.156.934.191.21.028.418.024.613-.011.719-.137 1.477-.485 2.246-.704.34-.097.688-.168 1.028-.191.359-.023.718 0 1.066.113.145.043.285.11.422.188.129.074.246.16.355.25.153.133.297.273.45.414.14.12.273.234.414.344.14.113.285.222.425.343.118.102.235.207.348.325.098.105.387.257.516.414a.338.338 0 0 1 .093.257c0 .032-.035.114-.148.153-.125.039-.46.086-.484.09a5.84 5.84 0 0 1-.907.09c-.3.007-.605-.004-.898-.016-.414-.024-.824-.07-1.23-.13a24.482 24.482 0 0 1-1.211-.214 20.825 20.825 0 0 1-1.23-.27 10.349 10.349 0 0 1-1.208-.386 6.806 6.806 0 0 1-.918-.438c-.035-.02-.07-.039-.105-.062-.532-.2-1.059-.414-1.582-.64a44.177 44.177 0 0 1-2.266-1.06c.203.188.398.376.586.575.277.289.539.59.8.894.2.227.395.461.594.692.055.058.106.117.16.172a.082.082 0 0 1 .024.015c.055.059.11.102.156.164.02.02.035.043.051.063.074.074.149.148.227.219.218.203.441.386.672.53a4.8 4.8 0 0 0 .418.235c.347.168.714.309 1.058.477.418.207.813.433 1.195.683.38.246.743.524 1.106.813.226.187.48.398.71.629.161.16.305.332.419.508.129.199.215.406.277.613.09.3.125.61.188.937.035.18.097.36.148.535.023.086.043.168.055.254a.132.132 0 0 1-.024.11.182.182 0 0 0 .02.039.042.042 0 0 1-.008.055c-.016.015-.043.011-.055-.004-.015-.012-.027-.02-.039-.032-.004 0-.008.004-.011.004a.17.17 0 0 1-.094-.011c-.02-.008-.051-.036-.07-.047l-.258-.145-.664-.457a9.34 9.34 0 0 1-.82-.648 16.3 16.3 0 0 1-.759-.711c-.234-.23-.472-.465-.707-.703-.23-.235-.46-.477-.683-.72a32.147 32.147 0 0 1-1.324-1.5c-.293-.355-.586-.687-.836-1.05-.024-.035-.051-.078-.078-.113-.516-.528-1.008-1.074-1.504-1.61-.086-.093-.172-.187-.258-.277.07.137.14.274.207.41.242.504.453 1.024.68 1.543.144.352.285.664.379 1 .062.223.105.457.12.715.008.152.032.309.044.465.003.07.007.14.003.207-.003.11-.02.215-.043.328-.046.242-.12.488-.175.723l-.063.414c0 .008-.027.086-.023.117 0 .031-.016.035-.012.043.004.023-.023.008-.027.023 0 .016-.016 0-.02.012-.004.008-.012-.004-.015.004-.02.031-.04-.016-.063 0-.027.012-.039 0-.074-.008-.027-.008-.047-.039-.07-.07-.07-.094-.13-.27-.157-.336-.066-.137-.133-.273-.207-.406-.11-.207-.226-.407-.336-.61a8.81 8.81 0 0 1-.71-1.574 7.642 7.642 0 0 1-.337-1.348 17.39 17.39 0 0 1-.098-1.46c-.007-.157-.01-.313-.019-.47a7.115 7.115 0 0 0-.094-.761 5.48 5.48 0 0 1-.269-.398c-.066-.07-.129-.145-.195-.215a87.612 87.612 0 0 1-1.797-.973c-1.133-.629-2.324-1.23-3.45-1.926-.3-.187-.597-.379-.886-.582a13.895 13.895 0 0 1-1.238-1.004c-.41-.363-.84-.754-1.266-1.16-.29-.277-.563-.574-.844-.863-.062-.063-.129-.113-.191-.176a7.582 7.582 0 0 1-.45-.57c.481 1.95 1.2 3.777 2.094 5.492a28.092 28.092 0 0 0 2.125 3.45 32.728 32.728 0 0 0 2.383 2.925c.024-.012.059-.004.078.02.168.168.328.343.477.53.047.063.094.126.137.188a41.724 41.724 0 0 0 3.988 3.606 104.8 104.8 0 0 0 2.492 1.898c.844.625 1.688 1.25 2.492 1.918.649.54 1.278 1.098 1.86 1.715.316.328.617.676.906 1.04.168.108.347.218.539.32.297.156.601.269.906.39.317.121.625.242.934.375.215.09.422.2.633.305.05.023.105.047.156.074.344.16.676.348 1 .555.484.308.949.644 1.398.98.477.352.93.77 1.375 1.211.184.18.363.363.547.547.14.144.285.289.43.426a1.343 1.343 0 0 0 .605.21c.203.012.41-.007.625-.054.309-.074.625-.191.938-.273.14-.04.277-.067.418-.086.207-.032.414-.047.625-.063.617-.047 1.25-.066 1.863.023.414.06.82.172 1.215.336.191.09.387.2.574.317.273.168.543.355.8.523.247.16.5.32.74.492.073.055.144.11.214.165.176.132.34.27.484.433.078.086.051.16.02.215-.016.039-.055.07-.113.094-.075.031-.243.031-.325.05-.082.016-.164.028-.242.04-.187.023-.375.035-.562.05-.328.028-.657.047-.98.059-.329.008-.653.016-.981.012a11.241 11.241 0 0 1-3.078-.493 8.803 8.803 0 0 1-1.082-.41 2.427 2.427 0 0 1-.18-.062 4.763 4.763 0 0 1-.984-.567 7.635 7.635 0 0 1-.493-.386 15.9 15.9 0 0 1 1.641 2.675c.195.415.379.82.539 1.239.164.418.297.847.406 1.297l.164.734.043.293c0 .023.02.082.02.105a.188.188 0 0 1-.031.106c-.04.047-.098.101-.2.047a.753.753 0 0 1-.222-.2c-.121-.152-.223-.359-.301-.488a30.084 30.084 0 0 0-.395-.578c-.195-.285-.394-.57-.605-.851a19.485 19.485 0 0 0-.7-.891c-.562-.688-1.148-1.352-1.671-2.066a10.894 10.894 0 0 1-.88-1.395 4.14 4.14 0 0 1-.296-.754c-.11-.351-.195-.707-.297-1.058a8.381 8.381 0 0 0-.168-.532c-.02-.043-.031-.09-.047-.133a2.488 2.488 0 0 0-.355-.617 5.328 5.328 0 0 0-.192-.226 3.022 3.022 0 0 0-.156-.16l-.25-.18a8.985 8.985 0 0 0-.96-.582 2.194 2.194 0 0 0-.22-.098c-.296-.125-.609-.203-.914-.297-.257-.078-.515-.16-.77-.258a5.558 5.558 0 0 1-.78-.382c.96 1.332 1.562 2.64 2.008 3.965.23.687.425 1.375.59 2.078.077.324.14.656.21.984.035.168.075.332.11.504a.109.109 0 0 1 .047.07c.011.035.02.07.023.106.074.136.156.273.254.402.094.121.203.242.312.36.442.472.98.906 1.465 1.292.172.141.336.27.48.403.962.847 1.864 1.699 2.54 2.699.422.617.75 1.293.968 2.031a6.854 6.854 0 0 1 .274 2.227c-.004.125-.02.25-.027.37-.012.134-.02.263-.043.384-.016.093-.082.11-.137.11a.154.154 0 0 1-.086-.036c-.027-.02-.063-.074-.086-.094l-.348-.32-.617-.582a16.393 16.393 0 0 1-.847-.88c-.27-.3-.532-.608-.79-.917-.234-.29-.468-.574-.69-.867a18.97 18.97 0 0 1-.954-1.364c-.148-.234-.297-.468-.434-.714a13.95 13.95 0 0 1-.832-1.758 7.847 7.847 0 0 1-.27-.809ZM5.898 7.75c.106.016.207.023.309.031.23.016.461.008.7-.008.327-.02.667-.054 1.027-.07.812-.043 1.68-.062 2.511.059.543.078 1.075.21 1.559.472.184.102.367.204.55.301.278.149.56.293.84.434l.387.191c-.058.004-.105.004-.12.004-.005.004-.013 0-.016.004-.051-.023-.102-.043-.153-.063a10.415 10.415 0 0 0-1.203-.359 9.379 9.379 0 0 0-1.55-.258c-.802-.062-1.641-.058-2.466-.125a8.198 8.198 0 0 1-1.609-.27 3.224 3.224 0 0 1-.457-.171c-.07-.035-.137-.07-.203-.106-.035-.023-.07-.043-.106-.066Zm7.438 1.438c-.137.007-.274.007-.41.011-.235.004-.465.012-.7.028a7.365 7.365 0 0 1-1.058 0 15.105 15.105 0 0 1-1.59-.2 15.844 15.844 0 0 1-1.848-.41c-.34-.101-.671-.215-1-.347a.356.356 0 0 1-.05-.032c-.008-.004-.012-.008-.02-.011a8.09 8.09 0 0 0 1.602.285c.824.074 1.664.066 2.465.125.406.027.816.09 1.226.18.469.093.934.238 1.383.37Zm-.629 3.656c.168.281.316.566.461.851.246.5.469 1.004.71 1.516.075.164.15.324.224.473.074.16.144.312.207.472.074.203.14.414.18.657.019.128.05.257.07.394a1.804 1.804 0 0 1-.016.66c-.04.211-.102.418-.145.617l-.101.332c-.04-.074-.07-.187-.09-.222l-.023-.032a5.12 5.12 0 0 1-.29-.808c-.14-.555-.207-1.14-.308-1.707a9.31 9.31 0 0 0-.172-.742c-.094-.367-.207-.73-.309-1.098-.113-.398-.203-.805-.34-1.195-.019-.055-.038-.114-.058-.168Zm1.105 5.187-.273-.394a5.334 5.334 0 0 1-.402-.746 5.15 5.15 0 0 1-.266-.809c-.105-.434-.144-.879-.176-1.34-.008-.113-.02-.226-.023-.34-.024-.363-.012-.734-.031-1.105-.004-.117-.016-.235-.028-.356.032.094.059.184.086.278.098.34.176.683.266 1.027.101.367.21.727.305 1.094.066.246.12.488.168.734.101.57.167 1.156.312 1.719.02.078.04.16.063.238Zm10.32-3.59a26.009 26.009 0 0 0-1.64-.543 9.422 9.422 0 0 0-1.527-.328 9.219 9.219 0 0 0-.742-.05c-.57-.012-1.149.015-1.715-.016a10.079 10.079 0 0 1-2.051-.305 6.79 6.79 0 0 1-.824-.273c.078.023.16.043.242.066.29.082.617.176.941.23.223.036.45.051.66.024.735-.09 1.52-.371 2.305-.562a5.6 5.6 0 0 1 .965-.164c.317-.02.629.007.938.101.125.035.253.078.375.137.117.058.222.125.32.199.16.117.308.25.469.375.152.121.3.227.445.34.098.078.191.156.281.234.149.13.293.266.43.422.027.035.074.07.129.113Zm.235.274a4.422 4.422 0 0 1-.234.027 6.694 6.694 0 0 1-.692.051c-.351.008-.703 0-1.046-.023-.32-.016-.641-.051-.961-.094-.48-.063-.961-.14-1.438-.227a25.003 25.003 0 0 1-1.746-.347 27.413 27.413 0 0 1-2.184-.848c.114.035.23.066.348.098.68.18 1.383.277 2.086.312.566.035 1.145.02 1.719.04.242.007.484.023.726.054.38.047.75.125 1.125.222.774.204 1.54.489 2.297.735Zm-3.305 5.816c-.48-.633-.953-1.273-1.464-1.879a11.409 11.409 0 0 0-1.446-1.468c-.484-.399-1.058-.743-1.586-1.125a5.655 5.655 0 0 1-.414-.329c.012.004.02.012.028.016.34.188.699.344 1.03.527.403.22.774.454 1.138.704.363.25.715.52 1.062.808.219.176.469.375.692.59.144.14.277.285.382.438.114.167.192.335.254.511.102.285.16.582.239.89.023.106.054.212.085.317Zm-.199-.011c-.14-.102-.277-.207-.418-.313-.27-.2-.527-.422-.773-.648a18.01 18.01 0 0 1-.723-.723c-.219-.227-.437-.461-.66-.688-.332-.343-.668-.68-1-1.023-.246-.254-.492-.508-.734-.77.488.34 1.011.645 1.453 1.004.527.426 1 .91 1.441 1.418.492.563.95 1.16 1.414 1.743Zm-6.633-1.582h.004l-.004.003Zm0 .011c0 .004 0 .008.004.012s-.011-.008-.007-.008c0 0 .003 0 .003-.004Zm-4.19 16.653.128-.5c.176-.7.316-1.407.473-2.114.125-.59.254-1.175.347-1.77.067-.398.117-.796.157-1.195.043-.453.074-.91.074-1.367.031.11.066.223.097.336.004.008.008.016.008.024-.004.05-.008.101-.015.148-.047.543-.02 1.086-.059 1.629a13.468 13.468 0 0 1-.172 1.512 11.286 11.286 0 0 1-.344 1.476c-.09.328-.191.657-.312.98a5.578 5.578 0 0 1-.27.626Zm-8.024-3.907c.09-.097.18-.187.27-.273a7.109 7.109 0 0 1 1.598-1.156c.284-.153.58-.293.882-.403.523-.18 1.058-.281 1.57-.207.129.024.254.063.379.114.195.074.383.171.566.261.13.063.278.137.426.176a2.799 2.799 0 0 1-.8.23c-.25.036-.5.051-.759.06-.601.019-1.218.007-1.812.163a4.854 4.854 0 0 0-.82.281c-.278.118-.551.247-.817.383-.113.059-.226.121-.336.18-.117.058-.23.129-.347.191Zm7.828 4.012v-.07c-.008-.11-.012-.215-.024-.32-.02-.25-.05-.497-.074-.747-.047-.453-.144-.902-.207-1.351-.012-.114-.027-.223-.035-.336a2.04 2.04 0 0 1 .008-.38c.015-.198.054-.394.082-.593.058-.39.11-.762.199-1.125.059-.238.137-.473.242-.71.133-.294.36-.509.574-.723.121-.125.239-.247.336-.38-.02.34-.043.68-.082 1.02-.047.395-.101.79-.164 1.18-.094.59-.195 1.18-.308 1.765-.168.91-.32 1.825-.536 2.723l-.011.047Zm-2.192-5.266c-.007-.003-.015 0-.027.004-.027.008-.04.04-.055.059-.297.3-.554.394-.988.555-.176.062-.344.14-.512.21-.07.028-.136.051-.21.07a8.208 8.208 0 0 1-.575.165c-.465.11-.95.191-1.406.281a4.094 4.094 0 0 1-.57.082c-.293.024-.586.02-.891.028l-.402-.004c.152-.059.296-.133.437-.2.133-.062.27-.125.406-.191.305-.156.614-.324.93-.457.195-.086.395-.156.59-.207.586-.133 1.187-.094 1.777-.106.266-.007.532-.027.785-.074.25-.047.493-.12.723-.234Zm5.727 11.653c.074-.278.121-.555.152-.836.067-.633.031-1.278-.031-1.93a19.141 19.141 0 0 0-.309-2.016c-.195-.988-.441-1.968-.644-2.968a33.745 33.745 0 0 1-.207-1.094 20.736 20.736 0 0 1-.152-1.102c-.051-.472-.06-.949-.102-1.418.168.27.387.512.61.75.218.239.44.473.554.786.05.129.086.261.113.398.028.137.055.273.075.41.03.215.05.434.105.64.184.704.379 1.38.488 2.063.043.278.063.559.082.84.032.41.051.824.035 1.254a6.189 6.189 0 0 1-.062.66 8.005 8.005 0 0 1-.059.442c-.058.379-.132.754-.207 1.125-.05.28-.117.629-.191.988-.043.215-.086.437-.145.648a4.823 4.823 0 0 1-.105.36Zm-.191-.02-.079-.539c-.035-.601-.105-1.195-.156-1.797-.023-.254-.039-.508-.05-.761a7.674 7.674 0 0 0-.243-1.555c-.144-.582-.332-1.156-.508-1.73-.144-.481-.285-.958-.367-1.45 0 0 .004 0 .004-.004a.06.06 0 0 0 .035-.078 2.026 2.026 0 0 1-.105-.469 3.377 3.377 0 0 1 0-.28c.008-.18.035-.36.054-.54.028-.223.07-.437.086-.66.008-.059 0-.113 0-.168.004-.012.004-.02 0-.023l.024-.184c.004.113.015.227.023.34.035.379.082.75.14 1.12.06.372.13.74.204 1.106.25 1.168.555 2.301.781 3.461.094.492.176.989.235 1.489.058.527.097 1.054.078 1.574-.016.386-.063.77-.156 1.148ZM3.175 38.72c-.008-.012-.012-.02-.012-.024l-.031-.148-.024-.16a4.252 4.252 0 0 1 .329-2.34c.066-.145.148-.281.234-.414.086-.133.176-.266.277-.39.309-.388.68-.731 1.043-1.052.055-.046.106-.097.156-.148.192-.195.36-.406.559-.594.16-.144.336-.273.5-.414.023-.023.05-.043.074-.066-.164.316-.312.636-.523.937-.356.508-.77.977-1.14 1.473a8.571 8.571 0 0 0-.27.387c-.106.156-.2.32-.29.48-.132.246-.253.496-.374.746a7.03 7.03 0 0 0-.262.649 4.634 4.634 0 0 0-.18.683c-.02.121-.05.258-.066.395Zm.191.12c.004-.16.047-.327.074-.48.043-.222.102-.437.172-.652a7.34 7.34 0 0 1 .25-.633c.114-.25.227-.5.352-.742.086-.16.176-.316.273-.473.125-.191.262-.379.407-.562.34-.426.714-.828 1.039-1.266.175-.23.32-.476.453-.726.05-.086.097-.176.144-.266v.047c-.004.258.016.527.035.785.008.168.02.336.012.496a5.752 5.752 0 0 1-.133 1.012c-.07.336-.164.664-.312.96-.184.376-.43.653-.715.884a5.213 5.213 0 0 1-.387.265c-.199.125-.406.235-.617.367-.062.04-.117.083-.172.13-.12.1-.23.218-.355.316-.063.05-.121.11-.18.164-.117.12-.223.25-.34.375Zm22.738-8.577c.262.355.567.68.848 1.023.54.649 1.078 1.293 1.563 1.977a15.13 15.13 0 0 1 1.418 2.386c.23.489.441.97.628 1.461.122.325.235.653.329.996l.152.563c-.047-.07-.086-.137-.125-.188-.027-.042-.05-.085-.078-.128.008.007.02.003.027 0 .016-.008.02-.024.012-.04-.2-.417-.379-.855-.582-1.277a9.435 9.435 0 0 0-.438-.836c-.234-.394-.48-.781-.734-1.164-.594-.894-1.223-1.762-1.813-2.652-.214-.328-.433-.66-.64-1-.14-.227-.274-.453-.402-.68-.102-.18-.196-.367-.301-.55a.858.858 0 0 1 .07.054l.066.055Zm4.7 8.035a19.912 19.912 0 0 0-.461-.703 14.284 14.284 0 0 0-.418-.574c-.23-.301-.473-.598-.715-.891-.559-.68-1.133-1.352-1.645-2.066a10.524 10.524 0 0 1-.836-1.364c-.27-.547-.335-1.152-.492-1.722.094.164.192.328.293.492.211.34.43.676.645 1.008.59.886 1.219 1.757 1.816 2.644.258.379.508.762.746 1.152.121.196.23.403.34.61.25.465.48.949.727 1.414Zm6.398-4.152c-.086-.028-.164-.063-.25-.094-.16-.055-.324-.102-.488-.149a2.729 2.729 0 0 0-.363-.082 22.186 22.186 0 0 0-1.543-.191c-.235-.024-.465-.035-.7-.055-.547-.035-1.09-.07-1.629-.074a9.628 9.628 0 0 1-1.02-.074c-.335-.04-.667-.102-1.01-.168a5.767 5.767 0 0 1-.595-.164c-.05-.028-.097-.055-.148-.082-.035-.028-.07-.059-.11-.086a6.89 6.89 0 0 1-.398-.36c.063.012.13.016.196.02.218.008.445-.027.671-.078.313-.07.637-.168.954-.242a3.45 3.45 0 0 1 .394-.063c.203-.02.406-.027.613-.031a9.629 9.629 0 0 1 1.5.047c.246.031.493.074.73.133.24.058.473.128.704.222.184.078.367.172.55.274.278.16.551.336.813.492.293.18.61.344.88.562.089.075.171.157.25.243Zm-.2.054-.6.043c-.325.02-.645.035-.965.04-.32.007-.641.007-.965 0a11.28 11.28 0 0 1-2.965-.427c-.45-.128-.89-.289-1.309-.472.34.05.672.09 1 .12.34.032.68.056 1.031.052.637.011 1.29.039 1.934.113.387.043.77.105 1.152.168.254.039.508.078.762.125.277.05.543.156.817.215.035.011.074.015.109.023Zm-7.007 10.864c.008.003.016.007.024.003.015-.004.027-.02.023-.035a6.552 6.552 0 0 0-.594-1.57c-.394-.746-.914-1.441-1.39-2.094-.383-.515-.762-1.031-1.153-1.535-.261-.34-.523-.672-.793-1.008-.422-.511-.89-1.047-1.281-1.617a5.327 5.327 0 0 1-.64-1.203c0-.004-.005-.008-.008-.012-.008-.043-.02-.086-.032-.129.075.102.157.2.239.293.472.52 1.117.934 1.64 1.36.14.113.27.234.387.347.86.844 1.64 1.707 2.266 2.653.16.238.312.484.449.734.226.414.418.848.57 1.313.14.437.25.902.309 1.398.039.266.074.562.078.86 0 .074 0 .148-.004.226-.004.031-.008.066-.016.098ZM22.63 42.53v.004a.785.785 0 0 1-.047-.21c-.027-.208-.004-.427-.004-.626a11.54 11.54 0 0 1 .012-.972c.027-.489.078-.977.101-1.47.016-.206.02-.413.04-.616a4.44 4.44 0 0 1 .05-.399c.043-.215.09-.433.149-.648.058-.207.129-.414.215-.617.164-.372.527-.676.746-1.028l.004.008a.399.399 0 0 0-.036.086.293.293 0 0 0-.015.062c-.059.266-.153.532-.227.797a4.427 4.427 0 0 0-.11.45l-.292 1.82c-.117.68-.195 1.379-.305 2.066-.066.41-.148.817-.258 1.215-.007.027-.02.05-.023.078Zm.262-.422a7.17 7.17 0 0 0 .12-.5c.173-.793.25-1.613.391-2.402l.313-1.82c.047-.258.133-.516.21-.77v.203c0 .59-.042 1.176-.116 1.758a16.528 16.528 0 0 1-.309 1.738c-.082.34-.18.676-.293 1.008a8.037 8.037 0 0 1-.316.785Zm7.097 2.946-.164-.18-.59-.617a13.862 13.862 0 0 1-.648-.7c-.313-.359-.617-.73-.914-1.105-.227-.289-.445-.578-.668-.867a28.442 28.442 0 0 1-.953-1.328 15.723 15.723 0 0 1-.438-.688 14.69 14.69 0 0 1-.89-1.64c-.13-.395-.239-.79-.344-1.172.098.183.203.36.32.535.383.586.848 1.129 1.266 1.652.332.414.656.836.976 1.262.32.422.637.852.954 1.277.48.641.984 1.336 1.406 2.059.281.484.527.984.683 1.504 0 .004.004.008.004.008Zm-16.746-2.586c.004 0 .008-.004.012-.008a.19.19 0 0 1-.012.027Zm0 0" fill-rule="evenodd"/></g></g></g></svg>
