<svg viewBox="252.119 0.246 44.12 63.822" xmlns="http://www.w3.org/2000/svg"><defs><clipPath id="a"><path d="M252 .246h44.238V65H252Zm0 0"/></clipPath><clipPath id="b"><path d="m315.145 48.992-26.993 22.39L237.656 10.5l26.996-22.39Zm0 0"/></clipPath><clipPath id="c"><path d="m315.145 48.992-26.993 22.39L237.656 10.5l26.996-22.39Zm0 0"/></clipPath></defs><g clip-path="url(#a)"><g clip-path="url(#b)"><g clip-path="url(#c)"><path fill="#4a7c59" d="M285.406 49.094c.047 0 .09.02.125.05.121.114.23.231.34.352 1.453 1.149 3.098 2.04 4.524 3.219 2.28 1.887 4.164 4.558 5.277 7.289.375.914.777 1.805 1.078 2.754.05.148.168.402.25.633.066.191.102.375.082.507a.181.181 0 0 1-.094.141.164.164 0 0 1-.16.016.187.187 0 0 1-.09-.063c-.015-.02-.043-.062-.062-.086-.106-.14-.211-.281-.32-.418a10.105 10.105 0 0 0-.844-.984c-.883-.887-1.797-1.805-2.801-2.55-2.129-1.595-3.879-3.74-5.078-6.11-.547-1.094-.856-2.239-1.442-3.25l-.003-.008a37.01 37.01 0 0 1-2.883-2.922 24.182 24.182 0 0 1-2.301-3.105 20.787 20.787 0 0 1-.692-1.22c.133.743.235 1.481.305 2.208.094.95.238 1.941.156 2.898-.136 1.57-.605 3-1.02 4.496-.179.633-.464 1.239-.671 1.864-.223.687-.383 1.41-.613 2.101-.14.43-.262.856-.39 1.285-.04.133-.075.254-.102.387-.008.055 0 .152-.008.207a.37.37 0 0 1-.047.121c-.04.051-.086.074-.14.07a.196.196 0 0 1-.165-.062c-.097-.094-.156-.254-.195-.445-.04-.211-.05-.469-.074-.617-.153-.868-.364-1.727-.477-2.602-.3-2.36-.355-4.734.461-7.016.488-1.363 1.215-2.535 1.684-3.757.425-1.102.629-2.243.226-3.598-.656-1.852-1.008-3.711-1.281-5.672-.484-3.52-.695-7.379-1.988-12.172a30.574 30.574 0 0 0-1.743-4.82c.012.055.02.11.032.168.258 1.668.386 4.058-.078 5.695-.555 1.934-1.98 4.23-2.797 6.125-.332.77-.524 1.55-.692 2.367-.035.176-.05.446-.093.692-.032.191-.09.367-.168.488-.055.082-.118.094-.157.102-.066.007-.129-.012-.183-.086a.313.313 0 0 1-.04-.118c-.003-.058.005-.171-.007-.23-.02-.164-.035-.328-.059-.488-.062-.489-.195-.965-.289-1.442-.039-.191-.07-.383-.105-.566-.035-.012-.067-.05-.059-.094.008-.082.008-.156.016-.234a16.489 16.489 0 0 1-.145-2.196c-.039-.011-.07-.05-.062-.093.02-.356.047-.707.097-1.051.008-.125.016-.262.028-.39.168-2.477 1.097-4.532 2.101-6.762.348-.774.766-1.551 1.032-2.356.25-.777.359-1.57.101-2.41a3.602 3.602 0 0 0-.078-.219c-2.047-3.414-4.7-6.449-7.766-9.164 1.914 2.684 2.59 6.742 2.563 9.82v.196c-.012 1.234-.207 2.41-.527 3.601-.016.078-.032.215-.063.344a.784.784 0 0 1-.105.29.313.313 0 0 1-.168.128.31.31 0 0 1-.239-.023c-1.12-.567-2-2.055-2.605-3.82-.895-2.606-1.219-5.805-.977-7.423.11-.75.489-1.55.73-2.343.196-.649.294-1.29.032-1.891-2.906-2.191-8.063-5.043-11.14-5.445a.278.278 0 0 1-.239-.313.274.274 0 0 1 .223-.238c0-.024.015-.035.023-.05-.031 0-.054-.009-.086-.013a.097.097 0 0 1-.078-.105.098.098 0 0 1 .106-.082c.355.055.699.144 1.043.242a.083.083 0 0 1 .062.078c.242.055.484.117.715.196.047.015.078.07.059.113-.008.008 0 .012-.008.015 1.41.442 3.02 1.157 4.582 1.985a.167.167 0 0 1 .14.027c.223.145.438.285.664.41.059.032.122.075.184.102.332.183.672.348 1.023.496.336-.059.657-.203.961-.363.34-.184.676-.38 1.028-.516 2.789-1.078 5.203-1.598 8.203-1.004.344.07 2.32.621 3.039 1.059.16.094.27.195.312.277a.284.284 0 0 1 .032.215c-.028.113-.106.223-.243.336-.152.125-.386.25-.671.375-1.028.433-2.7.777-3.082.836-2.77.422-5.723.437-8.41-.38l.015.005c.453.293.902.598 1.344.918.36.258.719.527 1.07.804.11.09.223.18.34.278.055.043.105.094.164.144.066.055.129.114.195.168.203.18.407.36.602.535.453.418.91.848 1.355 1.282l.641.64c.07.051.14.102.215.16.012-.007.02-.007.035-.011 5.156-1.367 10.754-.688 14.883 2.879.234.207 1.82 1.5 2.504 2.168.199.199.32.355.347.433.036.098.016.172-.03.227a.24.24 0 0 1-.165.101 1.014 1.014 0 0 1-.223.004c-.09-.011-.187-.027-.25-.023-.41.02-.816.02-1.218.086-1.27.21-2.387.277-3.664.113-4.676-.605-11.145-4.754-11.145-4.754 2.828 3.16 5.113 6.7 6.629 10.703.004.004.004.004.008.012.8.973 1.949 1.61 3.187 2.11 1.266.507 2.614.878 3.778 1.288a14.867 14.867 0 0 1 5.449 3.348c.86.84 1.594 1.77 2.273 2.77.203.297.395.597.594.898.082.125.16.25.238.379l.106.113a.217.217 0 0 1 .043.121.175.175 0 0 1-.035.13.212.212 0 0 1-.141.09.682.682 0 0 1-.348-.079c-.203-.105-.457-.309-.59-.371a11.86 11.86 0 0 0-1.941-.73c-1.215-.329-2.328-.547-3.441-1.172-2.547-1.438-4.22-3.653-6.239-5.692-.797-.805-1.71-1.457-2.578-2.18.219.641.414 1.293.598 1.954.937 3.468 1.308 6.453 1.625 9.171.012.02.031.04.039.06.66 1.437 1.77 2.401 3.043 3.187 1.297.8 2.754 1.41 4.074 2.117 1.863 1.004 3.57 2.875 4.5 4.758.281.57.832 1.687.918 2.34.02.046.043.081.063.128.02.047 0 .102-.043.13-.047.019-.098 0-.125-.044-.04.024-.082.024-.137.012-.024-.008-.063-.02-.106-.059-.035-.035-.093-.113-.136-.144-.114-.094-.242-.172-.36-.258-.355-.254-.73-.45-1.113-.648-1.164-.61-2.434-.938-3.484-1.762-1.907-1.508-2.887-3.633-4.266-5.563-.805-1.125-1.883-1.996-2.726-3.078.074.64.148 1.274.238 1.887.722 5.238 2.043 9.723 8.472 15.41ZM261.652 2.473l.004-.008-.039.012ZM271.59.93c-.348-.098-.625-.168-.735-.2-2.921-.578-5.273-.062-7.992.985-.101.043-.207.09-.312.14.176-.05.355-.101.527-.144.613-.168 1.215-.348 1.84-.465 1.797-.336 3.723-.617 5.559-.492.375.027.746.113 1.113.176Zm1.09.586a13.845 13.845 0 0 0-1.883-.149c-1.457-.035-2.89.098-4.344.242-1.39.141-2.914.258-4.281.684.406-.082.84-.113 1.242-.18.684-.113 1.36-.242 2.059-.308.902-.082 1.824-.07 2.726-.098 1.078-.031 2.164-.035 3.246-.09.403-.035.825-.097 1.235-.101Zm-10.59 1.218c2.617.774 5.48.75 8.18.344.363-.058 1.988-.39 2.996-.812.238-.098.441-.204.574-.313.008-.008.02-.016.031-.027-.195.09-.406.129-.61.207-.222.082-.44.207-.671.281-.645.195-1.352.223-2.016.316-.512.067-1.015.176-1.523.211-.863.067-1.727.028-2.59.012-.961-.02-1.922-.02-2.887-.07-.5-.031-.988-.102-1.484-.149Zm11.61-.937c-.055-.012-.114-.016-.165-.02-.402.059-.797.164-1.195.223-.402.059-.809.066-1.211.105-.438.047-.875.125-1.317.16-.964.07-1.949.044-2.917.079-1.454.05-2.918.14-4.372.25.352.039.707.082 1.059.097.957.051 1.918.051 2.875.07.856.016 1.715.06 2.57-.011.508-.035 1.016-.145 1.516-.21.652-.087 1.352-.118 1.984-.313.227-.067.438-.188.66-.274.168-.062.344-.101.512-.156Zm-.833-.09c-.465-.016-.953.066-1.414.094-1.082.054-2.168.058-3.246.094-.902.027-1.82.011-2.719.097-.687.067-1.36.192-2.039.309-.207.035-.418.054-.633.086 1.36-.102 2.723-.18 4.079-.235.964-.039 1.937-.015 2.906-.09.441-.035.87-.109 1.312-.152.399-.039.805-.043 1.2-.11.183-.019.37-.058.554-.093Zm-.383-.414c-.27-.059-.543-.117-.816-.156-.402-.067-.805-.164-1.211-.192-1.812-.125-3.723.153-5.508.485-.43.086-.851.195-1.273.308.926-.156 1.87-.242 2.758-.328 1.453-.144 2.902-.277 4.363-.246.562.02 1.129.05 1.687.129Zm-6.12 18.086c-.055-.969-.301-1.973-.38-2.914-.296-3.559-.879-7.13-2-10.527.325 2.933.918 5.878 1.391 8.789.262 1.605.36 3.168.988 4.652Zm.632-3.117c.004-.094.012-.2.008-.297.004-.067.004-.13.004-.195.031-3.118-.672-7.274-2.707-9.883.504 1.082.816 2.238 1.199 3.375.727 2.187 1.414 4.61 1.496 7Zm-.621 3.636c0-.02 0-.027.004-.046-.8-1.618-.895-3.329-1.18-5.098-.422-2.602-.949-5.234-1.277-7.86.039 3.262.187 6.66 1.18 9.75.343 1.126.644 2.258 1.273 3.254Zm.168-.652c.758-3.27-.188-6.832-1.227-9.922-.316-.93-.578-1.87-.937-2.781.984 3.219 1.512 6.566 1.797 9.91.074.906.3 1.863.367 2.793Zm-1.375-.488c-.313-.61-.531-1.305-.742-1.871-.668-1.715-1.18-5.367-1.059-7.262.051-.691.117-1.371.164-2.05-.191.527-.39 1.046-.46 1.546-.231 1.578.09 4.707.96 7.25.317.899.696 1.73 1.137 2.387Zm.789.793c-.469-.895-.734-1.88-1.047-2.848-.93-2.922-1.129-6.117-1.176-9.207-.05.711-.125 1.414-.171 2.129-.125 1.871.382 5.484 1.042 7.184.192.496.375 1.082.63 1.628.187.422.417.817.722 1.114Zm2.445-11.29-.004-.003-.02.008Zm13.387 2.321c-.344-.262-.7-.5-1.066-.723-2.38-1.027-5.707-1.343-7.965-1.586-1.422-.144-2.668-.43-4.051-.03 3.02-.321 5.945.648 8.867 1.25 1.469.292 2.899.507 4.215 1.089Zm2.016 1.668c-.594-.504-1.164-.973-1.293-1.086l-.008-.004c-1.516-.902-3.219-1.125-4.965-1.48-2.676-.543-5.348-1.403-8.086-1.297 1.23.125 2.473.254 3.668.504 2.219.468 4.352 1.289 6.512 1.972 1.562.496 2.867.746 4.172 1.391Zm-.118 1.238c-2.308-.39-4.472-1.43-6.66-2.261-2.644-1.004-5.328-1.747-8.066-2.426.066.05.144.097.223.152.3.027.617.102.941.207.84.274 1.719.723 2.34.922 2.02.64 4.004 1.29 5.957 2.113 1.387.586 2.637 1.254 4.098 1.45.37-.036.753-.082 1.136-.149.016-.004.024-.008.031-.008Zm.977-.078c-4.656-1.742-9.219-3.715-14.156-4.476-.43-.063-.852-.172-1.274-.262 2.668.668 5.282 1.402 7.868 2.379 2.441.926 4.843 2.11 7.457 2.367.035-.004.07-.004.105-.008Zm-5.012-4.148c-2.785-1.383-5.957-1.79-9.078-1.407.715.028 1.434.145 2.207.227 1.93.211 4.633.469 6.871 1.18Zm5.38 4.082c-.09-.086-.196-.192-.321-.309-.066-.055-.125-.117-.188-.172-1.578-1.008-3.066-1.238-4.941-1.832-2.152-.683-4.281-1.5-6.492-1.969-1.074-.226-2.184-.351-3.285-.468.242.054.488.105.742.144 5.21.817 10.015 2.969 14.957 4.782Zm-3.282.344c-1.18-.286-2.242-.829-3.406-1.329-1.95-.824-3.93-1.468-5.942-2.109-.62-.195-1.496-.648-2.336-.922-.152-.047-.296-.094-.445-.125 1.246.621 2.559 1.098 3.832 1.652 2.527 1.114 5.012 2.239 7.703 2.832.2.008.399.008.594 0Zm-1.785-.102c-2.274-.629-4.406-1.594-6.586-2.543-.91-.395-1.844-.758-2.762-1.156 2.88 1.781 6.07 3.246 9.348 3.699Zm-9.715 17.98c.309-1.543 1.113-2.96 1.621-4.441.95-2.746 1.45-5.64 1.399-8.55-.016-.56.05-1.153.039-1.727-.008-.032-.004-.063-.012-.094-.004.098-.012.187-.016.281-.035.695-.105 1.383-.168 2.078-.265 2.746-.832 5.375-1.644 8.012-.43 1.422-1.114 2.93-1.219 4.441Zm3.152-6.433c.16-.39.297-.778.407-1.145.449-1.586.324-3.91.07-5.539-.063-.406-.133-.82-.227-1.246.098.727.121 1.461.164 2.176.102 1.867.032 3.875-.414 5.754Zm-3.64 3.308c.097-.664.222-1.328.379-1.98.382-1.621 1.043-3.223 1.582-4.797.34-.984.644-1.96.882-2.973-.195.48-.386.965-.554 1.457-.399 1.2-.703 2.43-1.137 3.618-.297.8-.73 1.547-1.027 2.359-.032.254-.063.508-.075.777a20.59 20.59 0 0 0-.05 1.54Zm.133 2.024c.007-.254.027-.508.066-.742.113-.715.328-1.426.496-2.13.48-2.1 1.094-4.155 1.715-6.218.242-.813.43-1.617.582-2.441-.238.949-.524 1.863-.84 2.793-.543 1.574-1.191 3.164-1.578 4.785a25.57 25.57 0 0 0-.524 3.093 11 11 0 0 0 .083.86Zm.199.805c.168-1.43.789-2.852 1.199-4.192.805-2.625 1.375-5.234 1.629-7.973.008-.078.015-.156.027-.23-.156.86-.347 1.707-.601 2.559-.614 2.062-1.23 4.109-1.715 6.203-.16.703-.383 1.406-.488 2.117-.07.469-.082.992-.051 1.516Zm2.136-3.676c.211-.41.422-.828.622-1.239.761-2.203.894-4.69.77-6.949-.013-.156-.017-.304-.024-.468.004.093.004.171.004.257.043 2.797-.461 5.723-1.372 8.399Zm-2.19-2.317c.237-.527.5-1.039.698-1.578.367-.98.637-2.004.946-3-.684 1.528-1.313 2.985-1.645 4.578Zm.292 7.082c.117-.562.254-1.113.438-1.652h-.008c-.047-.027-.075-.078-.051-.125.383-.887.867-1.707 1.191-2.613a25.802 25.802 0 0 0 1.43-6.532 25.526 25.526 0 0 1-1.289 5.762c-.566 1.645-1.5 3.211-1.7 4.969-.003.059-.003.125-.011.191Zm19.938-1.98a5.927 5.927 0 0 0-.793-.64c-.399-.266-.856-.419-1.239-.704-2.234-1.68-4.508-3.351-6.875-4.836-.71-.453-1.449-.855-2.191-1.254a7.989 7.989 0 0 0-.317-.16c.485.293.907.684 1.356 1.016.95.703 1.906 1.383 2.855 2.086 1.567 1.164 3.153 2.343 4.829 3.343.648.383 1.382.672 2.062 1.004.113.051.211.102.313.145Zm-2.07-.774c-.134-.07-.262-.136-.391-.214-1.68-1-3.27-2.192-4.848-3.352-.95-.703-1.906-1.383-2.856-2.086-.226-.168-.449-.36-.68-.535.423.383.829.777 1.266 1.137 1.102.91 2.278 1.722 3.391 2.625.922.742 1.918 1.718 3.059 2.152.351.094.699.18 1.058.273Zm-.766-2.894c-1.457-1.352-3.168-2.356-5.047-3.023-.711-.25-1.48-.481-2.262-.739.387.192.773.383 1.164.563a77.587 77.587 0 0 1 3.684 1.765c.855.434 1.687.895 2.46 1.434Zm2.746 3.332-.063-.098a8.375 8.375 0 0 0-.605-.687c-.504-.496-1.086-.844-1.649-1.258-.722-.523-1.433-1.09-2.191-1.574-.637-.403-1.313-.73-1.953-1.133a48.621 48.621 0 0 0-3.215-1.836c.328.188.644.383.965.582 2.37 1.492 4.648 3.168 6.89 4.844.38.281.832.433 1.223.695.219.137.418.3.606.477Zm-4.024-1c-.785-.5-1.511-1.164-2.187-1.715-1.114-.898-2.293-1.715-3.39-2.621-.142-.113-.274-.23-.415-.355 1.43 1.55 2.836 3.066 4.738 4.136.414.235.832.41 1.254.555Zm3.192-.195a20.81 20.81 0 0 0-.95-1.16c-1.05-.915-2.253-1.606-3.507-2.25a79.826 79.826 0 0 0-3.028-1.461c.664.367 1.313.75 1.957 1.156.64.394 1.32.73 1.957 1.133.758.484 1.473 1.047 2.196 1.582.464.336.941.636 1.375 1Zm-.793 12.039c-.914-1.266-2.14-2.407-3.446-3.106-1.011-.547-2.101-1.031-3.14-1.59.14.106.285.196.426.282 2.027 1.199 4.25 2.41 5.894 4.129.086.093.18.191.266.285Zm-1.414 1.648c-.48-.426-.895-.933-1.325-1.43-.566-.664-1.187-1.3-1.71-2-.297-.386-.586-.792-.891-1.183-.43-.395-.863-.793-1.297-1.184.008.004.016.016.02.02.628.75 1.128 1.582 1.699 2.37.828 1.153 1.781 2.282 2.922 3.138.195.093.39.18.582.27Zm-1.653-.945c-.75-.715-1.402-1.524-1.996-2.352-.523-.726-.992-1.492-1.55-2.187 1.05 1.62 1.976 3.297 3.546 4.539Zm4.235 1.336c-.082-.18-.16-.336-.23-.477a11.907 11.907 0 0 0-1.34-1.726c-1.614-1.68-3.774-2.871-5.766-4.043.082.078.16.16.238.25.379.289.77.57 1.152.855 1.13.832 2.348 1.567 3.418 2.48.922.801 1.805 1.676 2.528 2.66Zm.425 1-.007-.02c-.793-1.336-1.891-2.484-3.07-3.492-1.06-.914-2.274-1.644-3.403-2.473-.148-.113-.305-.222-.461-.332.05.059.102.118.145.18 1.355 1.25 2.695 2.504 4.062 3.73.426.38.836.778 1.274 1.149.492.406 1.015.805 1.464 1.273Zm-.453-.172c-.363-.328-.75-.629-1.12-.945-.442-.368-.856-.766-1.282-1.149-1.11-.996-2.2-2.012-3.29-3.02.087.122.173.231.263.352.52.692 1.14 1.332 1.707 1.992.578.676 1.136 1.383 1.879 1.848.367.152.726.313 1.078.496.254.137.511.27.765.426Zm-9.906-.3c0-.02 0-.028.004-.048l-.012-.277c.004-.012.004-.02.004-.031-.004-.016-.008-.032-.004-.04-.02.133-.039.262-.066.395a.64.64 0 0 1 .043-.012c.012 0 .02 0 .031.012Zm-.113 8.335c.316-1.105.605-2.203.707-3.367.078-.934-.059-1.906-.149-2.832-.062-.59-.14-1.192-.234-1.79l.004.036c.008.484-.004.969-.012 1.453 0 .309-.004.625-.004.934.004 1.48.067 2.882-.12 4.355-.055.395-.118.805-.192 1.211Zm-2.301 4.305c-.195-2.086.016-4.192.523-6.235.325-1.265.684-2.543 1.051-3.797.13-.43.262-.867.352-1.308a8.227 8.227 0 0 1-.262.601c-.066.204-.137.407-.207.61-.578 1.586-.996 3.234-1.328 4.883-.18.886-.422 1.793-.438 2.703.04.554.098 1.11.16 1.66.047.3.094.59.149.883Zm.129-.922c.117-2 .652-3.969 1.16-5.938.309-1.191.5-2.437.68-3.656.027-.187.058-.371.094-.562-.09.367-.2.734-.31 1.097-.37 1.25-.73 2.528-1.054 3.793-.426 1.723-.637 3.5-.57 5.266Zm.191 1.59c.09-.614.215-1.211.32-1.82.278-1.587.52-3.16.852-4.735.227-1.082.457-2.195.578-3.293.063-.586.114-1.168.168-1.75l-.07.441c-.184 1.223-.371 2.477-.688 3.684-.652 2.457-1.332 4.934-1.16 7.473Zm.114.629c.183-.493.378-.985.52-1.5.44-1.72.64-3.489.905-5.239.278-1.761.5-3.566.559-5.363l-.004-.035a82.037 82.037 0 0 1-.156 1.687c-.125 1.106-.36 2.227-.578 3.317-.332 1.574-.57 3.14-.848 4.726-.148.79-.324 1.594-.398 2.407Zm-.774-5.188c.09-.465.2-.93.293-1.394a35.97 35.97 0 0 1 1.035-4.024c-.25.508-.488 1.035-.683 1.594-.453 1.25-.63 2.531-.645 3.824Zm1.84 2.043c.066-.176.133-.348.2-.523.241-1.032.472-2.145.6-3.168.118-.93.134-1.84.126-2.75-.098.96-.235 1.925-.383 2.879-.18 1.183-.332 2.382-.543 3.562Zm12.844 4.399a22.581 22.581 0 0 1-1.688-2.29 65.879 65.879 0 0 1-2.207-3.695c-.304-.543-.617-1.097-.984-1.61.39.848.687 1.759 1.129 2.634a17.225 17.225 0 0 0 3.75 4.96Zm2.558-.641c-1.074-1.89-2.496-3.649-4.125-4.996-.78-.645-1.617-1.203-2.46-1.766.695.613 1.363 1.246 2.035 1.88 1.636 1.554 3.23 3.093 4.55 4.882Zm.746 1.473c-.003-.004-.003-.016-.007-.02-1.442-2.39-3.399-4.277-5.422-6.195a77.927 77.927 0 0 0-1.953-1.805c.058.082.109.164.16.246.594.574 1.226 1.129 1.808 1.707 1.422 1.418 2.75 2.918 4.075 4.438.503.578.945 1.086 1.34 1.629Zm-2.023.226c-1.152-1.379-2.176-2.863-3.094-4.379-.496-.82-1.183-1.636-1.664-2.469-.117-.207-.226-.406-.336-.601a8.516 8.516 0 0 0-.3-.356c.128.223.253.442.378.668a69.02 69.02 0 0 0 2.2 3.688 20.674 20.674 0 0 0 2.613 3.297c.047.031.086.066.125.094.023.02.055.042.078.058Zm3.348 3.113c-1.215-2.359-2.934-4.472-4.653-6.46-.941-1.094-1.867-2.172-2.847-3.227.05.066.097.129.152.195a93.707 93.707 0 0 1 2.41 3.13c1.422 1.944 3.422 4.456 4.938 6.362Zm-1.184-1.187c-1.316-1.66-2.789-3.54-3.906-5.063a93.3 93.3 0 0 0-2.406-3.12c-.036-.044-.07-.087-.11-.13.434.641.938 1.282 1.324 1.922 1.098 1.813 2.364 3.602 3.809 5.192.441.375.871.785 1.29 1.199Zm.813.133c-.188-.469-.383-.926-.57-1.395-.54-.86-1.134-1.554-1.864-2.387-1.297-1.488-2.594-2.964-3.984-4.355.777.86 1.523 1.73 2.285 2.61 1.476 1.718 2.972 3.542 4.133 5.527Zm0 0" fill-rule="evenodd"/></g></g></g></svg>
