<svg viewBox="26.556 173.469 119.796 7.438" xmlns="http://www.w3.org/2000/svg"><defs><clipPath id="a"><path d="M26 173.445h121v7.461H26Zm0 0"/></clipPath></defs><g clip-path="url(#a)"><path fill="#ffafcc" d="m141.848 174.152-.313-.05c-1.18-.184-2.992-.309-5.437-.364-4.266-.11-9.043-.144-14.336-.113-11.528.11-21.117.355-28.77.738-10.355.54-25.437 2.258-45.246 5.149l10.5-4.313c.57-.336.774-.722.598-1.16.02-.332-.297-.52-.946-.57l-21.902 3.558c-3.105.477-5.582.774-7.43.891l-.343.008 1.554-.918 4.633-2.488a60.597 60.597 0 0 0-7.629 2.98c-.511.793-.152 1.328 1.09 1.605 1.094.114 3.41-.09 6.95-.605 1.066-.11 7.699-1.188 19.898-3.23l-9.89 4.144c-.524.258-.755.547-.688.867.09.512.394.774.922.781l22.562-2.902 9.488-1.105c8.16-.86 14.778-1.38 19.852-1.563 17.062-.597 31.3-.754 42.719-.46-2.18.304-3.192.804-3.036 1.495-.03.547 1.09.73 3.368.551 1.886-.082 4-.27 6.336-.562l-1.196.027c-2.984-.176-5.086-.277-6.304-.305 4.933-.953 5.93-1.648 2.996-2.086"/></g></svg>
